{
.appVersion = "3151";
.formatVersion = 3;
axes = (
{
name = Weight;
tag = wght;
},
{
name = Width;
tag = wdth;
},
{
name = Slant;
tag = slnt;
}
);
classes = (
{
code = "zero one two three four five six seven eight nine ";
name = Num;
},
{
code = "zero.canadian one.canadian two.canadian three.canadian four.canadian five.canadian six.canadian seven.canadian eight.canadian nine.canadian 
";
name = Num_can;
},
{

glyphs = (
{
glyphname = idotless;
lastChange = "2023-01-13 15:55:21 +0000";
layers = (
{
layerId = "7D3FB2DB-72C7-4646-AA25-FB3BBECA0225";
shapes = (
{
closed = 1;
nodes = (
(144,520,l),
(55,520,l),
(55,0,l),
(144,0,l)
);
}
);
width = 199;
}
);
note = dotlessi;
unicode = 305;
},
{
glyphname = "acuteFinal-canadian";
lastChange = "2023-01-13 15:55:21 +0000";
layers = (
{
layerId = "7D3FB2DB-72C7-4646-AA25-FB3BBECA0225";
shapes = (
{
closed = 1;
nodes = (
(95,345,l),
(225,690,l),
(156,690,l),
(26,345,l)
);
}
);
width = 251;
}
);
metricRight = "=|";
note = uni141F;
unicode = 5151;
},
{
glyphname = "graveFinal-canadian";
kernLeft = mwestleft;
kernRight = mwestright;
lastChange = "2023-01-13 15:55:21 +0000";
layers = (
{
layerId = "7D3FB2DB-72C7-4646-AA25-FB3BBECA0225";
shapes = (
{
closed = 1;
nodes = (
(225,345,l),
(95,690,l),
(26,690,l),
(156,345,l)
);
}
);
width = 251;
}
);
metricLeft = "=|acuteFinal-canadian";
metricRight = "=|acuteFinal-canadian";
note = uni1420;
unicode = 5152;
},
{
glyphname = "ringBottomhalfFinal-canadian";
kernLeft = mwestleft;
kernRight = mwestright;
lastChange = "2023-01-13 15:55:21 +0000";
layers = (
{
layerId = "7D3FB2DB-72C7-4646-AA25-FB3BBECA0225";
shapes = (
{
closed = 1;
nodes = (
(245,339,o),
(291,387,o),
(291,479,cs),
(291,690,l),
(230,690,l),
(230,475,ls),
(230,420,o),
(211,395,o),
(170,395,cs),
(130,395,o),
(111,421,o),
(111,475,cs),
(111,690,l),
(49,690,l),
(49,477,ls),
(49,387,o),
(96,339,o),
(170,339,cs)
);
}
);
width = 340;
}
);
metricLeft = "ai-canadian";
metricRight = "==|ai-canadian";
note = uni1421;
unicode = 5153;
},
{
glyphname = "ringTophalfFinal-canadian";
lastChange = "2023-01-13 15:55:21 +0000";
layers = (
{
layerId = "7D3FB2DB-72C7-4646-AA25-FB3BBECA0225";
shapes = (
{
closed = 1;
nodes = (
(111,345,l),
(111,560,ls),
(111,613,o),
(130,639,o),
(170,639,cs),
(211,639,o),
(230,614,o),
(230,559,cs),
(230,345,l),
(291,345,l),
(291,555,ls),
(291,647,o),
(245,696,o),
(170,696,cs),
(96,696,o),
(49,647,o),
(49,557,cs),
(49,345,l)
);
}
);
width = 340;
}
);
metricLeft = "ai-canadian";
metricRight = "==|ai-canadian";
note = uni1422;
unicode = 5154;
},
{
glyphname = "ringRighthalfFinal-canadian";
kernLeft = mwestleft;
kernRight = mwestright;
lastChange = "2023-01-13 15:55:24 +0000";
layers = (
{
layerId = "7D3FB2DB-72C7-4646-AA25-FB3BBECA0225";
shapes = (
{
closed = 1;
nodes = (
(87,345,ls),
(191,345,o),
(247,410,o),
(247,517,cs),
(247,624,o),
(191,690,o),
(88,690,cs),
(48,690,l),
(48,631,l),
(81,631,ls),
(151,631,o),
(185,590,o),
(185,517,cs),
(185,442,o),
(151,404,o),
(81,404,cs),
(48,404,l),
(48,345,l)
);
}
);
width = 293;
}
);
metricLeft = "=|t-canadian";
metricWidth = "t-canadian";
note = uni1423;
unicode = 5155;
},
{
glyphname = "ringFinal-canadian";
kernLeft = mwestleft;
kernRight = mwestright;
lastChange = "2023-01-13 15:55:21 +0000";
layers = (
{
layerId = "7D3FB2DB-72C7-4646-AA25-FB3BBECA0225";
shapes = (
{
closed = 1;
nodes = (
(294,389,o),
(357,455,o),
(357,543,cs),
(357,630,o),
(293,696,o),
(203,696,cs),
(111,696,o),
(47,630,o),
(47,543,cs),
(47,455,o),
(111,389,o),
(203,389,cs)
);
},
{
closed = 1;
nodes = (
(143,442,o),
(104,483,o),
(104,543,cs),
(104,601,o),
(143,642,o),
(203,642,cs),
(260,642,o),
(299,600,o),
(299,543,cs),
(299,483,o),
(260,442,o),
(203,442,cs)
);
}
);
width = 404;
}
);
note = uni1424;
unicode = 5156;
},
{
glyphname = "doubleacuteFinal-canadian";
lastChange = "2023-01-13 15:55:21 +0000";
layers = (
{
layerId = "7D3FB2DB-72C7-4646-AA25-FB3BBECA0225";
shapes = (
{
closed = 1;
nodes = (
(225,690,l),
(156,690,l),
(26,345,l),
(95,345,l)
);
},
{
closed = 1;
nodes = (
(351,690,l),
(281,690,l),
(152,345,l),
(221,345,l)
);
}
);
width = 377;
}
);
metricLeft = "acuteFinal-canadian";
metricRight = "=|";
note = uni1425;
unicode = 5157;
},
{
glyphname = "doubleshortverticalstrokesFinal-canadian";
kernLeft = mwestleft;
kernRight = mwestright;
lastChange = "2023-01-13 15:55:21 +0000";
layers = (
{
layerId = "7D3FB2DB-72C7-4646-AA25-FB3BBECA0225";
shapes = (
{
closed = 1;
nodes = (
(111,690,l),
(49,690,l),
(49,345,l),
(111,345,l)
);
},
{
closed = 1;
nodes = (
(222,690,l),
(160,690,l),
(160,345,l),
(222,345,l)
);
}
);
width = 271;
}
);
metricLeft = "pWestCree-canadian";
metricRight = "pWestCree-canadian";
note = uni1426;
unicode = 5158;
},
{
glyphname = "middledotFinal-canadian";
lastChange = "2023-01-13 15:55:21 +0000";
layers = (
{
layerId = "7D3FB2DB-72C7-4646-AA25-FB3BBECA0225";
shapes = (
{
closed = 1;
nodes = (
(121,304,o),
(143,327,o),
(143,355,cs),
(143,383,o),
(121,405,o),
(93,405,cs),
(65,405,o),
(43,383,o),
(43,355,cs),
(43,327,o),
(65,304,o),
(93,304,cs)
);
}
);
width = 185;
}
);
note = uni1427;
unicode = 5159;
},
{
glyphname = "shorthorizontalstrokeFinal-canadian";
kernLeft = mwestleft;
kernRight = mwestright;
lastChange = "2023-01-13 15:55:21 +0000";
layers = (
{
layerId = "7D3FB2DB-72C7-4646-AA25-FB3BBECA0225";
shapes = (
{
closed = 1;
nodes = (
(309,499,l),
(309,561,l),
(49,561,l),
(49,499,l)
);
}
);
width = 358;
}
);
metricRight = "=|";
note = uni1428;
unicode = 5160;
},
{
glyphname = "plusFinal-canadian";
kernLeft = mwestleft;
kernRight = mwestright;
lastChange = "2023-01-13 15:55:21 +0000";
layers = (
{
layerId = "7D3FB2DB-72C7-4646-AA25-FB3BBECA0225";
shapes = (
{
closed = 1;
nodes = (
(209,399,l),
(209,516,l),
(309,516,l),
(309,576,l),
(209,576,l),
(209,690,l),
(151,690,l),
(151,576,l),
(49,576,l),
(49,516,l),
(151,516,l),
(151,399,l)
);
}
);
width = 358;
}
);
metricLeft = "shorthorizontalstrokeFinal-canadian";
metricRight = "shorthorizontalstrokeFinal-canadian";
note = uni1429;
unicode = 5161;
},
{
glyphname = "downtackFinal-canadian";
kernLeft = mwestleft;
kernRight = mwestright;
lastChange = "2023-01-13 15:55:21 +0000";
layers = (
{
layerId = "7D3FB2DB-72C7-4646-AA25-FB3BBECA0225";
shapes = (
{
closed = 1;
nodes = (
(211,345,l),
(211,631,l),
(309,631,l),
(309,690,l),
(49,690,l),
(49,631,l),
(149,631,l),
(149,345,l)
);
}
);
width = 358;
}
);
metricLeft = "shorthorizontalstrokeFinal-canadian";
metricRight = "shorthorizontalstrokeFinal-canadian";
note = uni142A;
unicode = 5162;
},
{
glyphname = "thFinalWoodScree-canadian";
lastChange = "2023-01-13 15:55:24 +0000";
layers = (
{
layerId = "7D3FB2DB-72C7-4646-AA25-FB3BBECA0225";
shapes = (
{
closed = 1;
nodes = (
(211,345,l),
(211,420,l),
(309,420,l),
(309,474,l),
(211,474,l),
(211,560,l),
(309,560,l),
(309,614,l),
(211,614,l),
(211,690,l),
(149,690,l),
(149,614,l),
(49,614,l),
(49,560,l),
(149,560,l),
(149,474,l),
(49,474,l),
(49,420,l),
(149,420,l),
(149,345,l)
);
}
);
width = 358;
}
);
metricLeft = "hyphen-canadian";
metricRight = "hyphen-canadian";
note = uni167E;
unicode = 5758;
},
{
glyphname = "ringSmallFinal-canadian";
kernLeft = mwestleft;
kernRight = mwestright;
lastChange = "2023-01-13 15:55:21 +0000";
layers = (
{
layerId = "7D3FB2DB-72C7-4646-AA25-FB3BBECA0225";
shapes = (
{
closed = 1;
nodes = (
(191,521,o),
(233,559,o),
(233,611,cs),
(233,665,o),
(191,702,o),
(141,702,cs),
(91,702,o),
(49,665,o),
(49,611,cs),
(49,559,o),
(90,521,o),
(141,521,cs)
);
},
{
closed = 1;
nodes = (
(112,561,o),
(92,582,o),
(92,611,cs),
(92,640,o),
(112,662,o),
(141,662,cs),
(170,662,o),
(190,640,o),
(190,611,cs),
(190,582,o),
(170,561,o),
(141,561,cs)
);
}
);
width = 282;
}
);
note = g725;
unicode = 6366;
},
{
glyphname = "raiseddotFinal-canadian";
kernLeft = mwestleft;
kernRight = mwestright;
lastChange = "2023-01-13 15:55:21 +0000";
layers = (
{
layerId = "7D3FB2DB-72C7-4646-AA25-FB3BBECA0225";
shapes = (
{
closed = 1;
nodes = (
(123,602,o),
(145,624,o),
(145,652,cs),
(145,680,o),
(123,702,o),
(95,702,cs),
(68,702,o),
(44,680,o),
(44,652,cs),
(44,624,o),
(68,602,o),
(95,602,cs)
);
}
);
width = 190;
}
);
note = g725;
unicode = 6367;
},
{
glyphname = "plusFinal-canadian.base";
lastChange = "2023-01-13 15:55:21 +0000";
layers = (
{
layerId = "7D3FB2DB-72C7-4646-AA25-FB3BBECA0225";
shapes = (
{
closed = 1;
nodes = (
(209,0,l),
(209,117,l),
(309,117,l),
(309,177,l),
(209,177,l),
(209,291,l),
(151,291,l),
(151,177,l),
(49,177,l),
(49,117,l),
(151,117,l),
(151,0,l)
);
}
);
width = 358;
}
);
metricLeft = "shorthorizontalstrokeFinal-canadian";
metricRight = "shorthorizontalstrokeFinal-canadian";
note = uni1429;
},
{
glyphname = "e-canadian";
kernLeft = ecanleft;
kernRight = ecanright;
lastChange = "2023-01-13 15:55:21 +0000";
layers = (
{
anchors = (
{
name = middle_center_can;
pos = (287,454);
},
{
name = top_center_can;
pos = (287,690);
},
{
name = top_left_can;
pos = (106,690);
},
{
name = top_right_can;
pos = (469,690);
}
);
layerId = "7D3FB2DB-72C7-4646-AA25-FB3BBECA0225";
shapes = (
{
closed = 1;
nodes = (
(303,0,l),
(552,665,l),
(552,690,l),
(25,690,l),
(25,665,l),
(273,0,l)
);
},
{
closed = 1;
nodes = (
(309,106,l),
(119,637,l),
(103,616,l),
(470,616,l),
(459,637,l),
(268,106,l)
);
}
);
width = 577;
}
);
metricRight = "=|";
note = uni1401;
unicode = 5121;
},
{
glyphname = "i-canadian";
kernLeft = icanleft;
kernRight = icanright;
lastChange = "2023-01-13 15:55:21 +0000";
layers = (
{
anchors = (
{
name = middle_center_can;
pos = (286,363);
},
{
name = top_center_can;
pos = (288,690);
},
{
name = top_left_can;
pos = (107,690);
},
{
name = top_right_can;
pos = (469,690);
}
);
layerId = "7D3FB2DB-72C7-4646-AA25-FB3BBECA0225";
shapes = (
{
closed = 1;
nodes = (
(552,0,l),
(552,25,l),
(303,690,l),
(273,690,l),
(25,25,l),
(25,0,l)
);
},
{
closed = 1;
nodes = (
(308,583,l),
(267,583,l),
(458,53,l),
(469,73,l),
(103,73,l),
(118,53,l)
);
}
);
width = 577;
}
);
metricLeft = "e-canadian";
metricWidth = "e-canadian";
note = uni1403;
unicode = 5123;
},
{
glyphname = "o-canadian";
kernLeft = ocanleft;
kernRight = ocanright;
lastChange = "2023-01-13 15:55:21 +0000";
layers = (
{
anchors = (
{
name = middle_center_can;
pos = (227,345);
},
{
name = top_center_can;
pos = (286,690);
},
{
name = top_double;
pos = (370,690);
},
{
name = top_left_can;
pos = (96,690);
},
{
name = top_right_can;
pos = (478,690);
}
);
layerId = "7D3FB2DB-72C7-4646-AA25-FB3BBECA0225";
shapes = (
{
closed = 1;
nodes = (
(83,0,l),
(521,328,l),
(521,361,l),
(83,690,l),
(60,690,l),
(60,0,l)
);
},
{
closed = 1;
nodes = (
(134,588,l),
(114,579,l),
(446,326,l),
(446,365,l),
(114,112,l),
(134,101,l)
);
}
);
width = 550;
}
);
metricLeft = "nunavuth-canadian";
note = uni1405;
unicode = 5125;
},
{
glyphname = "eeCarrier-canadian";
lastChange = "2023-01-13 15:55:21 +0000";
layers = (
{
layerId = "7D3FB2DB-72C7-4646-AA25-FB3BBECA0225";
shapes = (
{
closed = 1;
nodes = (
(83,0,l),
(521,328,l),
(521,361,l),
(83,690,l),
(60,690,l),
(60,0,l)
);
},
{
closed = 1;
nodes = (
(128,588,l),
(114,584,l),
(446,331,l),
(446,359,l),
(114,106,l),
(128,101,l)
);
},
{
closed = 1;
nodes = (
(241,428,l),
(206,428,l),
(206,262,l),
(241,262,l)
);
}
);
width = 550;
}
);
metricLeft = "nunavuth-canadian";
metricRight = "o-canadian";
note = uni1408;
unicode = 5128;
},
{
glyphname = "a-canadian";
kernLeft = acanleft;
kernRight = acanright;
lastChange = "2023-01-13 15:55:21 +0000";
layers = (
{
anchors = (
{
name = middle_center_can;
pos = (320,345);
},
{
name = top_center_can;
pos = (244,690);
},
{
name = top_left_can;
pos = (72,690);
},
{
name = top_right_can;
pos = (451,690);
}
);
layerId = "7D3FB2DB-72C7-4646-AA25-FB3BBECA0225";
shapes = (
{
closed = 1;
nodes = (
(490,0,l),
(490,690,l),
(467,690,l),
(29,361,l),
(29,328,l),
(467,0,l)
);
},
{
closed = 1;
nodes = (
(436,111,l),
(103,364,l),
(103,325,l),
(436,578,l),
(415,588,l),
(415,101,l)
);
}
);
width = 550;
}
);
metricRight = "nunavuth-canadian";
note = uni140A;
unicode = 5130;
},
{
glyphname = "ai-canadian";
lastChange = "2023-01-13 15:55:21 +0000";
layers = (
{
layerId = "7D3FB2DB-72C7-4646-AA25-FB3BBECA0225";
shapes = (
{
closed = 1;
nodes = (
(211,339,o),
(242,367,o),
(259,420,c),
(241,420,l),
(258,365,o),
(292,339,o),
(339,339,cs),
(405,339,o),
(451,381,o),
(451,478,cs),
(451,690,l),
(393,690,l),
(393,479,ls),
(393,413,o),
(368,395,o),
(335,395,cs),
(302,395,o),
(278,414,o),
(278,479,cs),
(278,690,l),
(221,690,l),
(221,479,ls),
(221,413,o),
(196,395,o),
(163,395,cs),
(130,395,o),
(107,415,o),
(107,479,cs),
(107,690,l),
(49,690,l),
(49,477,ls),
(49,381,o),
(96,339,o),
(160,339,cs)
);
}
);
width = 500;
}
);
metricRight = "=|";
note = uni141C;
unicode = 5148;
},
{
glyphname = "ycreew-canadian";
lastChange = "2023-01-13 15:55:21 +0000";
layers = (
{
layerId = "7D3FB2DB-72C7-4646-AA25-FB3BBECA0225";
shapes = (
{
closed = 1;
nodes = (
(281,510,o),
(309,545,o),
(309,603,cs),
(309,661,o),
(280,696,o),
(241,696,cs),
(199,696,o),
(171,661,o),
(171,603,cs),
(171,545,o),
(199,510,o),
(240,510,cs)
);
},
{
closed = 1;
nodes = (
(159,339,o),
(187,374,o),
(187,432,cs),
(187,490,o),
(158,525,o),
(118,525,cs),
(77,525,o),
(49,490,o),
(49,432,cs),
(49,374,o),
(76,339,o),
(118,339,cs)
);
},
{
closed = 1;
nodes = (
(97,373,o),
(84,392,o),
(84,432,cs),
(84,472,o),
(97,491,o),
(118,491,cs),
(139,491,o),
(153,472,o),
(153,432,cs),
(153,392,o),
(139,373,o),
(118,373,cs)
);
},
{
closed = 1;
nodes = (
(218,544,o),
(206,563,o),
(206,603,cs),
(206,643,o),
(218,662,o),
(240,662,cs),
(262,662,o),
(274,643,o),
(274,603,cs),
(274,563,o),
(262,544,o),
(240,544,cs)
);
}
);
width = 358;
}
);
metricRight = "=|";
note = uni141D;
unicode = 5149;
},
{
glyphname = "glottalstop-canadian";
lastChange = "2023-01-13 15:55:24 +0000";
layers = (
{
layerId = "7D3FB2DB-72C7-4646-AA25-FB3BBECA0225";
shapes = (
{
closed = 1;
nodes = (
(308,345,l),
(308,359,l),
(185,690,l),
(168,690,l),
(44,359,l),
(44,345,l)
);
},
{
closed = 1;
nodes = (
(191,628,l),
(161,628,l),
(252,372,l),
(262,392,l),
(91,392,l),
(99,372,l)
);
}
);
width = 352;
}
);
metricRight = "=|";
note = uni141E;
unicode = 5150;
},
{
glyphname = "pe-canadian";
kernLeft = ecanleft;
kernRight = ecanright;
lastChange = "2023-01-13 15:55:21 +0000";
layers = (
{
anchors = (
{
name = middle_center_can;
pos = (287,454);
},
{
name = top_center_can;
pos = (287,690);
},
{
name = top_left_can;
pos = (106,690);
},
{
name = top_right_can;
pos = (469,690);
}
);
layerId = "7D3FB2DB-72C7-4646-AA25-FB3BBECA0225";
shapes = (
{
closed = 1;
nodes = (
(303,0,l),
(552,665,l),
(552,690,l),
(472,690,l),
(261,107,l),
(318,107,l),
(106,690,l),
(25,690,l),
(25,665,l),
(273,0,l)
);
}
);
width = 577;
}
);
metricLeft = "e-canadian";
metricRight = "e-canadian";
note = uni142F;
unicode = 5167;
},
{
glyphname = "pi-canadian";
kernLeft = icanleft;
kernRight = icanright;
lastChange = "2023-01-13 15:55:21 +0000";
layers = (
{
anchors = (
{
name = middle_center_can;
pos = (288,363);
},
{
name = top_center_can;
pos = (288,690);
},
{
name = top_left_can;
pos = (107,690);
},
{
name = top_right_can;
pos = (469,690);
}
);
layerId = "7D3FB2DB-72C7-4646-AA25-FB3BBECA0225";
shapes = (
{
closed = 1;
nodes = (
(105,0,l),
(316,582,l),
(259,582,l),
(471,0,l),
(552,0,l),
(552,25,l),
(303,690,l),
(273,690,l),
(25,25,l),
(25,0,l)
);
}
);
width = 577;
}
);
metricLeft = "e-canadian";
metricRight = "e-canadian";
note = uni1431;
unicode = 5169;
},
{
glyphname = "po-canadian";
kernLeft = ocanleft;
kernRight = ocanright;
lastChange = "2023-01-13 15:55:21 +0000";
layers = (
{
anchors = (
{
name = middle_center_can;
pos = (163,345);
},
{
name = top_center_can;
pos = (265,690);
},
{
name = top_double;
pos = (358,690);
},
{
name = top_left_can;
pos = (79,690);
},
{
name = top_right_can;
pos = (455,690);
}
);
layerId = "7D3FB2DB-72C7-4646-AA25-FB3BBECA0225";
shapes = (
{
closed = 1;
nodes = (
(64,0,l),
(497,328,l),
(497,361,l),
(64,690,l),
(41,690,l),
(41,607,l),
(411,325,l),
(411,366,l),
(41,84,l),
(41,0,l)
);
}
);
width = 526;
}
);
metricRight = "o-canadian";
note = uni1433;
unicode = 5171;
},
{
glyphname = "pa-canadian";
kernLeft = acanleft;
kernRight = acanright;
lastChange = "2023-01-13 15:55:24 +0000";
layers = (
{
anchors = (
{
name = middle_center_can;
pos = (284,345);
},
{
name = top_center_can;
pos = (263,690);
},
{
name = top_left_can;
pos = (72,690);
},
{
name = top_right_can;
pos = (447,690);
}
);
layerId = "7D3FB2DB-72C7-4646-AA25-FB3BBECA0225";
shapes = (
{
closed = 1;
nodes = (
(486,0,l),
(486,83,l),
(116,365,l),
(116,324,l),
(486,606,l),
(486,690,l),
(463,690,l),
(29,361,l),
(29,328,l),
(463,0,l)
);
}
);
width = 527;
}
);
metricRight = "=|po-canadian";
note = uni1438;
unicode = 5176;
},
{
glyphname = "p-canadian";
kernLeft = mwestleft;
kernRight = mwestright;
lastChange = "2023-01-13 15:55:21 +0000";
layers = (
{
layerId = "7D3FB2DB-72C7-4646-AA25-FB3BBECA0225";
shapes = (
{
closed = 1;
nodes = (
(274,345,l),
(274,403,l),
(97,540,l),
(97,496,l),
(274,632,l),
(274,690,l),
(262,690,l),
(49,527,l),
(49,508,l),
(262,345,l)
);
}
);
width = 324;
}
);
note = uni1449;
unicode = 5193;
},
{
glyphname = "pWestCree-canadian";
kernLeft = mwestleft;
kernRight = mwestright;
lastChange = "2023-01-13 15:55:21 +0000";
layers = (
{
layerId = "7D3FB2DB-72C7-4646-AA25-FB3BBECA0225";
shapes = (
{
closed = 1;
nodes = (
(111,345,l),
(111,690,l),
(49,690,l),
(49,345,l)
);
}
);
width = 160;
}
);
metricRight = "=|";
note = uni144A;
unicode = 5194;
},
{
color = 6;
glyphname = "hCarrier-canadian";
lastChange = "2023-01-13 15:55:21 +0000";
layers = (
{
layerId = "7D3FB2DB-72C7-4646-AA25-FB3BBECA0225";
shapes = (
{
closed = 1;
nodes = (
(111,183,l),
(111,323,ls),
(111,358,o),
(128,380,o),
(158,380,cs),
(187,380,o),
(200,360,o),
(200,323,cs),
(200,183,l),
(262,183,l),
(262,333,ls),
(262,405,o),
(219,435,o),
(174,435,cs),
(131,435,o),
(101,408,o),
(97,371,c),
(111,361,l),
(111,527,l),
(49,527,l),
(49,183,l)
);
}
);
width = 296;
}
);
metricLeft = "pWestCree-canadian";
note = uni144B;
unicode = 5195;
},
{
glyphname = "te-canadian";
lastChange = "2023-01-13 15:55:21 +0000";
layers = (
{
anchors = (
{
name = middle_center_can;
pos = (291,345);
},
{
name = top_center_can;
pos = (291,690);
},
{
name = top_left_can;
pos = (102,690);
},
{
name = top_right_can;
pos = (480,690);
}
);
layerId = "7D3FB2DB-72C7-4646-AA25-FB3BBECA0225";
shapes = (
{
closed = 1;
nodes = (
(440,-13,o),
(526,78,o),
(526,253,cs),
(526,690,l),
(435,690,l),
(435,253,ls),
(435,127,o),
(384,71,o),
(291,71,cs),
(200,71,o),
(147,129,o),
(147,253,cs),
(147,690,l),
(56,690,l),
(56,251,ls),
(56,78,o),
(145,-13,o),
(291,-13,cs)
);
}
);
width = 582;
}
);
metricRight = "=|";
note = uni144C;
unicode = 5196;
},
{
glyphname = "ti-canadian";
lastChange = "2023-01-13 15:55:21 +0000";
layers = (
{
anchors = (
{
name = middle_center_can;
pos = (291,345);
},
{
name = middle_right_can;
pos = (633,345);
},
{
name = top_center_can;
pos = (291,690);
},
{
name = top_left_can;
pos = (102,690);
},
{
name = top_right_can;
pos = (480,690);
}
);
layerId = "7D3FB2DB-72C7-4646-AA25-FB3BBECA0225";
shapes = (
{
closed = 1;
nodes = (
(147,0,l),
(147,437,ls),
(147,562,o),
(198,618,o),
(291,618,cs),
(382,618,o),
(435,560,o),
(435,437,cs),
(435,0,l),
(526,0,l),
(526,439,ls),
(526,611,o),
(438,702,o),
(291,702,cs),
(146,702,o),
(56,611,o),
(56,437,cs),
(56,0,l)
);
}
);
width = 582;
}
);
metricLeft = "te-canadian";
metricRight = "te-canadian";
note = uni144E;
unicode = 5198;
},
{
glyphname = "to-canadian";
kernLeft = toleft;
lastChange = "2023-01-13 15:55:21 +0000";
layers = (
{
anchors = (
{
name = middle_center_can;
pos = (195,345);
},
{
name = middle_right_can;
pos = (545,345);
},
{
name = top_center_can;
pos = (219,690);
},
{
name = top_double;
pos = (274,690);
},
{
name = top_left_can;
pos = (80,690);
},
{
name = top_right_can;
pos = (399,690);
}
);
layerId = "7D3FB2DB-72C7-4646-AA25-FB3BBECA0225";
shapes = (
{
closed = 1;
nodes = (
(136,0,ls),
(335,0,o),
(438,120,o),
(438,346,cs),
(438,572,o),
(335,690,o),
(133,690,cs),
(42,690,l),
(42,607,l),
(134,607,ls),
(279,607,o),
(348,524,o),
(348,346,cs),
(348,169,o),
(279,83,o),
(137,83,cs),
(42,83,l),
(42,0,l)
);
}
);
width = 487;
}
);
note = uni1450;
unicode = 5200;
},
{
glyphname = "ta-canadian";
kernRight = taright;
lastChange = "2023-01-13 15:55:21 +0000";
layers = (
{
anchors = (
{
name = middle_center_can;
pos = (293,345);
},
{
name = top_center_can;
pos = (269,690);
},
{
name = top_left_can;
pos = (88,690);
},
{
name = top_right_can;
pos = (407,690);
}
);
layerId = "7D3FB2DB-72C7-4646-AA25-FB3BBECA0225";
shapes = (
{
closed = 1;
nodes = (
(445,0,l),
(445,83,l),
(353,83,ls),
(208,83,o),
(140,167,o),
(140,344,cs),
(140,521,o),
(208,607,o),
(350,607,cs),
(445,607,l),
(445,690,l),
(351,690,ls),
(152,690,o),
(49,570,o),
(49,344,cs),
(49,118,o),
(152,0,o),
(354,0,cs)
);
}
);
width = 487;
}
);
metricLeft = "=|to-canadian";
metricRight = "=|to-canadian";
note = uni1455;
unicode = 5205;
},
{
glyphname = "t-canadian";
kernLeft = mwestleft;
kernRight = mwestright;
lastChange = "2023-01-13 15:55:21 +0000";
layers = (
{
layerId = "7D3FB2DB-72C7-4646-AA25-FB3BBECA0225";
shapes = (
{
closed = 1;
nodes = (
(245,345,l),
(245,404,l),
(213,404,ls),
(143,404,o),
(109,442,o),
(109,517,cs),
(109,590,o),
(143,631,o),
(213,631,cs),
(245,631,l),
(245,690,l),
(207,690,ls),
(103,690,o),
(47,624,o),
(47,517,cs),
(47,410,o),
(103,345,o),
(208,345,cs)
);
}
);
width = 293;
}
);
note = uni1466;
unicode = 5222;
},
{
glyphname = "ke-canadian";
lastChange = "2023-01-13 15:55:21 +0000";
layers = (
{
anchors = (
{
name = middle_center_can;
pos = (249,441);
},
{
name = top_center_can;
pos = (237,690);
},
{
name = top_left_can;
pos = (94,690);
},
{
name = top_right_can;
pos = (380,690);
}
);
layerId = "7D3FB2DB-72C7-4646-AA25-FB3BBECA0225";
shapes = (
{
closed = 1;
nodes = (
(424,0,l),
(424,446,ls),
(424,611,o),
(359,702,o),
(240,702,cs),
(120,702,o),
(49,610,o),
(49,447,cs),
(49,293,o),
(118,198,o),
(226,198,cs),
(287,198,o),
(332,239,o),
(343,293,c),
(334,317,l),
(334,0,l)
);
},
{
closed = 1;
nodes = (
(174,276,o),
(137,331,o),
(137,451,cs),
(137,570,o),
(173,625,o),
(237,625,cs),
(300,625,o),
(336,571,o),
(336,451,cs),
(336,331,o),
(298,276,o),
(237,276,cs)
);
}
);
width = 480;
}
);
metricRight = "te-canadian";
note = uni146B;
unicode = 5227;
},
{
glyphname = "ki-canadian";
lastChange = "2023-01-13 15:55:21 +0000";
layers = (
{
anchors = (
{
name = middle_center_can;
pos = (256,441);
},
{
name = top_center_can;
pos = (243,690);
},
{
name = top_left_can;
pos = (101,690);
},
{
name = top_right_can;
pos = (387,690);
}
);
layerId = "7D3FB2DB-72C7-4646-AA25-FB3BBECA0225";
shapes = (
{
closed = 1;
nodes = (
(147,0,l),
(147,317,l),
(138,293,l),
(149,239,o),
(193,198,o),
(255,198,cs),
(363,198,o),
(432,293,o),
(432,448,cs),
(432,610,o),
(361,702,o),
(243,702,cs),
(122,702,o),
(56,608,o),
(56,446,cs),
(56,0,l)
);
},
{
closed = 1;
nodes = (
(182,276,o),
(145,331,o),
(145,451,cs),
(145,571,o),
(180,625,o),
(243,625,cs),
(308,625,o),
(343,570,o),
(343,451,cs),
(343,331,o),
(306,276,o),
(243,276,cs)
);
}
);
width = 481;
}
);
metricLeft = "te-canadian";
metricRight = "=|ke-canadian";
note = uni146D;
unicode = 5229;
},
{
glyphname = "ko-canadian";
lastChange = "2023-01-13 15:55:21 +0000";
layers = (
{
anchors = (
{
name = middle_center_can;
pos = (249,362);
},
{
name = top_center_can;
pos = (237,690);
},
{
name = top_double;
pos = (380,690);
},
{
name = top_left_can;
pos = (94,690);
},
{
name = top_right_can;
pos = (380,690);
}
);
layerId = "7D3FB2DB-72C7-4646-AA25-FB3BBECA0225";
shapes = (
{
closed = 1;
nodes = (
(358,-13,o),
(424,78,o),
(424,243,cs),
(424,690,l),
(334,690,l),
(334,373,l),
(343,397,l),
(332,451,o),
(287,492,o),
(226,492,cs),
(118,492,o),
(49,397,o),
(49,238,cs),
(49,80,o),
(118,-13,o),
(239,-13,cs)
);
},
{
closed = 1;
nodes = (
(173,65,o),
(137,120,o),
(137,239,cs),
(137,358,o),
(174,413,o),
(237,413,cs),
(298,413,o),
(336,358,o),
(336,239,cs),
(336,119,o),
(300,65,o),
(237,65,cs)
);
}
);
width = 480;
}
);
metricLeft = "ke-canadian";
metricRight = "te-canadian";
note = uni146F;
unicode = 5231;
},
{
glyphname = "ka-canadian";
lastChange = "2023-01-13 15:55:21 +0000";
layers = (
{
anchors = (
{
name = middle_center_can;
pos = (256,364);
},
{
name = top_center_can;
pos = (244,690);
},
{
name = top_left_can;
pos = (101,690);
},
{
name = top_right_can;
pos = (387,690);
}
);
layerId = "7D3FB2DB-72C7-4646-AA25-FB3BBECA0225";
shapes = (
{
closed = 1;
nodes = (
(361,-13,o),
(432,80,o),
(432,242,cs),
(432,397,o),
(363,492,o),
(255,492,cs),
(193,492,o),
(149,451,o),
(138,397,c),
(147,373,l),
(147,690,l),
(56,690,l),
(56,243,ls),
(56,78,o),
(121,-13,o),
(242,-13,cs)
);
},
{
closed = 1;
nodes = (
(180,65,o),
(145,119,o),
(145,239,cs),
(145,358,o),
(182,413,o),
(243,413,cs),
(306,413,o),
(343,358,o),
(343,239,cs),
(343,120,o),
(308,65,o),
(243,65,cs)
);
}
);
width = 481;
}
);
metricLeft = "te-canadian";
metricRight = "==|ke-canadian";
note = uni1472;
unicode = 5234;
},
{
glyphname = "k-canadian";
kernLeft = mwestleft;
kernRight = mwestright;
lastChange = "2023-01-13 15:55:21 +0000";
layers = (
{
layerId = "7D3FB2DB-72C7-4646-AA25-FB3BBECA0225";
shapes = (
{
closed = 1;
nodes = (
(213,339,o),
(259,383,o),
(259,474,cs),
(259,556,o),
(218,601,o),
(167,601,cs),
(128,601,o),
(100,574,o),
(96,529,c),
(111,529,l),
(111,690,l),
(49,690,l),
(49,469,ls),
(49,387,o),
(90,339,o),
(155,339,cs)
);
},
{
closed = 1;
nodes = (
(125,386,o),
(106,409,o),
(106,470,cs),
(106,529,o),
(127,554,o),
(155,554,cs),
(183,554,o),
(203,530,o),
(203,470,cs),
(203,411,o),
(184,386,o),
(155,386,cs)
);
}
);
width = 298;
}
);
note = uni1483;
unicode = 5251;
},
{
glyphname = "kw-canadian";
kernLeft = mwestleft;
kernRight = mwestright;
lastChange = "2023-01-13 15:55:24 +0000";
layers = (
{
layerId = "7D3FB2DB-72C7-4646-AA25-FB3BBECA0225";
shapes = (
{
closed = 1;
nodes = (
(208,339,o),
(248,387,o),
(248,469,cs),
(248,690,l),
(186,690,l),
(186,529,l),
(202,529,l),
(197,574,o),
(168,601,o),
(130,601,cs),
(78,601,o),
(39,556,o),
(39,474,cs),
(39,383,o),
(85,339,o),
(142,339,cs)
);
},
{
closed = 1;
nodes = (
(114,386,o),
(95,411,o),
(95,470,cs),
(95,530,o),
(115,554,o),
(142,554,cs),
(171,554,o),
(190,529,o),
(190,470,cs),
(190,409,o),
(172,386,o),
(142,386,cs)
);
}
);
width = 297;
}
);
metricLeft = "=|k-canadian";
metricRight = "=|k-canadian";
note = uni1484;
unicode = 5252;
},
{
glyphname = "ce-canadian";
kernLeft = celeft;
lastChange = "2023-01-13 15:55:21 +0000";
layers = (
{
anchors = (
{
name = middle_center_can;
pos = (245,403);
},
{
name = top_center_can;
pos = (235,690);
},
{
name = top_left_can;
pos = (93,690);
},
{
name = top_right_can;
pos = (374,690);
}
);
layerId = "7D3FB2DB-72C7-4646-AA25-FB3BBECA0225";
shapes = (
{
closed = 1;
nodes = (
(418,0,l),
(418,464,ls),
(418,612,o),
(355,702,o),
(235,702,cs),
(116,702,o),
(47,616,o),
(47,468,cs),
(47,387,l),
(137,387,l),
(137,483,ls),
(137,572,o),
(169,623,o),
(234,623,cs),
(296,623,o),
(328,573,o),
(328,479,cs),
(328,0,l)
);
}
);
width = 474;
}
);
metricRight = "te-canadian";
note = uni1489;
unicode = 5257;
},
{
glyphname = "ci-canadian";
kernRight = ciright;
lastChange = "2023-01-13 15:55:21 +0000";
layers = (
{
anchors = (
{
name = middle_center_can;
pos = (254,403);
},
{
name = top_center_can;
pos = (243,690);
},
{
name = top_left_can;
pos = (102,690);
},
{
name = top_right_can;
pos = (384,690);
}
);
layerId = "7D3FB2DB-72C7-4646-AA25-FB3BBECA0225";
shapes = (
{
closed = 1;
nodes = (
(147,0,l),
(147,479,ls),
(147,573,o),
(180,623,o),
(242,623,cs),
(306,623,o),
(338,572,o),
(338,483,cs),
(338,387,l),
(428,387,l),
(428,468,ls),
(428,616,o),
(359,702,o),
(242,702,cs),
(121,702,o),
(56,612,o),
(56,463,cs),
(56,0,l)
);
}
);
width = 475;
}
);
metricLeft = "te-canadian";
metricRight = "=|ce-canadian";
note = uni148B;
unicode = 5259;
},
{
glyphname = "co-canadian";
kernLeft = coleft;
lastChange = "2023-01-13 15:55:21 +0000";
layers = (
{
anchors = (
{
name = middle_center_can;
pos = (245,403);
},
{
name = top_center_can;
pos = (234,690);
},
{
name = top_double;
pos = (374,690);
},
{
name = top_left_can;
pos = (93,690);
},
{
name = top_right_can;
pos = (374,690);
}
);
layerId = "7D3FB2DB-72C7-4646-AA25-FB3BBECA0225";
shapes = (
{
closed = 1;
nodes = (
(354,-13,o),
(418,77,o),
(418,227,cs),
(418,690,l),
(328,690,l),
(328,211,ls),
(328,117,o),
(296,67,o),
(234,67,cs),
(169,67,o),
(137,118,o),
(137,207,cs),
(137,302,l),
(47,302,l),
(47,222,ls),
(47,73,o),
(116,-13,o),
(237,-13,cs)
);
}
);
width = 474;
}
);
metricLeft = "ce-canadian";
metricRight = "te-canadian";
note = uni148D;
unicode = 5261;
},
{
glyphname = "ca-canadian";
kernRight = caright;
lastChange = "2023-01-13 15:55:21 +0000";
layers = (
{
anchors = (
{
name = middle_center_can;
pos = (254,403);
},
{
name = top_center_can;
pos = (243,690);
},
{
name = top_left_can;
pos = (102,690);
},
{
name = top_right_can;
pos = (384,690);
}
);
layerId = "7D3FB2DB-72C7-4646-AA25-FB3BBECA0225";
shapes = (
{
closed = 1;
nodes = (
(359,-13,o),
(428,73,o),
(428,222,cs),
(428,302,l),
(338,302,l),
(338,207,ls),
(338,118,o),
(306,67,o),
(242,67,cs),
(180,67,o),
(147,117,o),
(147,211,cs),
(147,690,l),
(56,690,l),
(56,226,ls),
(56,77,o),
(121,-13,o),
(241,-13,cs)
);
}
);
width = 475;
}
);
metricLeft = "te-canadian";
metricRight = "=|ce-canadian";
note = uni1490;
unicode = 5264;
},
{
glyphname = "c-canadian";
kernLeft = mwestleft;
kernRight = mwestright;
lastChange = "2023-01-13 15:55:21 +0000";
layers = (
{
layerId = "7D3FB2DB-72C7-4646-AA25-FB3BBECA0225";
shapes = (
{
closed = 1;
nodes = (
(218,339,o),
(260,383,o),
(260,462,cs),
(260,487,l),
(203,487,l),
(203,452,ls),
(203,412,o),
(185,389,o),
(156,389,cs),
(126,389,o),
(111,411,o),
(111,457,cs),
(111,690,l),
(49,690,l),
(49,466,ls),
(49,383,o),
(88,339,o),
(156,339,cs)
);
}
);
width = 289;
}
);
note = uni14A1;
unicode = 5281;
},
{
glyphname = "thSayisi-canadian";
lastChange = "2023-01-13 15:55:21 +0000";
layers = (
{
layerId = "7D3FB2DB-72C7-4646-AA25-FB3BBECA0225";
shapes = (
{
closed = 1;
nodes = (
(200,339,o),
(239,383,o),
(239,466,cs),
(239,690,l),
(178,690,l),
(178,457,ls),
(178,411,o),
(162,389,o),
(131,389,cs),
(103,389,o),
(86,412,o),
(86,452,cs),
(86,487,l),
(29,487,l),
(29,462,ls),
(29,383,o),
(71,339,o),
(135,339,cs)
);
}
);
width = 288;
}
);
metricLeft = "=|c-canadian";
metricRight = "=|c-canadian";
note = uni14A2;
unicode = 5282;
},
{
glyphname = "me-canadian";
kernLeft = meleft;
lastChange = "2023-01-13 15:55:21 +0000";
layers = (
{
anchors = (
{
name = middle_center_can;
pos = (157,345);
},
{
name = top_center_can;
pos = (205,690);
},
{
name = top_left_can;
pos = (77,690);
},
{
name = top_right_can;
pos = (327,690);
}
);
layerId = "7D3FB2DB-72C7-4646-AA25-FB3BBECA0225";
shapes = (
{
closed = 1;
nodes = (
(371,0,l),
(371,690,l),
(33,690,l),
(33,607,l),
(281,607,l),
(281,0,l)
);
}
);
width = 431;
}
);
metricRight = "nunavuth-canadian";
note = uni14A3;
unicode = 5283;
},
{
glyphname = "mi-canadian";
kernRight = miright;
lastChange = "2023-01-13 15:55:21 +0000";
layers = (
{
anchors = (
{
name = middle_center_can;
pos = (274,345);
},
{
name = top_center_can;
pos = (229,690);
},
{
name = top_left_can;
pos = (105,690);
},
{
name = top_right_can;
pos = (353,690);
}
);
layerId = "7D3FB2DB-72C7-4646-AA25-FB3BBECA0225";
shapes = (
{
closed = 1;
nodes = (
(150,0,l),
(150,607,l),
(398,607,l),
(398,690,l),
(60,690,l),
(60,0,l)
);
}
);
width = 431;
}
);
metricLeft = "nunavuth-canadian";
metricRight = "=|me-canadian";
note = uni14A5;
unicode = 5285;
},
{
glyphname = "mo-canadian";
kernLeft = moleft;
lastChange = "2023-01-13 15:55:21 +0000";
layers = (
{
anchors = (
{
name = middle_center_can;
pos = (157,345);
},
{
name = top_center_can;
pos = (205,690);
},
{
name = top_double;
pos = (327,690);
},
{
name = top_left_can;
pos = (77,690);
},
{
name = top_right_can;
pos = (327,690);
}
);
layerId = "7D3FB2DB-72C7-4646-AA25-FB3BBECA0225";
shapes = (
{
closed = 1;
nodes = (
(371,0,l),
(371,690,l),
(281,690,l),
(281,83,l),
(33,83,l),
(33,0,l)
);
}
);
width = 431;
}
);
metricLeft = "me-canadian";
metricRight = "nunavuth-canadian";
note = uni14A7;
unicode = 5287;
},
{
glyphname = "ma-canadian";
kernRight = maright;
lastChange = "2023-01-13 15:55:21 +0000";
layers = (
{
anchors = (
{
name = middle_center_can;
pos = (274,345);
},
{
name = top_center_can;
pos = (229,690);
},
{
name = top_left_can;
pos = (105,690);
},
{
name = top_right_can;
pos = (353,690);
}
);
layerId = "7D3FB2DB-72C7-4646-AA25-FB3BBECA0225";
shapes = (
{
closed = 1;
nodes = (
(398,0,l),
(398,83,l),
(150,83,l),
(150,690,l),
(60,690,l),
(60,0,l)
);
}
);
width = 431;
}
);
metricLeft = "nunavuth-canadian";
metricRight = "=|me-canadian";
note = uni14AA;
unicode = 5290;
},
{
glyphname = "m-canadian";
kernLeft = mwestleft;
kernRight = mwestright;
lastChange = "2023-01-13 15:55:21 +0000";
layers = (
{
layerId = "7D3FB2DB-72C7-4646-AA25-FB3BBECA0225";
shapes = (
{
closed = 1;
nodes = (
(236,404,l),
(111,404,l),
(111,690,l),
(49,690,l),
(49,345,l),
(236,345,l)
);
}
);
width = 266;
}
);
metricLeft = "pWestCree-canadian";
note = uni14BB;
unicode = 5307;
},
{
glyphname = "mh-canadian";
kernLeft = mwestleft;
kernRight = mwestright;
lastChange = "2023-01-13 15:55:24 +0000";
layers = (
{
layerId = "7D3FB2DB-72C7-4646-AA25-FB3BBECA0225";
shapes = (
{
closed = 1;
nodes = (
(216,345,l),
(216,690,l),
(155,690,l),
(155,404,l),
(30,404,l),
(30,345,l)
);
}
);
width = 265;
}
);
metricLeft = "=|m-canadian";
metricRight = "=|m-canadian";
note = uni14BD;
unicode = 5309;
},
{
glyphname = "mAthapascan-canadian";
lastChange = "2023-01-13 15:55:21 +0000";
layers = (
{
layerId = "7D3FB2DB-72C7-4646-AA25-FB3BBECA0225";
shapes = (
{
closed = 1;
nodes = (
(246,345,l),
(246,399,l),
(114,399,l),
(116,371,l),
(195,478,ls),
(227,522,o),
(237,558,o),
(237,594,cs),
(237,652,o),
(206,696,o),
(143,696,cs),
(77,696,o),
(43,649,o),
(42,575,c),
(98,575,l),
(98,629,o),
(112,649,o),
(141,649,cs),
(168,649,o),
(181,630,o),
(181,593,cs),
(181,565,o),
(178,542,o),
(144,497,cs),
(54,377,l),
(54,345,l)
);
}
);
width = 285;
}
);
note = uni14BE;
unicode = 5310;
},
{
glyphname = "ne-canadian";
kernLeft = neleft;
lastChange = "2023-01-13 15:55:21 +0000";
layers = (
{
anchors = (
{
name = middle_center_can;
pos = (412,245);
},
{
name = top_center_can;
pos = (401,497);
},
{
name = top_left_can;
pos = (91,497);
},
{
name = top_right_can;
pos = (560,497);
}
);
layerId = "7D3FB2DB-72C7-4646-AA25-FB3BBECA0225";
shapes = (
{
closed = 1;
nodes = (
(528,-13,o),
(604,71,o),
(604,233,cs),
(604,395,o),
(529,478,o),
(400,478,cs),
(46,478,l),
(46,396,l),
(298,396,l),
(294,418,l),
(246,385,o),
(221,310,o),
(221,229,cs),
(221,71,o),
(294,-13,o),
(412,-13,cs)
);
},
{
closed = 1;
nodes = (
(346,65,o),
(310,119,o),
(310,233,cs),
(310,342,o),
(347,401,o),
(412,401,cs),
(478,401,o),
(515,348,o),
(515,233,cs),
(515,119,o),
(479,65,o),
(412,65,cs)
);
}
);
width = 653;
}
);
metricRight = "=|ke-canadian";
note = uni14C0;
unicode = 5312;
},
{
glyphname = "ni-canadian";
kernRight = niright;
lastChange = "2023-01-13 15:55:21 +0000";
layers = (
{
anchors = (
{
name = middle_center_can;
pos = (242,245);
},
{
name = top_center_can;
pos = (253,497);
},
{
name = top_left_can;
pos = (94,497);
},
{
name = top_right_can;
pos = (562,497);
}
);
layerId = "7D3FB2DB-72C7-4646-AA25-FB3BBECA0225";
shapes = (
{
closed = 1;
nodes = (
(358,-13,o),
(432,71,o),
(432,229,cs),
(432,310,o),
(407,385,o),
(359,419,c),
(355,396,l),
(607,396,l),
(607,478,l),
(253,478,ls),
(123,478,o),
(49,392,o),
(49,232,cs),
(49,71,o),
(125,-13,o),
(241,-13,cs)
);
},
{
closed = 1;
nodes = (
(174,65,o),
(137,119,o),
(137,234,cs),
(137,349,o),
(175,402,o),
(241,402,cs),
(306,402,o),
(343,343,o),
(343,234,cs),
(343,119,o),
(307,65,o),
(241,65,cs)
);
}
);
width = 653;
}
);
metricLeft = "ke-canadian";
metricRight = "=|ne-canadian";
note = uni14C2;
unicode = 5314;
},
{
glyphname = "no-canadian";
kernLeft = noleft;
lastChange = "2023-01-13 15:55:21 +0000";
layers = (
{
anchors = (
{
name = middle_center_can;
pos = (411,245);
},
{
name = top_center_can;
pos = (410,497);
},
{
name = top_double;
pos = (412,497);
},
{
name = top_left_can;
pos = (91,497);
},
{
name = top_right_can;
pos = (560,497);
}
);
layerId = "7D3FB2DB-72C7-4646-AA25-FB3BBECA0225";
shapes = (
{
closed = 1;
nodes = (
(400,0,ls),
(529,0,o),
(604,84,o),
(604,245,cs),
(604,407,o),
(528,492,o),
(412,492,cs),
(294,492,o),
(221,407,o),
(221,249,cs),
(221,168,o),
(246,93,o),
(294,60,c),
(298,82,l),
(46,82,l),
(46,0,l)
);
},
{
closed = 1;
nodes = (
(347,76,o),
(310,135,o),
(310,244,cs),
(310,359,o),
(346,413,o),
(412,413,cs),
(479,413,o),
(515,360,o),
(515,244,cs),
(515,129,o),
(478,76,o),
(412,76,cs)
);
}
);
width = 653;
}
);
metricLeft = "ne-canadian";
metricRight = "=|ke-canadian";
note = uni14C4;
unicode = 5316;
},
{
glyphname = "na-canadian";
kernRight = naright;
lastChange = "2023-01-13 15:55:21 +0000";
layers = (
{
anchors = (
{
name = middle_center_can;
pos = (242,245);
},
{
name = top_center_can;
pos = (242,497);
},
{
name = top_double;
pos = (371,497);
},
{
name = top_left_can;
pos = (94,497);
},
{
name = top_right_can;
pos = (562,497);
}
);
layerId = "7D3FB2DB-72C7-4646-AA25-FB3BBECA0225";
shapes = (
{
closed = 1;
nodes = (
(607,0,l),
(607,82,l),
(355,82,l),
(359,60,l),
(407,93,o),
(432,168,o),
(432,249,cs),
(432,407,o),
(358,492,o),
(241,492,cs),
(125,492,o),
(49,407,o),
(49,245,cs),
(49,84,o),
(123,0,o),
(253,0,cs)
);
},
{
closed = 1;
nodes = (
(175,76,o),
(137,129,o),
(137,244,cs),
(137,360,o),
(174,413,o),
(241,413,cs),
(307,413,o),
(343,359,o),
(343,244,cs),
(343,135,o),
(306,76,o),
(241,76,cs)
);
}
);
width = 653;
}
);
metricLeft = "ke-canadian";
metricRight = "=|ne-canadian";
note = uni14C7;
unicode = 5319;
},
{
glyphname = "n-canadian";
kernLeft = mwestleft;
kernRight = mwestright;
lastChange = "2023-01-13 15:55:24 +0000";
layers = (
{
layerId = "7D3FB2DB-72C7-4646-AA25-FB3BBECA0225";
shapes = (
{
closed = 1;
nodes = (
(343,434,l),
(343,493,l),
(203,493,l),
(206,466,l),
(231,479,o),
(245,522,o),
(245,568,cs),
(245,649,o),
(207,696,o),
(142,696,cs),
(78,696,o),
(39,648,o),
(39,565,cs),
(39,483,o),
(78,434,o),
(147,434,cs)
);
},
{
closed = 1;
nodes = (
(112,481,o),
(94,507,o),
(94,565,cs),
(94,623,o),
(112,648,o),
(143,648,cs),
(173,648,o),
(189,622,o),
(189,565,cs),
(189,507,o),
(172,481,o),
(142,481,cs)
);
}
);
width = 373;
}
);
metricLeft = "=|k-canadian";
note = uni14D0;
unicode = 5328;
},
{
glyphname = "nh-canadian";
kernLeft = mwestleft;
kernRight = mwestright;
lastChange = "2023-01-13 15:55:24 +0000";
layers = (
{
layerId = "7D3FB2DB-72C7-4646-AA25-FB3BBECA0225";
shapes = (
{
closed = 1;
nodes = (
(226,434,ls),
(295,434,o),
(334,483,o),
(334,565,cs),
(334,648,o),
(295,696,o),
(231,696,cs),
(166,696,o),
(128,649,o),
(128,568,cs),
(128,522,o),
(142,479,o),
(167,466,c),
(170,493,l),
(30,493,l),
(30,434,l)
);
},
{
closed = 1;
nodes = (
(201,481,o),
(183,507,o),
(183,565,cs),
(183,622,o),
(200,648,o),
(230,648,cs),
(260,648,o),
(279,623,o),
(279,565,cs),
(279,507,o),
(260,481,o),
(231,481,cs)
);
}
);
width = 373;
}
);
metricLeft = "=|n-canadian";
metricRight = "=|n-canadian";
note = uni14D2;
unicode = 5330;
},
{
glyphname = "le-canadian";
kernLeft = neleft;
lastChange = "2023-01-13 15:55:21 +0000";
layers = (
{
anchors = (
{
name = middle_center_can;
pos = (412,245);
},
{
name = top_center_can;
pos = (403,497);
},
{
name = top_left_can;
pos = (91,497);
},
{
name = top_right_can;
pos = (559,497);
}
);
layerId = "7D3FB2DB-72C7-4646-AA25-FB3BBECA0225";
shapes = (
{
closed = 1;
nodes = (
(379,0,ls),
(519,0,o),
(604,83,o),
(604,239,cs),
(604,394,o),
(522,478,o),
(378,478,cs),
(46,478,l),
(46,396,l),
(374,396,ls),
(465,396,o),
(514,343,o),
(514,238,cs),
(514,133,o),
(466,80,o),
(371,80,cs),
(355,80,l),
(355,0,l)
);
}
);
width = 653;
}
);
metricLeft = "ne-canadian";
metricRight = "=|ke-canadian";
note = uni14D3;
unicode = 5331;
},
{
glyphname = "li-canadian";
kernRight = niright;
lastChange = "2023-01-13 15:55:21 +0000";
layers = (
{
anchors = (
{
name = middle_center_can;
pos = (242,245);
},
{
name = top_center_can;
pos = (253,497);
},
{
name = top_left_can;
pos = (94,497);
},
{
name = top_right_can;
pos = (562,497);
}
);
layerId = "7D3FB2DB-72C7-4646-AA25-FB3BBECA0225";
shapes = (
{
closed = 1;
nodes = (
(297,0,l),
(297,80,l),
(281,80,ls),
(187,80,o),
(138,133,o),
(138,238,cs),
(138,342,o),
(187,396,o),
(279,396,cs),
(607,396,l),
(607,478,l),
(275,478,ls),
(135,478,o),
(49,394,o),
(49,239,cs),
(49,83,o),
(133,0,o),
(274,0,cs)
);
}
);
width = 653;
}
);
metricLeft = "ke-canadian";
metricRight = "=|ne-canadian";
note = uni14D5;
unicode = 5333;
},
{
glyphname = "lo-canadian";
kernLeft = noleft;
lastChange = "2023-01-13 15:55:21 +0000";
layers = (
{
anchors = (
{
name = middle_center_can;
pos = (411,245);
},
{
name = top_center_can;
pos = (410,497);
},
{
name = top_double;
pos = (379,497);
},
{
name = top_left_can;
pos = (91,497);
},
{
name = top_right_can;
pos = (559,497);
}
);
layerId = "7D3FB2DB-72C7-4646-AA25-FB3BBECA0225";
shapes = (
{
closed = 1;
nodes = (
(378,0,ls),
(518,0,o),
(604,84,o),
(604,240,cs),
(604,395,o),
(519,478,o),
(379,478,cs),
(355,478,l),
(355,398,l),
(371,398,ls),
(466,398,o),
(514,345,o),
(514,241,cs),
(514,135,o),
(465,82,o),
(374,82,cs),
(46,82,l),
(46,0,l)
);
}
);
width = 653;
}
);
metricLeft = "ne-canadian";
metricRight = "=|ke-canadian";
note = uni14D7;
unicode = 5335;
},
{
glyphname = "la-canadian";
kernRight = naright;
lastChange = "2023-01-13 15:55:21 +0000";
layers = (
{
anchors = (
{
name = middle_center_can;
pos = (242,245);
},
{
name = top_center_can;
pos = (242,497);
},
{
name = top_left_can;
pos = (94,497);
},
{
name = top_right_can;
pos = (562,497);
}
);
layerId = "7D3FB2DB-72C7-4646-AA25-FB3BBECA0225";
shapes = (
{
closed = 1;
nodes = (
(607,0,l),
(607,82,l),
(279,82,ls),
(187,82,o),
(138,135,o),
(138,241,cs),
(138,345,o),
(187,398,o),
(281,398,cs),
(297,398,l),
(297,478,l),
(274,478,ls),
(133,478,o),
(49,394,o),
(49,240,cs),
(49,84,o),
(135,0,o),
(275,0,cs)
);
}
);
width = 653;
}
);
metricLeft = "ke-canadian";
metricRight = "=|ne-canadian";
note = uni14DA;
unicode = 5338;
},
{
glyphname = "l-canadian";
kernLeft = mwestleft;
kernRight = mwestright;
lastChange = "2023-01-13 15:55:21 +0000";
layers = (
{
layerId = "7D3FB2DB-72C7-4646-AA25-FB3BBECA0225";
shapes = (
{
closed = 1;
nodes = (
(339,345,l),
(339,404,l),
(213,404,ls),
(143,404,o),
(109,442,o),
(109,517,cs),
(109,590,o),
(143,631,o),
(206,631,cs),
(212,631,l),
(212,690,l),
(202,690,ls),
(103,690,o),
(47,624,o),
(47,517,cs),
(47,410,o),
(103,345,o),
(208,345,cs)
);
}
);
width = 369;
}
);
metricLeft = "t-canadian";
metricRight = "m-canadian";
note = uni14EA;
unicode = 5354;
},
{
glyphname = "lWestCree-canadian";
kernLeft = mwestleft;
kernRight = mwestright;
lastChange = "2023-01-13 15:55:21 +0000";
layers = (
{
layerId = "7D3FB2DB-72C7-4646-AA25-FB3BBECA0225";
shapes = (
{
closed = 1;
nodes = (
(241,345,l),
(241,387,l),
(92,462,l),
(92,431,l),
(241,502,l),
(241,532,l),
(92,605,l),
(92,573,l),
(241,646,l),
(241,690,l),
(230,690,l),
(49,601,l),
(49,577,l),
(199,505,l),
(199,528,l),
(49,458,l),
(49,434,l),
(230,345,l)
);
}
);
width = 290;
}
);
metricRight = "=|";
note = uni14EB;
unicode = 5355;
},
{
glyphname = "mediall-canadian";
lastChange = "2023-01-13 15:55:21 +0000";
layers = (
{
layerId = "7D3FB2DB-72C7-4646-AA25-FB3BBECA0225";
shapes = (
{
closed = 1;
nodes = (
(455,-13,l),
(455,55,l),
(133,213,l),
(133,173,l),
(455,325,l),
(455,365,l),
(133,517,l),
(133,477,l),
(455,635,l),
(455,702,l),
(432,702,l),
(55,518,l),
(55,480,l),
(378,328,l),
(378,361,l),
(55,210,l),
(55,172,l),
(432,-13,l)
);
}
);
width = 510;
}
);
metricRight = "=|";
note = uni14EC;
unicode = 5356;
},
{
glyphname = "se-canadian";
kernRight = seright;
lastChange = "2023-01-13 15:55:21 +0000";
layers = (
{
anchors = (
{
name = top_left_can;
pos = (103,690);
},
{
name = top_right_can;
pos = (333,690);
}
);
layerId = "7D3FB2DB-72C7-4646-AA25-FB3BBECA0225";
shapes = (
{
closed = 1;
nodes = (
(379,0,l),
(379,331,l),
(343,331,ls),
(213,331,o),
(149,389,o),
(149,553,cs),
(149,690,l),
(58,690,l),
(58,547,ls),
(58,346,o),
(153,249,o),
(327,249,cs),
(356,249,l),
(289,280,l),
(289,0,l)
);
}
);
width = 439;
}
);
note = uni14ED;
unicode = 5357;
},
{
glyphname = "si-canadian";
kernLeft = sileft;
lastChange = "2023-01-13 15:55:21 +0000";
layers = (
{
anchors = (
{
name = top_left_can;
pos = (105,690);
},
{
name = top_right_can;
pos = (336,690);
}
);
layerId = "7D3FB2DB-72C7-4646-AA25-FB3BBECA0225";
shapes = (
{
closed = 1;
nodes = (
(151,0,l),
(151,280,l),
(83,249,l),
(112,249,ls),
(287,249,o),
(381,346,o),
(381,547,cs),
(381,690,l),
(290,690,l),
(290,553,ls),
(290,389,o),
(226,331,o),
(96,331,cs),
(60,331,l),
(60,0,l)
);
}
);
width = 439;
}
);
metricLeft = "=|se-canadian";
metricRight = "=|se-canadian";
note = uni14EF;
unicode = 5359;
},
{
glyphname = "so-canadian";
kernRight = soright;
lastChange = "2023-01-13 15:55:21 +0000";
layers = (
{
anchors = (
{
name = top_double;
pos = (334,690);
},
{
name = top_left_can;
pos = (104,690);
},
{
name = top_right_can;
pos = (333,690);
}
);
layerId = "7D3FB2DB-72C7-4646-AA25-FB3BBECA0225";
shapes = (
{
closed = 1;
nodes = (
(149,0,l),
(149,137,ls),
(149,300,o),
(213,358,o),
(343,358,cs),
(379,358,l),
(379,690,l),
(289,690,l),
(289,410,l),
(356,440,l),
(327,440,ls),
(153,440,o),
(58,344,o),
(58,143,cs),
(58,0,l)
);
}
);
width = 439;
}
);
metricLeft = "se-canadian";
metricRight = "se-canadian";
note = uni14F1;
unicode = 5361;
},
{
glyphname = "sa-canadian";
kernLeft = saleft;
kernRight = saright;
lastChange = "2023-01-13 15:55:21 +0000";
layers = (
{
anchors = (
{
name = top_left_can;
pos = (105,690);
},
{
name = top_right_can;
pos = (336,690);
}
);
layerId = "7D3FB2DB-72C7-4646-AA25-FB3BBECA0225";
shapes = (
{
closed = 1;
nodes = (
(381,0,l),
(381,143,ls),
(381,344,o),
(287,440,o),
(112,440,cs),
(83,440,l),
(151,410,l),
(151,690,l),
(60,690,l),
(60,358,l),
(96,358,ls),
(226,358,o),
(290,300,o),
(290,137,cs),
(290,0,l)
);
}
);
width = 439;
}
);
metricLeft = "=|se-canadian";
metricRight = "=|se-canadian";
note = uni14F4;
unicode = 5364;
},
{
glyphname = "s-canadian";
kernLeft = mwestleft;
kernRight = mwestright;
lastChange = "2023-01-13 15:55:21 +0000";
layers = (
{
layerId = "7D3FB2DB-72C7-4646-AA25-FB3BBECA0225";
shapes = (
{
closed = 1;
nodes = (
(236,345,l),
(236,421,ls),
(236,522,o),
(185,575,o),
(101,575,cs),
(72,575,l),
(111,549,l),
(111,690,l),
(49,690,l),
(49,525,l),
(80,525,ls),
(145,525,o),
(174,492,o),
(174,418,cs),
(174,345,l)
);
}
);
width = 285;
}
);
metricRight = "=|";
note = uni1505;
unicode = 5381;
},
{
color = 6;
glyphname = "sAthapascan-canadian";
lastChange = "2023-01-13 15:55:21 +0000";
layers = (
{
layerId = "7D3FB2DB-72C7-4646-AA25-FB3BBECA0225";
shapes = (
{
closed = 1;
nodes = (
(224,177,o),
(263,218,o),
(263,272,cs),
(263,316,o),
(242,346,o),
(196,366,cs),
(148,386,ls),
(119,400,o),
(110,414,o),
(110,439,cs),
(110,468,o),
(127,486,o),
(157,486,cs),
(188,486,o),
(208,471,o),
(207,425,c),
(263,425,l),
(264,493,o),
(226,533,o),
(157,533,cs),
(94,533,o),
(54,493,o),
(54,438,cs),
(54,393,o),
(74,362,o),
(118,344,cs),
(166,323,ls),
(194,310,o),
(206,296,o),
(206,270,cs),
(206,240,o),
(187,224,o),
(157,224,cs),
(125,224,o),
(105,240,o),
(106,287,c),
(49,287,l),
(48,215,o),
(88,177,o),
(156,177,cs)
);
}
);
width = 312;
}
);
metricRight = "=|";
note = uni1506;
unicode = 5382;
},
{
glyphname = "sw-canadian";
kernLeft = mwestleft;
kernRight = mwestright;
lastChange = "2023-01-13 15:55:21 +0000";
layers = (
{
layerId = "7D3FB2DB-72C7-4646-AA25-FB3BBECA0225";
shapes = (
{
closed = 1;
nodes = (
(111,345,l),
(111,418,ls),
(111,492,o),
(140,525,o),
(205,525,cs),
(236,525,l),
(236,690,l),
(174,690,l),
(174,549,l),
(213,575,l),
(184,575,ls),
(99,575,o),
(49,522,o),
(49,421,cs),
(49,345,l)
);
}
);
width = 285;
}
);
metricLeft = "=|s-canadian";
metricRight = "=|s-canadian";
note = uni1507;
unicode = 5383;
},
{
glyphname = "sBlackfoot-canadian";
lastChange = "2023-01-13 15:55:21 +0000";
layers = (
{
layerId = "7D3FB2DB-72C7-4646-AA25-FB3BBECA0225";
shapes = (
{
closed = 1;
nodes = (
(242,345,l),
(242,404,l),
(180,404,ls),
(128,404,o),
(111,425,o),
(111,479,cs),
(111,690,l),
(49,690,l),
(49,470,ls),
(49,388,o),
(89,345,o),
(171,345,c)
);
}
);
width = 272;
}
);
metricLeft = "ai-canadian";
metricRight = "m-canadian";
note = uni1508;
unicode = 5384;
},
{
glyphname = "moosecreesk-canadian";
kernLeft = mwestleft;
kernRight = mwestright;
lastChange = "2023-01-13 15:55:21 +0000";
layers = (
{
layerId = "7D3FB2DB-72C7-4646-AA25-FB3BBECA0225";
shapes = (
{
closed = 1;
nodes = (
(214,217,o),
(259,262,o),
(259,367,cs),
(259,507,o),
(206,576,o),
(97,576,cs),
(81,576,l),
(111,549,l),
(111,690,l),
(49,690,l),
(49,526,l),
(80,526,ls),
(165,526,o),
(189,489,o),
(196,416,c),
(213,410,l),
(207,447,o),
(181,477,o),
(146,477,cs),
(89,477,o),
(50,430,o),
(50,350,cs),
(50,261,o),
(98,217,o),
(154,217,cs)
);
},
{
closed = 1;
nodes = (
(126,264,o),
(105,290,o),
(105,349,cs),
(105,408,o),
(126,433,o),
(154,433,cs),
(182,433,o),
(202,407,o),
(202,349,cs),
(202,288,o),
(184,264,o),
(154,264,cs)
);
}
);
width = 308;
}
);
metricRight = "=|";
note = uni1509;
unicode = 5385;
},
{
glyphname = "skwNaskapi-canadian";
kernLeft = mwestleft;
kernRight = mwestright;
lastChange = "2023-01-13 15:55:21 +0000";
layers = (
{
layerId = "7D3FB2DB-72C7-4646-AA25-FB3BBECA0225";
shapes = (
{
closed = 1;
nodes = (
(211,217,o),
(258,261,o),
(258,350,cs),
(258,430,o),
(218,477,o),
(162,477,cs),
(128,477,o),
(101,447,o),
(95,410,c),
(112,416,l),
(118,489,o),
(142,526,o),
(228,526,cs),
(259,526,l),
(259,690,l),
(197,690,l),
(197,549,l),
(226,576,l),
(211,576,ls),
(102,576,o),
(49,507,o),
(49,367,cs),
(49,262,o),
(93,217,o),
(154,217,cs)
);
},
{
closed = 1;
nodes = (
(124,264,o),
(105,288,o),
(105,349,cs),
(105,407,o),
(126,433,o),
(154,433,cs),
(182,433,o),
(203,408,o),
(203,349,cs),
(203,290,o),
(183,264,o),
(154,264,cs)
);
}
);
width = 308;
}
);
metricLeft = "=|moosecreesk-canadian";
metricRight = "=|moosecreesk-canadian";
note = uni150A;
unicode = 5386;
},
{
glyphname = "swNaskapi-canadian";
lastChange = "2023-01-13 15:55:21 +0000";
layers = (
{
layerId = "7D3FB2DB-72C7-4646-AA25-FB3BBECA0225";
shapes = (
{
closed = 1;
nodes = (
(254,182,l),
(254,248,ls),
(254,346,o),
(204,402,o),
(120,402,cs),
(91,402,l),
(124,376,l),
(124,509,l),
(63,509,l),
(63,353,l),
(102,353,ls),
(163,353,o),
(192,319,o),
(192,245,cs),
(192,182,l)
);
},
{
closed = 1;
nodes = (
(251,45,o),
(273,68,o),
(273,96,cs),
(273,125,o),
(250,147,o),
(223,147,cs),
(196,147,o),
(173,125,o),
(173,96,cs),
(173,68,o),
(195,45,o),
(223,45,cs)
);
},
{
closed = 1;
nodes = (
(120,543,o),
(143,565,o),
(143,594,cs),
(143,622,o),
(121,645,o),
(93,645,cs),
(66,645,o),
(43,622,o),
(43,594,cs),
(43,565,o),
(66,543,o),
(93,543,cs)
);
}
);
width = 316;
}
);
metricRight = "=|";
note = uni150B;
unicode = 5387;
},
{
glyphname = "spwaNaskapi-canadian";
lastChange = "2023-01-13 15:55:24 +0000";
layers = (
{
layerId = "7D3FB2DB-72C7-4646-AA25-FB3BBECA0225";
shapes = (
{
closed = 1;
nodes = (
(486,0,l),
(486,83,l),
(116,365,l),
(116,324,l),
(486,606,l),
(486,690,l),
(463,690,l),
(29,361,l),
(29,328,l),
(463,0,l)
);
},
{
closed = 1;
nodes = (
(136,497,o),
(159,520,o),
(159,548,cs),
(159,577,o),
(136,599,o),
(109,599,cs),
(82,599,o),
(59,577,o),
(59,548,cs),
(59,520,o),
(82,497,o),
(109,497,cs)
);
},
{
closed = 1;
nodes = (
(287,604,l),
(287,660,ls),
(287,729,o),
(253,770,o),
(185,770,cs),
(160,770,l),
(204,747,l),
(204,846,l),
(145,846,l),
(145,723,l),
(168,723,ls),
(207,723,o),
(228,703,o),
(228,654,cs),
(228,604,l)
);
},
{
closed = 1;
nodes = (
(414,704,o),
(438,727,o),
(438,755,cs),
(438,783,o),
(414,806,o),
(387,806,cs),
(360,806,o),
(338,783,o),
(338,755,cs),
(338,727,o),
(360,704,o),
(387,704,cs)
);
}
);
width = 527;
}
);
metricRight = "pa-canadian";
metricWidth = "pa-canadian";
note = uni150C;
unicode = 5388;
},
{
glyphname = "she-canadian";
kernRight = caright;
lastChange = "2023-01-13 15:55:21 +0000";
layers = (
{
anchors = (
{
name = top_left_can;
pos = (233,690);
},
{
name = top_right_can;
pos = (561,690);
}
);
layerId = "7D3FB2DB-72C7-4646-AA25-FB3BBECA0225";
shapes = (
{
closed = 1;
nodes = (
(613,-13,o),
(682,68,o),
(682,227,cs),
(682,302,l),
(592,302,l),
(592,213,ls),
(592,113,o),
(561,67,o),
(506,67,cs),
(447,67,o),
(421,112,o),
(415,218,cs),
(405,471,ls),
(398,621,o),
(348,702,o),
(230,702,cs),
(119,702,o),
(50,622,o),
(50,463,cs),
(50,387,l),
(139,387,l),
(139,478,ls),
(139,577,o),
(171,623,o),
(226,623,cs),
(285,623,o),
(311,578,o),
(316,471,cs),
(327,218,ls),
(334,69,o),
(384,-13,o),
(502,-13,cs)
);
}
);
width = 732;
}
);
metricRight = "=|";
note = uni1510;
unicode = 5392;
},
{
glyphname = "shi-canadian";
kernLeft = coleft;
lastChange = "2023-01-13 15:55:21 +0000";
layers = (
{
anchors = (
{
name = top_left_can;
pos = (173,690);
},
{
name = top_right_can;
pos = (500,690);
}
);
layerId = "7D3FB2DB-72C7-4646-AA25-FB3BBECA0225";
shapes = (
{
closed = 1;
nodes = (
(348,-13,o),
(398,69,o),
(405,218,cs),
(415,471,ls),
(421,578,o),
(447,623,o),
(506,623,cs),
(561,623,o),
(592,577,o),
(592,478,cs),
(592,387,l),
(682,387,l),
(682,463,ls),
(682,622,o),
(613,702,o),
(501,702,cs),
(384,702,o),
(334,621,o),
(327,471,cs),
(316,218,ls),
(311,112,o),
(285,67,o),
(226,67,cs),
(171,67,o),
(139,113,o),
(139,213,cs),
(139,302,l),
(50,302,l),
(50,227,ls),
(50,68,o),
(118,-13,o),
(230,-13,cs)
);
}
);
width = 732;
}
);
metricLeft = "she-canadian";
metricRight = "she-canadian";
note = uni1511;
unicode = 5393;
},
{
glyphname = "sho-canadian";
lastChange = "2023-01-13 15:55:24 +0000";
layers = (
{
anchors = (
{
name = top_center_can;
pos = (374,497);
},
{
name = top_left_can;
pos = (232,497);
},
{
name = top_right_can;
pos = (517,497);
}
);
layerId = "7D3FB2DB-72C7-4646-AA25-FB3BBECA0225";
shapes = (
{
closed = 1;
nodes = (
(295,67,l),
(191,65,o),
(138,105,o),
(138,181,cs),
(138,239,o),
(167,275,o),
(222,275,cs),
(318,275,o),
(406,122,o),
(539,122,cs),
(639,122,o),
(699,192,o),
(699,295,cs),
(699,419,o),
(609,494,o),
(457,492,c),
(454,412,l),
(557,413,o),
(611,373,o),
(611,298,cs),
(611,240,o),
(581,203,o),
(526,203,cs),
(431,203,o),
(343,357,o),
(210,357,cs),
(110,357,o),
(49,287,o),
(49,184,cs),
(49,60,o),
(139,-14,o),
(292,-13,c)
);
}
);
width = 748;
}
);
metricLeft = "ke-canadian";
metricRight = "=|ke-canadian";
note = uni1513;
unicode = 5395;
},
{
glyphname = "sha-canadian";
lastChange = "2023-01-13 15:55:24 +0000";
layers = (
{
anchors = (
{
name = top_center_can;
pos = (375,497);
},
{
name = top_left_can;
pos = (231,497);
},
{
name = top_right_can;
pos = (517,497);
}
);
layerId = "7D3FB2DB-72C7-4646-AA25-FB3BBECA0225";
shapes = (
{
closed = 1;
nodes = (
(609,-14,o),
(699,60,o),
(699,184,cs),
(699,287,o),
(639,357,o),
(539,357,cs),
(406,357,o),
(318,203,o),
(222,203,cs),
(167,203,o),
(138,240,o),
(138,298,cs),
(138,373,o),
(191,413,o),
(295,412,c),
(292,492,l),
(139,494,o),
(49,419,o),
(49,295,cs),
(49,192,o),
(109,122,o),
(210,122,cs),
(343,122,o),
(431,275,o),
(526,275,cs),
(581,275,o),
(611,239,o),
(611,181,cs),
(611,105,o),
(557,65,o),
(454,67,c),
(457,-13,l)
);
}
);
width = 748;
}
);
metricLeft = "ke-canadian";
metricRight = "=|ke-canadian";
note = uni1515;
unicode = 5397;
},
{
glyphname = "sh-canadian";
kernLeft = mwestleft;
kernRight = mwestright;
lastChange = "2023-01-13 15:55:21 +0000";
layers = (
{
layerId = "7D3FB2DB-72C7-4646-AA25-FB3BBECA0225";
shapes = (
{
closed = 1;
nodes = (
(453,289,o),
(525,344,o),
(525,438,cs),
(525,520,o),
(474,572,o),
(400,572,cs),
(306,572,o),
(246,476,o),
(178,476,cs),
(134,476,o),
(110,501,o),
(110,550,cs),
(110,605,o),
(154,639,o),
(236,639,c),
(234,697,l),
(119,697,o),
(47,642,o),
(47,549,cs),
(47,467,o),
(98,414,o),
(172,414,cs),
(266,414,o),
(325,510,o),
(394,510,cs),
(437,510,o),
(462,485,o),
(462,437,cs),
(462,382,o),
(417,347,o),
(336,347,c),
(338,289,l)
);
}
);
width = 572;
}
);
metricLeft = "t-canadian";
metricRight = "=|";
note = uni1525;
unicode = 5413;
},
{
glyphname = "ye-canadian";
kernLeft = yeleft;
lastChange = "2023-01-13 15:55:21 +0000";
layers = (
{
anchors = (
{
name = middle_right_can;
pos = (503,345);
},
{
name = top_left_can;
pos = (80,690);
},
{
name = top_right_can;
pos = (360,690);
}
);
layerId = "7D3FB2DB-72C7-4646-AA25-FB3BBECA0225";
shapes = (
{
closed = 1;
nodes = (
(405,0,l),
(405,323,l),
(147,323,l),
(153,294,l),
(423,651,l),
(358,701,l),
(36,272,l),
(36,242,l),
(315,242,l),
(315,0,l)
);
}
);
width = 463;
}
);
note = uni1526;
unicode = 5414;
},
{
glyphname = "yi-canadian";
kernRight = yiright;
lastChange = "2023-01-13 15:55:21 +0000";
layers = (
{
anchors = (
{
name = top_left_can;
pos = (103,690);
},
{
name = top_right_can;
pos = (383,690);
}
);
layerId = "7D3FB2DB-72C7-4646-AA25-FB3BBECA0225";
shapes = (
{
closed = 1;
nodes = (
(148,0,l),
(148,242,l),
(427,242,l),
(427,272,l),
(104,701,l),
(40,651,l),
(310,295,l),
(316,323,l),
(57,323,l),
(57,0,l)
);
}
);
width = 463;
}
);
metricRight = "=|ye-canadian";
metricWidth = "ye-canadian";
note = uni1528;
unicode = 5416;
},
{
glyphname = "yo-canadian";
kernLeft = yoleft;
lastChange = "2023-01-13 15:55:21 +0000";
layers = (
{
anchors = (
{
name = middle_right_can;
pos = (503,345);
},
{
name = top_double;
pos = (360,690);
},
{
name = top_left_can;
pos = (80,690);
},
{
name = top_right_can;
pos = (360,690);
}
);
layerId = "7D3FB2DB-72C7-4646-AA25-FB3BBECA0225";
shapes = (
{
closed = 1;
nodes = (
(423,39,l),
(152,395,l),
(147,367,l),
(405,367,l),
(405,690,l),
(315,690,l),
(315,447,l),
(36,447,l),
(36,417,l),
(358,-12,l)
);
}
);
width = 463;
}
);
metricLeft = "ye-canadian";
metricWidth = "ye-canadian";
note = uni152A;
unicode = 5418;
},
{
glyphname = "ya-canadian";
kernRight = yaright;
lastChange = "2023-01-13 15:55:21 +0000";
layers = (
{
anchors = (
{
name = top_left_can;
pos = (103,690);
},
{
name = top_right_can;
pos = (383,690);
}
);
layerId = "7D3FB2DB-72C7-4646-AA25-FB3BBECA0225";
shapes = (
{
closed = 1;
nodes = (
(427,417,l),
(427,447,l),
(148,447,l),
(148,690,l),
(57,690,l),
(57,367,l),
(316,367,l),
(310,396,l),
(40,39,l),
(104,-12,l)
);
}
);
width = 463;
}
);
metricRight = "=|ye-canadian";
metricWidth = "ye-canadian";
note = uni152D;
unicode = 5421;
},
{
glyphname = "y-canadian";
kernLeft = mwestleft;
kernRight = mwestright;
lastChange = "2023-01-13 15:55:21 +0000";
layers = (
{
layerId = "7D3FB2DB-72C7-4646-AA25-FB3BBECA0225";
shapes = (
{
closed = 1;
nodes = (
(250,549,l),
(250,568,l),
(115,568,l),
(115,690,l),
(53,690,l),
(53,516,l),
(186,516,l),
(185,553,l),
(49,368,l),
(95,337,l)
);
}
);
width = 276;
}
);
note = uni153E;
unicode = 5438;
},
{
glyphname = "biblecreey-canadian";
lastChange = "2023-01-13 15:55:24 +0000";
layers = (
{
layerId = "7D3FB2DB-72C7-4646-AA25-FB3BBECA0225";
shapes = (
{
closed = 1;
nodes = (
(148,622,l),
(116,622,l),
(191,345,l),
(227,345,l),
(303,622,l),
(271,622,l),
(324,345,l),
(379,345,l),
(379,361,l),
(315,690,l),
(270,690,l),
(190,405,l),
(228,405,l),
(149,690,l),
(103,690,l),
(40,361,l),
(40,345,l),
(95,345,l)
);
}
);
width = 419;
}
);
metricRight = "=|";
note = uni153F;
unicode = 5439;
},
{
glyphname = "yWestCree-canadian";
lastChange = "2023-01-13 15:55:21 +0000";
layers = (
{
layerId = "7D3FB2DB-72C7-4646-AA25-FB3BBECA0225";
shapes = (
{
closed = 1;
nodes = (
(209,202,l),
(209,319,l),
(309,319,l),
(309,378,l),
(209,378,l),
(209,493,l),
(151,493,l),
(151,378,l),
(49,378,l),
(49,319,l),
(151,319,l),
(151,202,l)
);
}
);
width = 358;
}
);
metricLeft = "shorthorizontalstrokeFinal-canadian";
metricRight = "shorthorizontalstrokeFinal-canadian";
note = uni1540;
unicode = 5440;
},
{
glyphname = "re-canadian";
kernRight = niright;
lastChange = "2023-01-13 15:55:24 +0000";
layers = (
{
anchors = (
{
name = top_center_can;
pos = (245,497);
},
{
name = top_left_can;
pos = (103,497);
},
{
name = top_right_can;
pos = (596,497);
}
);
layerId = "7D3FB2DB-72C7-4646-AA25-FB3BBECA0225";
shapes = (
{
closed = 1;
nodes = (
(366,-13,o),
(431,73,o),
(431,218,cs),
(431,396,l),
(641,396,l),
(641,478,l),
(343,478,l),
(343,206,ls),
(343,113,o),
(309,67,o),
(245,67,cs),
(181,67,o),
(148,114,o),
(148,205,cs),
(148,478,l),
(58,478,l),
(58,219,ls),
(58,69,o),
(127,-13,o),
(245,-13,cs)
);
}
);
width = 687;
}
);
metricRight = "=|ne-canadian";
note = uni1542;
unicode = 5442;
},
{
glyphname = "reRCree-canadian";
kernLeft = neleft;
lastChange = "2023-01-13 15:55:21 +0000";
layers = (
{
anchors = (
{
name = top_center_can;
pos = (441,497);
},
{
name = top_left_can;
pos = (91,497);
},
{
name = top_right_can;
pos = (584,497);
}
);
layerId = "7D3FB2DB-72C7-4646-AA25-FB3BBECA0225";
shapes = (
{
closed = 1;
nodes = (
(560,-13,o),
(630,69,o),
(630,219,cs),
(630,478,l),
(539,478,l),
(539,205,ls),
(539,114,o),
(506,67,o),
(441,67,cs),
(378,67,o),
(344,113,o),
(344,205,cs),
(344,478,l),
(46,478,l),
(46,396,l),
(256,396,l),
(256,218,ls),
(256,73,o),
(321,-13,o),
(441,-13,cs)
);
}
);
width = 688;
}
);
metricLeft = "ne-canadian";
metricRight = "=|re-canadian";
note = uni1543;
unicode = 5443;
},
{
glyphname = "leWestCree-canadian";
kernLeft = noleft;
lastChange = "2023-01-13 15:55:21 +0000";
layers = (
{
anchors = (
{
name = top_center_can;
pos = (441,497);
},
{
name = top_left_can;
pos = (91,497);
},
{
name = top_right_can;
pos = (584,497);
}
);
layerId = "7D3FB2DB-72C7-4646-AA25-FB3BBECA0225";
shapes = (
{
closed = 1;
nodes = (
(344,0,l),
(344,272,ls),
(344,365,o),
(378,412,o),
(441,412,cs),
(506,412,o),
(539,364,o),
(539,273,cs),
(539,0,l),
(630,0,l),
(630,260,ls),
(630,410,o),
(561,492,o),
(441,492,cs),
(321,492,o),
(256,405,o),
(256,260,cs),
(256,82,l),
(46,82,l),
(46,0,l)
);
}
);
width = 688;
}
);
metricLeft = "ne-canadian";
metricRight = "=|re-canadian";
note = uni1544;
unicode = 5444;
},
{
glyphname = "ri-canadian";
kernRight = naright;
lastChange = "2023-01-13 15:55:24 +0000";
layers = (
{
anchors = (
{
name = top_center_can;
pos = (245,497);
},
{
name = top_left_can;
pos = (103,497);
},
{
name = top_right_can;
pos = (596,497);
}
);
layerId = "7D3FB2DB-72C7-4646-AA25-FB3BBECA0225";
shapes = (
{
closed = 1;
nodes = (
(148,0,l),
(148,273,ls),
(148,364,o),
(181,412,o),
(245,412,cs),
(309,412,o),
(343,366,o),
(343,273,cs),
(343,0,l),
(641,0,l),
(641,82,l),
(431,82,l),
(431,260,ls),
(431,405,o),
(366,492,o),
(245,492,cs),
(127,492,o),
(58,410,o),
(58,260,cs),
(58,0,l)
);
}
);
width = 687;
}
);
metricLeft = "re-canadian";
metricRight = "=|ne-canadian";
note = uni1546;
unicode = 5446;
},
{
glyphname = "ro-canadian";
lastChange = "2023-01-13 15:55:21 +0000";
layers = (
{
anchors = (
{
name = top_center_can;
pos = (193,690);
}
);
layerId = "7D3FB2DB-72C7-4646-AA25-FB3BBECA0225";
shapes = (
{
closed = 1;
nodes = (
(150,0,l),
(150,270,l),
(128,243,l),
(187,243,ls),
(315,243,o),
(396,332,o),
(396,465,cs),
(396,603,o),
(320,690,o),
(175,690,cs),
(60,690,l),
(60,609,l),
(165,609,ls),
(260,609,o),
(305,554,o),
(305,466,cs),
(305,378,o),
(259,323,o),
(166,323,cs),
(60,323,l),
(60,0,l)
);
}
);
width = 440;
}
);
metricLeft = "nunavuth-canadian";
note = uni1548;
unicode = 5448;
},
{
glyphname = "loWestCree-canadian";
lastChange = "2023-01-13 15:55:21 +0000";
layers = (
{
anchors = (
{
name = top_center_can;
pos = (205,690);
},
{
name = top_left_can;
pos = (105,690);
}
);
layerId = "7D3FB2DB-72C7-4646-AA25-FB3BBECA0225";
shapes = (
{
closed = 1;
nodes = (
(175,0,ls),
(320,0,o),
(396,87,o),
(396,225,cs),
(396,358,o),
(315,446,o),
(187,446,cs),
(128,446,l),
(150,420,l),
(150,690,l),
(60,690,l),
(60,367,l),
(166,367,ls),
(259,367,o),
(305,312,o),
(305,224,cs),
(305,136,o),
(260,82,o),
(165,82,cs),
(60,82,l),
(60,0,l)
);
}
);
width = 440;
}
);
metricLeft = "nunavuth-canadian";
metricRight = "ro-canadian";
note = uni154A;
unicode = 5450;
},
{
glyphname = "ra-canadian";
lastChange = "2023-01-13 15:55:24 +0000";
layers = (
{
anchors = (
{
name = top_center_can;
pos = (247,690);
},
{
name = top_right_can;
pos = (336,690);
}
);
layerId = "7D3FB2DB-72C7-4646-AA25-FB3BBECA0225";
shapes = (
{
closed = 1;
nodes = (
(381,0,l),
(381,323,l),
(274,323,ls),
(182,323,o),
(135,378,o),
(135,466,cs),
(135,554,o),
(181,609,o),
(275,609,cs),
(381,609,l),
(381,690,l),
(266,690,ls),
(121,690,o),
(44,603,o),
(44,465,cs),
(44,332,o),
(126,243,o),
(253,243,cs),
(313,243,l),
(291,270,l),
(291,0,l)
);
}
);
width = 441;
}
);
metricLeft = "=|ro-canadian";
metricRight = "nunavuth-canadian";
note = uni154B;
unicode = 5451;
},
{
glyphname = "laWestCree-canadian";
lastChange = "2023-01-13 15:55:24 +0000";
layers = (
{
anchors = (
{
name = top_center_can;
pos = (336,690);
}
);
layerId = "7D3FB2DB-72C7-4646-AA25-FB3BBECA0225";
shapes = (
{
closed = 1;
nodes = (
(381,0,l),
(381,82,l),
(275,82,ls),
(181,82,o),
(135,136,o),
(135,224,cs),
(135,312,o),
(182,367,o),
(274,367,cs),
(381,367,l),
(381,690,l),
(291,690,l),
(291,420,l),
(313,446,l),
(253,446,ls),
(126,446,o),
(44,358,o),
(44,225,cs),
(44,87,o),
(121,0,o),
(266,0,cs)
);
}
);
width = 441;
}
);
metricLeft = "=|ro-canadian";
metricRight = "nunavuth-canadian";
note = uni154D;
unicode = 5453;
},
{
glyphname = "r-canadian";
kernLeft = mwestleft;
kernRight = mwestright;
lastChange = "2023-01-13 15:55:24 +0000";
layers = (
{
layerId = "7D3FB2DB-72C7-4646-AA25-FB3BBECA0225";
shapes = (
{
closed = 1;
nodes = (
(211,345,l),
(211,514,l),
(162,514,ls),
(121,514,o),
(98,534,o),
(98,576,cs),
(98,617,o),
(122,639,o),
(163,639,cs),
(211,639,l),
(211,690,l),
(161,690,ls),
(84,690,o),
(39,648,o),
(39,576,cs),
(39,507,o),
(82,464,o),
(155,464,cs),
(183,464,l),
(149,482,l),
(149,345,l)
);
}
);
width = 260;
}
);
metricLeft = "=|k-canadian";
note = uni1550;
unicode = 5456;
},
{
glyphname = "rWestCree-canadian";
kernLeft = mwestleft;
kernRight = mwestright;
lastChange = "2023-01-13 15:55:21 +0000";
layers = (
{
layerId = "7D3FB2DB-72C7-4646-AA25-FB3BBECA0225";
shapes = (
{
closed = 1;
nodes = (
(61,345,l),
(241,434,l),
(241,458,l),
(91,528,l),
(91,505,l),
(241,577,l),
(241,601,l),
(61,690,l),
(49,690,l),
(49,646,l),
(199,573,l),
(199,605,l),
(49,532,l),
(49,502,l),
(199,431,l),
(199,462,l),
(49,387,l),
(49,345,l)
);
}
);
width = 290;
}
);
metricLeft = "=|lWestCree-canadian";
metricRight = "=|lWestCree-canadian";
note = uni1551;
unicode = 5457;
},
{
glyphname = "rMedial-canadian";
lastChange = "2023-01-13 15:55:24 +0000";
layers = (
{
layerId = "7D3FB2DB-72C7-4646-AA25-FB3BBECA0225";
shapes = (
{
closed = 1;
nodes = (
(78,-13,l),
(469,172,l),
(469,206,l),
(142,357,l),
(142,332,l),
(469,484,l),
(469,518,l),
(78,702,l),
(55,702,l),
(55,637,l),
(391,478,l),
(391,520,l),
(55,368,l),
(55,322,l),
(391,170,l),
(391,212,l),
(55,53,l),
(55,-13,l)
);
}
);
width = 524;
}
);
metricLeft = "mediall-canadian";
metricRight = "mediall-canadian";
note = uni1552;
unicode = 5458;
},
{
glyphname = "fe-canadian";
kernLeft = ecanleft;
kernRight = ecanright;
lastChange = "2023-01-13 15:55:21 +0000";
layers = (
{
layerId = "7D3FB2DB-72C7-4646-AA25-FB3BBECA0225";
shapes = (
{
closed = 1;
nodes = (
(317,0,l),
(597,665,l),
(597,690,l),
(526,690,l),
(287,102,l),
(309,102,l),
(200,356,l),
(155,351,l),
(174,328,o),
(197,318,o),
(226,318,cs),
(299,318,o),
(357,393,o),
(357,511,cs),
(357,627,o),
(308,702,o),
(219,702,cs),
(129,702,o),
(80,627,o),
(80,521,cs),
(80,464,o),
(93,412,o),
(120,355,cs),
(287,0,l)
);
},
{
closed = 1;
nodes = (
(175,381,o),
(152,431,o),
(152,518,cs),
(152,600,o),
(177,638,o),
(219,638,cs),
(262,638,o),
(286,600,o),
(286,510,cs),
(286,420,o),
(262,381,o),
(220,381,cs)
);
}
);
width = 622;
}
);
metricRight = "e-canadian";
note = uni1553;
unicode = 5459;
},
{
glyphname = "fi-canadian";
kernLeft = icanleft;
kernRight = icanright;
lastChange = "2023-01-13 15:55:21 +0000";
layers = (
{
anchors = (
{
name = top_center_can;
pos = (303,690);
},
{
name = top_left_can;
pos = (117,690);
},
{
name = top_right_can;
pos = (509,690);
}
);
layerId = "7D3FB2DB-72C7-4646-AA25-FB3BBECA0225";
shapes = (
{
closed = 1;
nodes = (
(308,-13,o),
(357,63,o),
(357,179,cs),
(357,297,o),
(299,372,o),
(226,372,cs),
(197,372,o),
(174,361,o),
(155,339,c),
(200,333,l),
(309,587,l),
(287,587,l),
(526,0,l),
(597,0,l),
(597,25,l),
(317,690,l),
(287,690,l),
(120,334,ls),
(93,277,o),
(80,226,o),
(80,169,cs),
(80,63,o),
(129,-13,o),
(219,-13,cs)
);
},
{
closed = 1;
nodes = (
(177,52,o),
(152,90,o),
(152,172,cs),
(152,259,o),
(175,309,o),
(220,309,cs),
(262,309,o),
(286,270,o),
(286,180,cs),
(286,90,o),
(262,52,o),
(219,52,cs)
);
}
);
width = 622;
}
);
metricLeft = "fe-canadian";
metricRight = "e-canadian";
note = uni1555;
unicode = 5461;
},
{
glyphname = "fo-canadian";
kernLeft = ocanleft;
kernRight = ocanright;
lastChange = "2023-01-13 15:55:21 +0000";
layers = (
{
anchors = (
{
name = top_center_can;
pos = (181,690);
}
);
layerId = "7D3FB2DB-72C7-4646-AA25-FB3BBECA0225";
shapes = (
{
closed = 1;
nodes = (
(95,0,l),
(520,328,l),
(520,361,l),
(282,651,ls),
(252,689,o),
(216,702,o),
(178,702,cs),
(92,702,o),
(43,628,o),
(43,508,cs),
(43,392,o),
(96,316,o),
(180,316,cs),
(262,316,o),
(312,393,o),
(312,508,cs),
(312,552,o),
(302,592,o),
(291,619,c),
(263,565,l),
(445,343,l),
(445,365,l),
(71,76,l),
(71,0,l)
);
},
{
closed = 1;
nodes = (
(139,381,o),
(114,418,o),
(114,509,cs),
(114,600,o),
(139,638,o),
(182,638,cs),
(223,638,o),
(247,600,o),
(247,510,cs),
(247,420,o),
(223,381,o),
(182,381,cs)
);
}
);
width = 549;
}
);
metricRight = "o-canadian";
note = uni1557;
unicode = 5463;
},
{
glyphname = "fa-canadian";
kernLeft = acanleft;
kernRight = acanright;
lastChange = "2023-01-13 15:55:21 +0000";
layers = (
{
anchors = (
{
name = top_center_can;
pos = (369,690);
}
);
layerId = "7D3FB2DB-72C7-4646-AA25-FB3BBECA0225";
shapes = (
{
closed = 1;
nodes = (
(478,0,l),
(478,76,l),
(104,365,l),
(104,344,l),
(287,565,l),
(258,619,l),
(246,592,o),
(237,552,o),
(237,508,cs),
(237,393,o),
(288,316,o),
(370,316,cs),
(454,316,o),
(506,392,o),
(506,508,cs),
(506,628,o),
(458,702,o),
(371,702,cs),
(333,702,o),
(298,689,o),
(267,651,cs),
(29,361,l),
(29,328,l),
(455,0,l)
);
},
{
closed = 1;
nodes = (
(327,381,o),
(302,420,o),
(302,510,cs),
(302,600,o),
(327,638,o),
(368,638,cs),
(411,638,o),
(435,600,o),
(435,509,cs),
(435,418,o),
(411,381,o),
(368,381,cs)
);
}
);
width = 549;
}
);
metricRight = "=|fo-canadian";
note = uni1559;
unicode = 5465;
},
{
glyphname = "f-canadian";
kernLeft = mwestleft;
kernRight = mwestright;
lastChange = "2023-01-13 15:55:21 +0000";
layers = (
{
layerId = "7D3FB2DB-72C7-4646-AA25-FB3BBECA0225";
shapes = (
{
closed = 1;
nodes = (
(265,345,l),
(265,385,l),
(83,527,l),
(83,518,l),
(166,618,l),
(156,653,l),
(150,639,o),
(146,618,o),
(146,594,cs),
(146,532,o),
(174,501,o),
(213,501,cs),
(251,501,o),
(278,534,o),
(278,599,cs),
(278,668,o),
(247,696,o),
(211,696,cs),
(193,696,o),
(174,687,o),
(157,667,cs),
(40,526,l),
(40,507,l),
(252,345,l)
);
},
{
closed = 1;
nodes = (
(191,537,o),
(181,555,o),
(181,597,cs),
(181,639,o),
(191,660,o),
(211,660,cs),
(230,660,o),
(241,643,o),
(241,597,cs),
(241,554,o),
(231,537,o),
(211,537,cs)
);
}
);
width = 323;
}
);
note = uni155D;
unicode = 5469;
},
{
glyphname = "the-canadian";
lastChange = "2023-01-13 15:55:21 +0000";
layers = (
{
anchors = (
{
name = middle_right_can;
pos = (639,345);
},
{
name = top_center_can;
pos = (295,690);
},
{
name = top_left_can;
pos = (100,690);
},
{
name = top_right_can;
pos = (487,690);
}
);
layerId = "7D3FB2DB-72C7-4646-AA25-FB3BBECA0225";
shapes = (
{
closed = 1;
nodes = (
(444,-13,o),
(532,78,o),
(532,253,cs),
(532,690,l),
(442,690,l),
(442,251,ls),
(442,128,o),
(390,71,o),
(294,71,cs),
(200,71,o),
(145,130,o),
(145,254,cs),
(145,420,l),
(105,395,l),
(117,348,o),
(155,315,o),
(197,315,cs),
(279,315,o),
(332,390,o),
(332,509,cs),
(332,627,o),
(285,702,o),
(196,702,cs),
(104,702,o),
(56,628,o),
(56,484,cs),
(56,274,ls),
(56,82,o),
(143,-13,o),
(294,-13,cs)
);
},
{
closed = 1;
nodes = (
(154,381,o),
(128,418,o),
(128,509,cs),
(128,599,o),
(153,638,o),
(195,638,cs),
(237,638,o),
(261,599,o),
(261,510,cs),
(261,420,o),
(238,381,o),
(196,381,cs)
);
}
);
width = 588;
}
);
metricLeft = "te-canadian";
metricRight = "te-canadian";
note = uni155E;
unicode = 5470;
},
{
glyphname = "theNCree-canadian";
lastChange = "2023-01-13 15:55:21 +0000";
layers = (
{
layerId = "7D3FB2DB-72C7-4646-AA25-FB3BBECA0225";
shapes = (
{
closed = 1;
nodes = (
(447,-13,o),
(532,78,o),
(532,270,cs),
(532,484,ls),
(532,628,o),
(484,702,o),
(393,702,cs),
(304,702,o),
(257,627,o),
(257,509,cs),
(257,390,o),
(310,315,o),
(391,315,cs),
(435,315,o),
(471,348,o),
(484,395,c),
(443,420,l),
(443,252,ls),
(443,128,o),
(389,69,o),
(295,69,cs),
(199,69,o),
(147,127,o),
(147,249,cs),
(147,690,l),
(56,690,l),
(56,251,ls),
(56,78,o),
(145,-13,o),
(295,-13,cs)
);
},
{
closed = 1;
nodes = (
(352,381,o),
(328,420,o),
(328,510,cs),
(328,599,o),
(353,638,o),
(394,638,cs),
(437,638,o),
(461,599,o),
(461,509,cs),
(461,418,o),
(435,381,o),
(393,381,cs)
);
}
);
width = 588;
}
);
metricLeft = "te-canadian";
metricRight = "te-canadian";
note = uni155F;
unicode = 5471;
},
{
glyphname = "thi-canadian";
lastChange = "2023-01-13 15:55:21 +0000";
layers = (
{
anchors = (
{
name = top_center_can;
pos = (292,690);
}
);
layerId = "7D3FB2DB-72C7-4646-AA25-FB3BBECA0225";
shapes = (
{
closed = 1;
nodes = (
(285,-13,o),
(332,63,o),
(332,181,cs),
(332,299,o),
(279,375,o),
(197,375,cs),
(155,375,o),
(117,342,o),
(105,295,c),
(145,270,l),
(145,438,ls),
(145,562,o),
(199,621,o),
(294,621,cs),
(389,621,o),
(442,563,o),
(442,440,cs),
(442,0,l),
(532,0,l),
(532,439,ls),
(532,611,o),
(443,702,o),
(294,702,cs),
(142,702,o),
(56,611,o),
(56,420,cs),
(56,206,ls),
(56,62,o),
(104,-13,o),
(196,-13,cs)
);
},
{
closed = 1;
nodes = (
(153,52,o),
(128,91,o),
(128,181,cs),
(128,271,o),
(154,309,o),
(196,309,cs),
(238,309,o),
(261,270,o),
(261,180,cs),
(261,91,o),
(237,52,o),
(195,52,cs)
);
}
);
width = 588;
}
);
metricLeft = "te-canadian";
metricRight = "te-canadian";
note = uni1560;
unicode = 5472;
},
{
glyphname = "thiNCree-canadian";
lastChange = "2023-01-13 15:55:21 +0000";
layers = (
{
anchors = (
{
name = top_center_can;
pos = (292,690);
}
);
layerId = "7D3FB2DB-72C7-4646-AA25-FB3BBECA0225";
shapes = (
{
closed = 1;
nodes = (
(484,-13,o),
(532,62,o),
(532,206,cs),
(532,420,ls),
(532,611,o),
(447,702,o),
(295,702,cs),
(145,702,o),
(56,611,o),
(56,439,cs),
(56,0,l),
(147,0,l),
(147,440,ls),
(147,563,o),
(199,621,o),
(295,621,cs),
(389,621,o),
(443,562,o),
(443,438,cs),
(443,270,l),
(484,295,l),
(471,342,o),
(435,375,o),
(391,375,cs),
(310,375,o),
(257,299,o),
(257,181,cs),
(257,63,o),
(304,-13,o),
(393,-13,cs)
);
},
{
closed = 1;
nodes = (
(353,52,o),
(328,91,o),
(328,180,cs),
(328,270,o),
(352,309,o),
(393,309,cs),
(435,309,o),
(461,271,o),
(461,181,cs),
(461,91,o),
(437,52,o),
(394,52,cs)
);
}
);
width = 588;
}
);
metricLeft = "te-canadian";
metricRight = "te-canadian";
note = uni1561;
unicode = 5473;
},
{
glyphname = "tho-canadian";
lastChange = "2023-01-13 15:55:21 +0000";
layers = (
{
anchors = (
{
name = top_center_can;
pos = (243,690);
}
);
layerId = "7D3FB2DB-72C7-4646-AA25-FB3BBECA0225";
shapes = (
{
closed = 1;
nodes = (
(198,0,ls),
(393,0,o),
(492,119,o),
(492,353,cs),
(492,569,o),
(399,702,o),
(248,702,cs),
(132,702,o),
(50,622,o),
(50,485,cs),
(50,360,o),
(102,290,o),
(186,290,cs),
(271,290,o),
(319,360,o),
(319,472,cs),
(319,582,o),
(279,656,o),
(203,660,c),
(174,627,l),
(190,638,o),
(213,644,o),
(234,644,cs),
(347,644,o),
(404,532,o),
(404,358,cs),
(404,170,o),
(341,83,o),
(194,83,cs),
(77,83,l),
(77,0,l)
);
},
{
closed = 1;
nodes = (
(147,355,o),
(122,393,o),
(122,487,cs),
(122,579,o),
(151,620,o),
(190,620,cs),
(231,620,o),
(255,582,o),
(255,488,cs),
(255,395,o),
(231,355,o),
(189,355,cs)
);
}
);
width = 541;
}
);
metricRight = "to-canadian";
note = uni1564;
unicode = 5476;
},
{
glyphname = "tha-canadian";
lastChange = "2023-01-13 15:55:21 +0000";
layers = (
{
anchors = (
{
name = top_center_can;
pos = (299,690);
}
);
layerId = "7D3FB2DB-72C7-4646-AA25-FB3BBECA0225";
shapes = (
{
closed = 1;
nodes = (
(464,0,l),
(464,83,l),
(347,83,ls),
(200,83,o),
(137,170,o),
(137,358,cs),
(137,532,o),
(195,644,o),
(307,644,cs),
(328,644,o),
(352,638,o),
(367,627,c),
(338,660,l),
(262,656,o),
(222,582,o),
(222,472,cs),
(222,360,o),
(270,290,o),
(355,290,cs),
(439,290,o),
(491,360,o),
(491,485,cs),
(491,622,o),
(409,702,o),
(293,702,cs),
(142,702,o),
(49,569,o),
(49,353,cs),
(49,123,o),
(144,0,o),
(344,0,cs)
);
},
{
closed = 1;
nodes = (
(310,355,o),
(286,395,o),
(286,488,cs),
(286,582,o),
(311,620,o),
(351,620,cs),
(390,620,o),
(419,579,o),
(419,487,cs),
(419,393,o),
(394,355,o),
(353,355,cs)
);
}
);
width = 541;
}
);
metricLeft = "=|theCarrier-canadian";
metricRight = "=|tho-canadian";
note = uni1566;
unicode = 5478;
},
{
glyphname = "th-canadian";
kernLeft = mwestleft;
kernRight = mwestright;
lastChange = "2023-01-13 15:55:21 +0000";
layers = (
{
layerId = "7D3FB2DB-72C7-4646-AA25-FB3BBECA0225";
shapes = (
{
closed = 1;
nodes = (
(254,345,l),
(254,397,l),
(203,397,ls),
(131,397,o),
(99,440,o),
(99,523,cs),
(99,605,o),
(130,656,o),
(184,656,cs),
(194,656,o),
(203,653,o),
(211,649,c),
(190,670,l),
(156,668,o),
(134,634,o),
(134,584,cs),
(134,519,o),
(161,487,o),
(201,487,cs),
(241,487,o),
(267,520,o),
(267,584,cs),
(267,662,o),
(228,696,o),
(174,696,cs),
(98,696,o),
(47,632,o),
(47,519,cs),
(47,411,o),
(96,345,o),
(199,345,cs)
);
},
{
closed = 1;
nodes = (
(180,523,o),
(169,540,o),
(169,582,cs),
(169,625,o),
(180,645,o),
(199,645,cs),
(218,645,o),
(229,629,o),
(229,582,cs),
(229,540,o),
(219,523,o),
(200,523,cs)
);
}
);
width = 311;
}
);
metricLeft = "t-canadian";
note = uni156A;
unicode = 5482;
},
{
glyphname = "tthe-canadian";
lastChange = "2023-01-13 15:55:21 +0000";
layers = (
{
anchors = (
{
name = middle_right_can;
pos = (633,345);
},
{
name = top_center_can;
pos = (291,690);
},
{
name = top_left_can;
pos = (102,690);
},
{
name = top_right_can;
pos = (480,690);
}
);
layerId = "7D3FB2DB-72C7-4646-AA25-FB3BBECA0225";
shapes = (
{
closed = 1;
nodes = (
(440,-13,o),
(526,78,o),
(526,253,cs),
(526,690,l),
(440,690,l),
(440,251,ls),
(440,127,o),
(384,71,o),
(291,71,cs),
(200,71,o),
(141,129,o),
(141,251,cs),
(141,690,l),
(56,690,l),
(56,251,ls),
(56,78,o),
(145,-13,o),
(291,-13,cs)
);
},
{
closed = 1;
nodes = (
(325,387,l),
(325,690,l),
(257,690,l),
(257,387,l)
);
}
);
width = 582;
}
);
metricLeft = "te-canadian";
metricRight = "te-canadian";
note = uni156B;
unicode = 5483;
},
{
glyphname = "tthi-canadian";
lastChange = "2023-01-13 15:55:21 +0000";
layers = (
{
layerId = "7D3FB2DB-72C7-4646-AA25-FB3BBECA0225";
shapes = (
{
closed = 1;
nodes = (
(141,0,l),
(141,439,ls),
(141,562,o),
(198,618,o),
(291,618,cs),
(382,618,o),
(440,560,o),
(440,439,cs),
(440,0,l),
(526,0,l),
(526,439,ls),
(526,611,o),
(437,702,o),
(291,702,cs),
(142,702,o),
(56,611,o),
(56,437,cs),
(56,0,l)
);
},
{
closed = 1;
nodes = (
(325,0,l),
(325,302,l),
(257,302,l),
(257,0,l)
);
}
);
width = 582;
}
);
metricLeft = "te-canadian";
metricRight = "te-canadian";
note = uni156C;
unicode = 5484;
},
{
glyphname = "ttho-canadian";
lastChange = "2023-01-13 15:55:21 +0000";
layers = (
{
anchors = (
{
name = top_center_can;
pos = (257,690);
},
{
name = top_left_can;
pos = (103,690);
},
{
name = top_right_can;
pos = (412,690);
}
);
layerId = "7D3FB2DB-72C7-4646-AA25-FB3BBECA0225";
shapes = (
{
closed = 1;
nodes = (
(154,0,ls),
(353,0,o),
(455,120,o),
(455,346,cs),
(455,572,o),
(353,690,o),
(151,690,cs),
(59,690,l),
(59,607,l),
(152,607,ls),
(297,607,o),
(365,524,o),
(365,346,cs),
(365,169,o),
(297,83,o),
(155,83,cs),
(59,83,l),
(59,0,l)
);
},
{
closed = 1;
nodes = (
(241,307,l),
(241,384,l),
(59,384,l),
(59,307,l)
);
}
);
width = 504;
}
);
metricRight = "to-canadian";
note = uni156D;
unicode = 5485;
},
{
glyphname = "ttha-canadian";
lastChange = "2023-01-13 15:55:21 +0000";
layers = (
{
anchors = (
{
name = top_center_can;
pos = (255,690);
},
{
name = top_left_can;
pos = (94,690);
},
{
name = top_right_can;
pos = (402,690);
}
);
layerId = "7D3FB2DB-72C7-4646-AA25-FB3BBECA0225";
shapes = (
{
closed = 1;
nodes = (
(445,0,l),
(445,83,l),
(353,83,ls),
(208,83,o),
(140,167,o),
(140,345,cs),
(140,521,o),
(208,607,o),
(350,607,cs),
(445,607,l),
(445,690,l),
(351,690,ls),
(152,690,o),
(49,571,o),
(49,345,cs),
(49,119,o),
(152,0,o),
(354,0,cs)
);
},
{
closed = 1;
nodes = (
(445,307,l),
(445,384,l),
(264,384,l),
(264,307,l)
);
}
);
width = 504;
}
);
metricLeft = "=|to-canadian";
metricRight = "=|ttho-canadian";
note = uni156E;
unicode = 5486;
},
{
glyphname = "tth-canadian";
lastChange = "2023-01-13 15:55:21 +0000";
layers = (
{
layerId = "7D3FB2DB-72C7-4646-AA25-FB3BBECA0225";
shapes = (
{
closed = 1;
nodes = (
(520,495,l),
(497,495,l),
(578,377,l),
(620,408,l),
(539,526,l),
(532,504,l),
(651,554,l),
(632,602,l),
(515,551,l),
(535,540,l),
(535,690,l),
(482,690,l),
(482,540,l),
(503,551,l),
(385,602,l),
(366,554,l),
(486,504,l),
(479,526,l),
(397,408,l),
(440,377,l)
);
},
{
closed = 1;
nodes = (
(191,495,l),
(169,495,l),
(252,377,l),
(295,408,l),
(211,526,l),
(204,504,l),
(323,554,l),
(303,602,l),
(186,551,l),
(207,540,l),
(207,690,l),
(154,690,l),
(154,540,l),
(175,551,l),
(57,602,l),
(39,554,l),
(157,504,l),
(151,526,l),
(67,408,l),
(109,377,l)
);
}
);
width = 690;
}
);
metricRight = "=|";
note = uni156F;
unicode = 5487;
},
{
glyphname = "tye-canadian";
lastChange = "2023-01-13 15:55:21 +0000";
layers = (
{
layerId = "7D3FB2DB-72C7-4646-AA25-FB3BBECA0225";
shapes = (
{
closed = 1;
nodes = (
(440,-13,o),
(526,78,o),
(526,253,cs),
(526,690,l),
(440,690,l),
(440,257,ls),
(440,127,o),
(384,71,o),
(291,71,cs),
(200,71,o),
(141,129,o),
(141,257,cs),
(141,690,l),
(56,690,l),
(56,251,ls),
(56,78,o),
(145,-13,o),
(291,-13,cs)
);
},
{
closed = 1;
nodes = (
(348,412,o),
(381,448,o),
(381,518,cs),
(381,690,l),
(338,690,l),
(338,520,ls),
(338,474,o),
(322,455,o),
(291,455,cs),
(260,455,o),
(243,475,o),
(243,520,cs),
(243,690,l),
(201,690,l),
(201,518,ls),
(201,448,o),
(235,412,o),
(291,412,cs)
);
}
);
width = 582;
}
);
metricLeft = "te-canadian";
metricRight = "te-canadian";
note = uni1570;
unicode = 5488;
},
{
glyphname = "tyi-canadian";
lastChange = "2023-01-13 15:55:21 +0000";
layers = (
{
layerId = "7D3FB2DB-72C7-4646-AA25-FB3BBECA0225";
shapes = (
{
closed = 1;
nodes = (
(141,0,l),
(141,433,ls),
(141,562,o),
(198,618,o),
(291,618,cs),
(382,618,o),
(440,560,o),
(440,433,cs),
(440,0,l),
(526,0,l),
(526,439,ls),
(526,611,o),
(437,702,o),
(291,702,cs),
(142,702,o),
(56,611,o),
(56,437,cs),
(56,0,l)
);
},
{
closed = 1;
nodes = (
(243,0,l),
(243,170,ls),
(243,215,o),
(260,235,o),
(291,235,cs),
(322,235,o),
(338,214,o),
(338,170,cs),
(338,0,l),
(381,0,l),
(381,172,ls),
(381,242,o),
(347,278,o),
(291,278,cs),
(234,278,o),
(201,242,o),
(201,172,cs),
(201,0,l)
);
}
);
width = 582;
}
);
metricLeft = "te-canadian";
metricRight = "te-canadian";
note = uni1571;
unicode = 5489;
},
{
glyphname = "tyo-canadian";
lastChange = "2023-01-13 15:55:21 +0000";
layers = (
{
layerId = "7D3FB2DB-72C7-4646-AA25-FB3BBECA0225";
shapes = (
{
closed = 1;
nodes = (
(155,0,ls),
(350,0,o),
(456,120,o),
(456,346,cs),
(456,572,o),
(350,690,o),
(152,690,cs),
(60,690,l),
(60,609,l),
(145,609,ls),
(297,609,o),
(366,525,o),
(366,346,cs),
(366,168,o),
(297,81,o),
(148,81,cs),
(60,81,l),
(60,0,l)
);
},
{
closed = 1;
nodes = (
(114,212,ls),
(194,212,o),
(240,257,o),
(240,345,cs),
(240,433,o),
(194,478,o),
(114,478,cs),
(60,478,l),
(60,429,l),
(107,429,ls),
(163,429,o),
(187,402,o),
(187,345,cs),
(187,288,o),
(163,261,o),
(107,261,cs),
(60,261,l),
(60,212,l)
);
}
);
width = 505;
}
);
metricLeft = "nunavuth-canadian";
metricRight = "theCarrier-canadian";
note = uni1572;
unicode = 5490;
},
{
glyphname = "tya-canadian";
lastChange = "2023-01-13 15:55:21 +0000";
layers = (
{
layerId = "7D3FB2DB-72C7-4646-AA25-FB3BBECA0225";
shapes = (
{
closed = 1;
nodes = (
(445,0,l),
(445,81,l),
(360,81,ls),
(209,81,o),
(139,166,o),
(139,345,cs),
(139,523,o),
(209,609,o),
(357,609,cs),
(445,609,l),
(445,690,l),
(351,690,ls),
(156,690,o),
(49,571,o),
(49,345,cs),
(49,119,o),
(156,0,o),
(354,0,cs)
);
},
{
closed = 1;
nodes = (
(445,212,l),
(445,261,l),
(398,261,ls),
(343,261,o),
(318,288,o),
(318,345,cs),
(318,402,o),
(343,429,o),
(397,429,cs),
(445,429,l),
(445,478,l),
(391,478,ls),
(311,478,o),
(266,433,o),
(266,345,cs),
(266,257,o),
(311,212,o),
(391,212,cs)
);
}
);
width = 505;
}
);
metricLeft = "=|theCarrier-canadian";
metricRight = "nunavuth-canadian";
note = uni1573;
unicode = 5491;
},
{
glyphname = "heNunavik-canadian";
lastChange = "2023-01-13 15:55:21 +0000";
layers = (
{
layerId = "7D3FB2DB-72C7-4646-AA25-FB3BBECA0225";
shapes = (
{
closed = 1;
nodes = (
(414,0,l),
(605,194,l),
(551,251,l),
(366,64,l),
(424,60,l),
(424,446,ls),
(424,611,o),
(359,702,o),
(240,702,cs),
(120,702,o),
(49,610,o),
(49,447,cs),
(49,293,o),
(118,198,o),
(226,198,cs),
(287,198,o),
(332,239,o),
(343,293,c),
(335,317,l),
(335,0,l)
);
},
{
closed = 1;
nodes = (
(174,276,o),
(137,331,o),
(137,451,cs),
(137,570,o),
(173,625,o),
(237,625,cs),
(300,625,o),
(336,571,o),
(336,451,cs),
(336,331,o),
(298,276,o),
(237,276,cs)
);
}
);
width = 625;
}
);
metricLeft = "ke-canadian";
note = uni1574;
unicode = 5492;
},
{
glyphname = "hiNunavik-canadian";
lastChange = "2023-01-13 15:55:21 +0000";
layers = (
{
anchors = (
{
name = top_center_can;
pos = (386,690);
}
);
layerId = "7D3FB2DB-72C7-4646-AA25-FB3BBECA0225";
shapes = (
{
closed = 1;
nodes = (
(291,0,l),
(291,317,l),
(282,293,l),
(293,239,o),
(338,198,o),
(400,198,cs),
(508,198,o),
(576,293,o),
(576,448,cs),
(576,610,o),
(505,702,o),
(386,702,cs),
(266,702,o),
(201,611,o),
(201,446,cs),
(201,61,l),
(259,64,l),
(74,251,l),
(20,194,l),
(211,0,l)
);
},
{
closed = 1;
nodes = (
(327,276,o),
(290,331,o),
(290,451,cs),
(290,571,o),
(325,625,o),
(388,625,cs),
(452,625,o),
(488,570,o),
(488,451,cs),
(488,331,o),
(451,276,o),
(388,276,cs)
);
}
);
width = 625;
}
);
metricLeft = "=|heNunavik-canadian";
metricRight = "=|ke-canadian";
note = uni1575;
unicode = 5493;
},
{
glyphname = "hoNunavik-canadian";
lastChange = "2023-01-13 15:55:21 +0000";
layers = (
{
anchors = (
{
name = top_center_can;
pos = (236,690);
},
{
name = top_right_can;
pos = (380,690);
}
);
layerId = "7D3FB2DB-72C7-4646-AA25-FB3BBECA0225";
shapes = (
{
closed = 1;
nodes = (
(359,-13,o),
(424,78,o),
(424,243,cs),
(424,630,l),
(366,626,l),
(551,439,l),
(605,496,l),
(414,690,l),
(335,690,l),
(335,373,l),
(343,397,l),
(332,451,o),
(287,492,o),
(226,492,cs),
(118,492,o),
(49,397,o),
(49,242,cs),
(49,80,o),
(120,-13,o),
(240,-13,cs)
);
},
{
closed = 1;
nodes = (
(173,65,o),
(137,120,o),
(137,239,cs),
(137,358,o),
(174,413,o),
(237,413,cs),
(298,413,o),
(336,358,o),
(336,239,cs),
(336,119,o),
(300,65,o),
(237,65,cs)
);
}
);
width = 625;
}
);
metricLeft = "ke-canadian";
metricRight = "heNunavik-canadian";
note = uni1577;
unicode = 5495;
},
{
glyphname = "haNunavik-canadian";
lastChange = "2023-01-13 15:55:21 +0000";
layers = (
{
anchors = (
{
name = top_center_can;
pos = (389,690);
},
{
name = top_left_can;
pos = (246,690);
}
);
layerId = "7D3FB2DB-72C7-4646-AA25-FB3BBECA0225";
shapes = (
{
closed = 1;
nodes = (
(505,-13,o),
(576,80,o),
(576,242,cs),
(576,397,o),
(508,492,o),
(400,492,cs),
(338,492,o),
(294,451,o),
(282,397,c),
(291,373,l),
(291,690,l),
(211,690,l),
(20,496,l),
(74,439,l),
(259,626,l),
(201,629,l),
(201,243,ls),
(201,78,o),
(266,-13,o),
(386,-13,cs)
);
},
{
closed = 1;
nodes = (
(325,65,o),
(290,119,o),
(290,239,cs),
(290,358,o),
(327,413,o),
(388,413,cs),
(451,413,o),
(488,358,o),
(488,239,cs),
(488,120,o),
(452,65,o),
(388,65,cs)
);
}
);
width = 625;
}
);
metricLeft = "=|heNunavik-canadian";
metricRight = "=|ke-canadian";
note = uni1579;
unicode = 5497;
},
{
glyphname = "hNunavik-canadian";
kernLeft = mwestleft;
kernRight = mwestright;
lastChange = "2023-01-13 15:55:24 +0000";
layers = (
{
layerId = "7D3FB2DB-72C7-4646-AA25-FB3BBECA0225";
shapes = (
{
closed = 1;
nodes = (
(283,339,o),
(329,383,o),
(329,474,cs),
(329,556,o),
(290,601,o),
(238,601,cs),
(199,601,o),
(171,574,o),
(166,529,c),
(181,529,l),
(181,690,l),
(125,690,l),
(30,593,l),
(62,561,l),
(156,659,l),
(120,657,l),
(120,469,ls),
(120,387,o),
(160,339,o),
(225,339,cs)
);
},
{
closed = 1;
nodes = (
(195,386,o),
(177,409,o),
(177,470,cs),
(177,529,o),
(197,554,o),
(225,554,cs),
(253,554,o),
(274,530,o),
(274,470,cs),
(274,411,o),
(254,386,o),
(225,386,cs)
);
}
);
width = 368;
}
);
metricRight = "k-canadian";
note = uni157B;
unicode = 5499;
},
{
color = 4;
glyphname = "nunavuth-canadian";
lastChange = "2023-01-13 15:55:21 +0000";
layers = (
{
layerId = "7D3FB2DB-72C7-4646-AA25-FB3BBECA0225";
shapes = (
{
closed = 1;
nodes = (
(150,317,l),
(408,317,l),
(408,0,l),
(497,0,l),
(497,690,l),
(408,690,l),
(408,398,l),
(150,398,l),
(150,690,l),
(60,690,l),
(60,0,l),
(150,0,l)
);
}
);
width = 557;
}
);
metricRight = "=|";
note = uni157C;
unicode = 5500;
},
{
glyphname = "tlhe-canadian";
lastChange = "2023-01-13 15:55:21 +0000";
layers = (
{
anchors = (
{
name = top_center_can;
pos = (244,690);
}
);
layerId = "7D3FB2DB-72C7-4646-AA25-FB3BBECA0225";
shapes = (
{
closed = 1;
nodes = (
(163,0,l),
(266,265,l),
(196,238,l),
(206,235,o),
(217,233,o),
(230,233,cs),
(296,233,o),
(338,273,o),
(350,321,c),
(342,345,l),
(342,0,l),
(431,0,l),
(431,469,ls),
(431,613,o),
(365,702,o),
(244,702,cs),
(124,702,o),
(52,612,o),
(52,466,cs),
(52,354,o),
(98,277,o),
(167,252,c),
(69,0,l)
);
},
{
closed = 1;
nodes = (
(179,310,o),
(141,362,o),
(141,468,cs),
(141,573,o),
(177,625,o),
(242,625,cs),
(307,625,o),
(343,574,o),
(343,468,cs),
(343,361,o),
(304,310,o),
(242,310,cs)
);
}
);
width = 487;
}
);
metricRight = "te-canadian";
note = uni1586;
unicode = 5510;
},
{
glyphname = "tlhi-canadian";
lastChange = "2023-01-13 15:55:21 +0000";
layers = (
{
layerId = "7D3FB2DB-72C7-4646-AA25-FB3BBECA0225";
shapes = (
{
closed = 1;
nodes = (
(146,0,l),
(146,345,l),
(138,322,l),
(149,273,o),
(191,233,o),
(258,233,c),
(222,265,l),
(325,0,l),
(419,0,l),
(321,252,l),
(390,277,o),
(435,354,o),
(435,466,cs),
(435,612,o),
(364,702,o),
(243,702,cs),
(123,702,o),
(56,613,o),
(56,469,cs),
(56,0,l)
);
},
{
closed = 1;
nodes = (
(184,310,o),
(145,361,o),
(145,468,cs),
(145,574,o),
(181,625,o),
(246,625,cs),
(310,625,o),
(347,573,o),
(347,468,cs),
(347,362,o),
(309,310,o),
(246,310,cs)
);
}
);
width = 487;
}
);
metricLeft = "te-canadian";
metricRight = "=|tlhe-canadian";
note = uni1587;
unicode = 5511;
},
{
glyphname = "tlho-canadian";
lastChange = "2023-01-13 15:55:21 +0000";
layers = (
{
anchors = (
{
name = top_center_can;
pos = (254,690);
}
);
layerId = "7D3FB2DB-72C7-4646-AA25-FB3BBECA0225";
shapes = (
{
closed = 1;
nodes = (
(365,-13,o),
(431,76,o),
(431,221,cs),
(431,690,l),
(342,690,l),
(342,345,l),
(350,368,l),
(338,416,o),
(297,457,o),
(230,457,c),
(266,425,l),
(163,690,l),
(69,690,l),
(167,438,l),
(98,412,o),
(52,336,o),
(52,224,cs),
(52,77,o),
(124,-13,o),
(244,-13,cs)
);
},
{
closed = 1;
nodes = (
(177,65,o),
(141,117,o),
(141,222,cs),
(141,327,o),
(179,380,o),
(242,380,cs),
(304,380,o),
(343,328,o),
(343,222,cs),
(343,116,o),
(307,65,o),
(242,65,cs)
);
}
);
width = 487;
}
);
metricLeft = "tlhe-canadian";
metricRight = "te-canadian";
note = uni1588;
unicode = 5512;
},
{
glyphname = "tlha-canadian";
lastChange = "2023-01-13 15:55:21 +0000";
layers = (
{
layerId = "7D3FB2DB-72C7-4646-AA25-FB3BBECA0225";
shapes = (
{
closed = 1;
nodes = (
(364,-13,o),
(435,77,o),
(435,224,cs),
(435,336,o),
(390,412,o),
(321,438,c),
(419,690,l),
(325,690,l),
(222,425,l),
(292,452,l),
(281,455,o),
(270,457,o),
(258,457,cs),
(191,457,o),
(149,416,o),
(138,368,c),
(146,345,l),
(146,690,l),
(56,690,l),
(56,221,ls),
(56,76,o),
(123,-13,o),
(243,-13,cs)
);
},
{
closed = 1;
nodes = (
(181,65,o),
(145,116,o),
(145,222,cs),
(145,328,o),
(184,380,o),
(246,380,cs),
(309,380,o),
(347,327,o),
(347,222,cs),
(347,117,o),
(310,65,o),
(246,65,cs)
);
}
);
width = 488;
}
);
metricLeft = "te-canadian";
note = uni1589;
unicode = 5513;
},
{
glyphname = "reWestCree-canadian";
lastChange = "2023-01-13 15:55:21 +0000";
layers = (
{
layerId = "7D3FB2DB-72C7-4646-AA25-FB3BBECA0225";
shapes = (
{
closed = 1;
nodes = (
(409,0,l),
(599,194,l),
(544,251,l),
(359,64,l),
(418,60,l),
(418,464,ls),
(418,612,o),
(355,702,o),
(235,702,cs),
(116,702,o),
(47,616,o),
(47,468,cs),
(47,387,l),
(137,387,l),
(137,483,ls),
(137,572,o),
(169,623,o),
(234,623,cs),
(296,623,o),
(328,573,o),
(328,479,cs),
(328,0,l)
);
}
);
width = 619;
}
);
metricLeft = "ce-canadian";
metricRight = "heNunavik-canadian";
note = uni158A;
unicode = 5514;
},
{
glyphname = "riWestCree-canadian";
lastChange = "2023-01-13 15:55:21 +0000";
layers = (
{
layerId = "7D3FB2DB-72C7-4646-AA25-FB3BBECA0225";
shapes = (
{
closed = 1;
nodes = (
(291,0,l),
(291,479,ls),
(291,573,o),
(324,623,o),
(385,623,cs),
(450,623,o),
(482,572,o),
(482,483,cs),
(482,387,l),
(571,387,l),
(571,468,ls),
(571,616,o),
(503,702,o),
(384,702,cs),
(265,702,o),
(201,612,o),
(201,463,cs),
(201,60,l),
(259,64,l),
(74,251,l),
(20,194,l),
(211,0,l)
);
}
);
width = 618;
}
);
metricLeft = "=|heNunavik-canadian";
metricRight = "=|ce-canadian";
note = uni158B;
unicode = 5515;
},
{
glyphname = "roWestCree-canadian";
lastChange = "2023-01-13 15:55:21 +0000";
layers = (
{
layerId = "7D3FB2DB-72C7-4646-AA25-FB3BBECA0225";
shapes = (
{
closed = 1;
nodes = (
(354,-13,o),
(418,77,o),
(418,227,cs),
(418,630,l),
(359,626,l),
(544,439,l),
(599,496,l),
(409,690,l),
(328,690,l),
(328,211,ls),
(328,117,o),
(296,67,o),
(234,67,cs),
(169,67,o),
(137,118,o),
(137,207,cs),
(137,302,l),
(47,302,l),
(47,222,ls),
(47,73,o),
(116,-13,o),
(235,-13,cs)
);
}
);
width = 619;
}
);
metricLeft = "ce-canadian";
metricRight = "heNunavik-canadian";
note = uni158C;
unicode = 5516;
},
{
glyphname = "raWestCree-canadian";
lastChange = "2023-01-13 15:55:21 +0000";
layers = (
{
layerId = "7D3FB2DB-72C7-4646-AA25-FB3BBECA0225";
shapes = (
{
closed = 1;
nodes = (
(503,-13,o),
(571,73,o),
(571,222,cs),
(571,302,l),
(482,302,l),
(482,207,ls),
(482,118,o),
(450,67,o),
(385,67,cs),
(324,67,o),
(291,117,o),
(291,211,cs),
(291,690,l),
(211,690,l),
(20,496,l),
(74,439,l),
(259,626,l),
(201,630,l),
(201,226,ls),
(201,77,o),
(265,-13,o),
(384,-13,cs)
);
}
);
width = 618;
}
);
metricLeft = "=|heNunavik-canadian";
metricRight = "=|ce-canadian";
note = uni158D;
unicode = 5517;
},
{
glyphname = "ng-canadian";
kernLeft = mwestleft;
kernRight = mwestright;
lastChange = "2023-01-13 15:55:24 +0000";
layers = (
{
layerId = "7D3FB2DB-72C7-4646-AA25-FB3BBECA0225";
shapes = (
{
closed = 1;
nodes = (
(437,217,o),
(477,258,o),
(477,335,cs),
(477,365,l),
(419,365,l),
(419,328,ls),
(419,286,o),
(402,268,o),
(373,268,cs),
(343,268,o),
(327,287,o),
(327,333,cs),
(327,493,l),
(205,493,l),
(206,466,l),
(231,479,o),
(245,522,o),
(245,568,cs),
(245,649,o),
(207,696,o),
(142,696,cs),
(78,696,o),
(39,648,o),
(39,565,cs),
(39,483,o),
(78,434,o),
(147,434,cs),
(281,434,l),
(266,451,l),
(266,340,ls),
(266,259,o),
(305,217,o),
(372,217,cs)
);
},
{
closed = 1;
nodes = (
(112,481,o),
(94,507,o),
(94,565,cs),
(94,623,o),
(112,648,o),
(143,648,cs),
(173,648,o),
(189,622,o),
(189,565,cs),
(189,507,o),
(172,481,o),
(142,481,cs)
);
}
);
width = 506;
}
);
metricLeft = "n-canadian";
metricRight = "c-canadian";
note = uni1595;
unicode = 5525;
},
{
glyphname = "nng-canadian";
kernLeft = mwestleft;
kernRight = mwestright;
lastChange = "2023-01-13 15:55:24 +0000";
layers = (
{
layerId = "7D3FB2DB-72C7-4646-AA25-FB3BBECA0225";
shapes = (
{
closed = 1;
nodes = (
(676,217,o),
(717,258,o),
(717,335,cs),
(717,365,l),
(659,365,l),
(659,328,ls),
(659,286,o),
(642,268,o),
(612,268,cs),
(582,268,o),
(567,287,o),
(567,333,cs),
(567,493,l),
(446,493,l),
(446,466,l),
(471,479,o),
(485,522,o),
(485,568,cs),
(485,651,o),
(446,696,o),
(382,696,cs),
(319,696,o),
(279,648,o),
(279,565,cs),
(279,521,o),
(293,478,o),
(318,465,c),
(319,493,l),
(206,493,l),
(206,466,l),
(231,479,o),
(245,522,o),
(245,568,cs),
(245,649,o),
(207,696,o),
(142,696,cs),
(78,696,o),
(39,648,o),
(39,565,cs),
(39,483,o),
(78,434,o),
(147,434,cs),
(505,434,l),
(505,340,ls),
(505,259,o),
(545,217,o),
(612,217,cs)
);
},
{
closed = 1;
nodes = (
(112,481,o),
(94,507,o),
(94,565,cs),
(94,623,o),
(112,648,o),
(143,648,cs),
(173,648,o),
(189,622,o),
(189,565,cs),
(189,507,o),
(172,481,o),
(142,481,cs)
);
},
{
closed = 1;
nodes = (
(353,481,o),
(334,507,o),
(334,565,cs),
(334,623,o),
(353,648,o),
(383,648,cs),
(412,648,o),
(430,622,o),
(430,565,cs),
(430,507,o),
(411,481,o),
(383,481,cs)
);
}
);
width = 746;
}
);
metricLeft = "n-canadian";
metricRight = "c-canadian";
note = uni1596;
unicode = 5526;
},
{
glyphname = "sheSayisi-canadian";
lastChange = "2023-01-13 15:55:21 +0000";
layers = (
{
anchors = (
{
name = middle_right_can;
pos = (538,345);
},
{
name = top_center_can;
pos = (243,690);
}
);
layerId = "7D3FB2DB-72C7-4646-AA25-FB3BBECA0225";
shapes = (
{
closed = 1;
nodes = (
(431,0,l),
(431,450,ls),
(431,611,o),
(367,702,o),
(243,702,cs),
(121,702,o),
(49,610,o),
(49,439,cs),
(49,276,o),
(105,200,o),
(185,200,cs),
(257,200,o),
(300,252,o),
(296,412,c),
(256,412,l),
(259,298,o),
(234,274,o),
(202,274,cs),
(160,274,o),
(135,318,o),
(135,441,cs),
(135,571,o),
(173,625,o),
(241,625,cs),
(307,625,o),
(341,571,o),
(341,446,cs),
(341,0,l)
);
}
);
width = 487;
}
);
metricLeft = "ke-canadian";
metricRight = "te-canadian";
note = uni1597;
unicode = 5527;
},
{
glyphname = "shiSayisi-canadian";
lastChange = "2023-01-13 15:55:21 +0000";
layers = (
{
layerId = "7D3FB2DB-72C7-4646-AA25-FB3BBECA0225";
shapes = (
{
closed = 1;
nodes = (
(147,0,l),
(147,446,ls),
(147,571,o),
(181,625,o),
(247,625,cs),
(315,625,o),
(352,571,o),
(352,441,cs),
(352,318,o),
(327,274,o),
(285,274,cs),
(254,274,o),
(228,298,o),
(232,412,c),
(192,412,l),
(187,252,o),
(231,200,o),
(303,200,cs),
(383,200,o),
(439,276,o),
(439,440,cs),
(439,610,o),
(367,702,o),
(245,702,cs),
(121,702,o),
(56,611,o),
(56,450,cs),
(56,0,l)
);
}
);
width = 488;
}
);
metricLeft = "te-canadian";
metricRight = "=|ke-canadian";
note = uni1598;
unicode = 5528;
},
{
glyphname = "shoSayisi-canadian";
lastChange = "2023-01-13 15:55:21 +0000";
layers = (
{
anchors = (
{
name = top_center_can;
pos = (240,690);
},
{
name = top_left_can;
pos = (92,690);
},
{
name = top_right_can;
pos = (386,690);
}
);
layerId = "7D3FB2DB-72C7-4646-AA25-FB3BBECA0225";
shapes = (
{
closed = 1;
nodes = (
(367,-13,o),
(431,78,o),
(431,240,cs),
(431,690,l),
(341,690,l),
(341,243,ls),
(341,119,o),
(307,65,o),
(241,65,cs),
(173,65,o),
(135,119,o),
(135,248,cs),
(135,372,o),
(160,415,o),
(202,415,cs),
(234,415,o),
(259,392,o),
(256,278,c),
(296,278,l),
(300,438,o),
(257,490,o),
(185,490,cs),
(105,490,o),
(49,413,o),
(49,250,cs),
(49,80,o),
(121,-13,o),
(242,-13,cs)
);
}
);
width = 487;
}
);
metricLeft = "ke-canadian";
metricRight = "te-canadian";
note = uni1599;
unicode = 5529;
},
{
glyphname = "shaSayisi-canadian";
lastChange = "2023-01-13 15:55:21 +0000";
layers = (
{
layerId = "7D3FB2DB-72C7-4646-AA25-FB3BBECA0225";
shapes = (
{
closed = 1;
nodes = (
(367,-13,o),
(439,80,o),
(439,251,cs),
(439,413,o),
(383,490,o),
(303,490,cs),
(231,490,o),
(187,438,o),
(192,278,c),
(232,278,l),
(228,392,o),
(254,415,o),
(285,415,cs),
(327,415,o),
(352,372,o),
(352,248,cs),
(352,119,o),
(315,65,o),
(247,65,cs),
(181,65,o),
(147,119,o),
(147,243,cs),
(147,690,l),
(56,690,l),
(56,240,ls),
(56,78,o),
(121,-13,o),
(244,-13,cs)
);
}
);
width = 488;
}
);
metricLeft = "te-canadian";
metricRight = "=|ke-canadian";
note = uni159A;
unicode = 5530;
},
{
glyphname = "theWoodScree-canadian";
lastChange = "2023-01-13 15:55:21 +0000";
layers = (
{
layerId = "7D3FB2DB-72C7-4646-AA25-FB3BBECA0225";
shapes = (
{
closed = 1;
nodes = (
(534,-13,o),
(610,71,o),
(610,233,cs),
(610,395,o),
(536,478,o),
(406,478,cs),
(52,478,l),
(52,403,l),
(305,403,l),
(300,418,l),
(252,385,o),
(228,310,o),
(228,229,cs),
(228,71,o),
(300,-13,o),
(418,-13,cs)
);
},
{
closed = 1;
nodes = (
(353,65,o),
(316,119,o),
(316,234,cs),
(316,343,o),
(353,402,o),
(418,402,cs),
(484,402,o),
(522,349,o),
(522,234,cs),
(522,119,o),
(485,65,o),
(418,65,cs)
);
},
{
closed = 1;
nodes = (
(601,614,l),
(601,690,l),
(52,690,l),
(52,614,l)
);
}
);
width = 663;
}
);
note = uni159B;
unicode = 5531;
},
{
glyphname = "thiWoodScree-canadian";
kernRight = niright;
lastChange = "2023-01-13 15:55:21 +0000";
layers = (
{
layerId = "7D3FB2DB-72C7-4646-AA25-FB3BBECA0225";
shapes = (
{
closed = 1;
nodes = (
(362,-13,o),
(435,71,o),
(435,229,cs),
(435,310,o),
(411,385,o),
(362,419,c),
(357,403,l),
(610,403,l),
(610,478,l),
(256,478,ls),
(127,478,o),
(52,394,o),
(52,233,cs),
(52,71,o),
(128,-13,o),
(243,-13,cs)
);
},
{
closed = 1;
nodes = (
(177,65,o),
(141,119,o),
(141,234,cs),
(141,349,o),
(178,402,o),
(243,402,cs),
(310,402,o),
(346,343,o),
(346,234,cs),
(346,119,o),
(310,65,o),
(243,65,cs)
);
},
{
closed = 1;
nodes = (
(610,614,l),
(610,690,l),
(61,690,l),
(61,614,l)
);
}
);
width = 663;
}
);
metricLeft = "theWoodScree-canadian";
metricRight = "theWoodScree-canadian";
note = uni159C;
unicode = 5532;
},
{
glyphname = "thoWoodScree-canadian";
lastChange = "2023-01-13 15:55:21 +0000";
layers = (
{
layerId = "7D3FB2DB-72C7-4646-AA25-FB3BBECA0225";
shapes = (
{
closed = 1;
nodes = (
(407,0,ls),
(536,0,o),
(610,84,o),
(610,245,cs),
(610,407,o),
(535,492,o),
(418,492,cs),
(300,492,o),
(228,407,o),
(228,249,cs),
(228,168,o),
(252,93,o),
(300,60,c),
(305,75,l),
(52,75,l),
(52,0,l)
);
},
{
closed = 1;
nodes = (
(353,76,o),
(316,135,o),
(316,244,cs),
(316,359,o),
(353,413,o),
(418,413,cs),
(485,413,o),
(522,360,o),
(522,244,cs),
(522,129,o),
(484,76,o),
(418,76,cs)
);
},
{
closed = 1;
nodes = (
(601,614,l),
(601,690,l),
(52,690,l),
(52,614,l)
);
}
);
width = 663;
}
);
metricLeft = "theWoodScree-canadian";
metricRight = "theWoodScree-canadian";
note = uni159D;
unicode = 5533;
},
{
glyphname = "thaWoodScree-canadian";
lastChange = "2023-01-13 15:55:21 +0000";
layers = (
{
layerId = "7D3FB2DB-72C7-4646-AA25-FB3BBECA0225";
shapes = (
{
closed = 1;
nodes = (
(610,0,l),
(610,75,l),
(357,75,l),
(362,60,l),
(411,93,o),
(435,168,o),
(435,249,cs),
(435,407,o),
(362,492,o),
(243,492,cs),
(128,492,o),
(52,407,o),
(52,245,cs),
(52,84,o),
(127,0,o),
(256,0,cs)
);
},
{
closed = 1;
nodes = (
(178,76,o),
(141,129,o),
(141,244,cs),
(141,360,o),
(177,413,o),
(243,413,cs),
(310,413,o),
(346,359,o),
(346,244,cs),
(346,135,o),
(310,76,o),
(243,76,cs)
);
},
{
closed = 1;
nodes = (
(610,614,l),
(610,690,l),
(61,690,l),
(61,614,l)
);
}
);
width = 663;
}
);
metricLeft = "theWoodScree-canadian";
metricRight = "theWoodScree-canadian";
note = uni159E;
unicode = 5534;
},
{
glyphname = "thWoodScree-canadian";
lastChange = "2023-01-13 15:55:21 +0000";
layers = (
{
layerId = "7D3FB2DB-72C7-4646-AA25-FB3BBECA0225";
shapes = (
{
closed = 1;
nodes = (
(354,345,l),
(354,399,l),
(213,399,l),
(216,377,l),
(242,390,o),
(256,432,o),
(256,479,cs),
(256,559,o),
(217,607,o),
(153,607,cs),
(89,607,o),
(49,558,o),
(49,476,cs),
(49,394,o),
(89,345,o),
(157,345,cs)
);
},
{
closed = 1;
nodes = (
(123,391,o),
(104,418,o),
(104,476,cs),
(104,534,o),
(123,559,o),
(154,559,cs),
(184,559,o),
(200,533,o),
(200,475,cs),
(200,418,o),
(183,391,o),
(153,391,cs)
);
},
{
closed = 1;
nodes = (
(348,667,l),
(348,721,l),
(53,721,l),
(53,667,l)
);
}
);
width = 403;
}
);
metricRight = "=|";
note = uni159F;
unicode = 5535;
},
{
glyphname = "lhi-canadian";
kernRight = niright;
lastChange = "2023-01-13 15:55:21 +0000";
layers = (
{
anchors = (
{
name = top_center_can;
pos = (364,690);
},
{
name = top_right_can;
pos = (446,690);
}
);
layerId = "7D3FB2DB-72C7-4646-AA25-FB3BBECA0225";
shapes = (
{
closed = 1;
nodes = (
(297,0,l),
(297,80,l),
(281,80,ls),
(187,80,o),
(138,133,o),
(138,237,cs),
(138,342,o),
(187,396,o),
(279,396,cs),
(607,396,l),
(607,469,l),
(463,726,l),
(393,686,l),
(537,429,l),
(537,478,l),
(275,478,ls),
(135,478,o),
(49,394,o),
(49,238,cs),
(49,83,o),
(133,0,o),
(274,0,cs)
);
}
);
width = 653;
}
);
metricLeft = "ke-canadian";
metricRight = "=|ne-canadian";
note = uni15A0;
unicode = 5536;
},
{
glyphname = "lho-canadian";
kernLeft = noleft;
lastChange = "2023-01-13 15:55:21 +0000";
layers = (
{
anchors = (
{
name = top_center_can;
pos = (321,496);
},
{
name = top_right_can;
pos = (408,496);
}
);
layerId = "7D3FB2DB-72C7-4646-AA25-FB3BBECA0225";
shapes = (
{
closed = 1;
nodes = (
(259,-209,l),
(116,49,l),
(115,-1,l),
(378,-1,ls),
(518,-1,o),
(604,83,o),
(604,240,cs),
(604,395,o),
(519,478,o),
(379,478,cs),
(355,478,l),
(355,398,l),
(371,398,ls),
(466,398,o),
(514,344,o),
(514,242,cs),
(514,135,o),
(465,81,o),
(374,81,cs),
(46,81,l),
(46,9,l),
(189,-250,l)
);
}
);
width = 653;
}
);
metricLeft = "ne-canadian";
metricRight = "=|ke-canadian";
note = uni15A2;
unicode = 5538;
},
{
glyphname = "lha-canadian";
kernRight = naright;
lastChange = "2023-01-13 15:55:21 +0000";
layers = (
{
anchors = (
{
name = top_center_can;
pos = (334,496);
},
{
name = top_left_can;
pos = (245,496);
}
);
layerId = "7D3FB2DB-72C7-4646-AA25-FB3BBECA0225";
shapes = (
{
closed = 1;
nodes = (
(607,9,l),
(607,82,l),
(279,82,ls),
(187,82,o),
(138,135,o),
(138,242,cs),
(138,345,o),
(187,398,o),
(281,398,cs),
(297,398,l),
(297,478,l),
(274,478,ls),
(133,478,o),
(49,395,o),
(49,241,cs),
(49,84,o),
(135,0,o),
(275,0,cs),
(537,0,l),
(537,49,l),
(393,-209,l),
(463,-249,l)
);
}
);
width = 653;
}
);
metricLeft = "ke-canadian";
metricRight = "=|ne-canadian";
note = uni15A4;
unicode = 5540;
},
{
glyphname = "lh-canadian";
kernLeft = mwestleft;
kernRight = mwestright;
lastChange = "2023-01-13 15:55:21 +0000";
layers = (
{
layerId = "7D3FB2DB-72C7-4646-AA25-FB3BBECA0225";
shapes = (
{
closed = 1;
nodes = (
(351,351,l),
(351,404,l),
(210,404,ls),
(139,404,o),
(108,445,o),
(108,518,cs),
(108,589,o),
(139,631,o),
(200,631,cs),
(207,631,l),
(207,690,l),
(197,690,ls),
(98,690,o),
(47,619,o),
(47,518,cs),
(47,412,o),
(98,345,o),
(209,345,cs),
(310,345,l),
(303,380,l),
(223,236,l),
(271,208,l)
);
}
);
width = 398;
}
);
metricLeft = "t-canadian";
metricRight = "=|";
note = uni15A6;
unicode = 5542;
},
{
glyphname = "theThCree-canadian";
lastChange = "2023-01-13 15:55:21 +0000";
layers = (
{
anchors = (
{
name = top_left_can;
pos = (80,690);
},
{
name = top_right_can;
pos = (360,690);
}
);
layerId = "7D3FB2DB-72C7-4646-AA25-FB3BBECA0225";
shapes = (
{
closed = 1;
nodes = (
(405,0,l),
(405,104,l),
(467,104,l),
(467,158,l),
(405,158,l),
(405,323,l),
(134,323,l),
(153,294,l),
(423,651,l),
(358,701,l),
(36,272,l),
(36,242,l),
(315,242,l),
(315,158,l),
(130,158,l),
(130,104,l),
(315,104,l),
(315,0,l)
);
}
);
width = 497;
}
);
metricLeft = "ye-canadian";
note = uni15A7;
unicode = 5543;
},
{
glyphname = "thiThCree-canadian";
kernRight = yiright;
lastChange = "2023-01-13 15:55:21 +0000";
layers = (
{
anchors = (
{
name = top_left_can;
pos = (137,690);
},
{
name = top_right_can;
pos = (417,690);
}
);
layerId = "7D3FB2DB-72C7-4646-AA25-FB3BBECA0225";
shapes = (
{
closed = 1;
nodes = (
(182,0,l),
(182,104,l),
(367,104,l),
(367,158,l),
(182,158,l),
(182,242,l),
(461,242,l),
(461,272,l),
(139,701,l),
(73,651,l),
(351,286,l),
(363,323,l),
(92,323,l),
(92,158,l),
(30,158,l),
(30,104,l),
(92,104,l),
(92,0,l)
);
}
);
width = 497;
}
);
metricLeft = "=|theThCree-canadian";
metricRight = "=|ye-canadian";
note = uni15A8;
unicode = 5544;
},
{
glyphname = "thoThCree-canadian";
kernLeft = yoleft;
lastChange = "2023-01-13 15:55:21 +0000";
layers = (
{
anchors = (
{
name = top_left_can;
pos = (80,690);
},
{
name = top_right_can;
pos = (360,690);
}
);
layerId = "7D3FB2DB-72C7-4646-AA25-FB3BBECA0225";
shapes = (
{
closed = 1;
nodes = (
(423,39,l),
(152,395,l),
(134,367,l),
(405,367,l),
(405,531,l),
(467,531,l),
(467,585,l),
(405,585,l),
(405,690,l),
(315,690,l),
(315,585,l),
(130,585,l),
(130,531,l),
(315,531,l),
(315,447,l),
(36,447,l),
(36,417,l),
(358,-12,l)
);
}
);
width = 497;
}
);
metricLeft = "ye-canadian";
metricRight = "theThCree-canadian";
note = uni15AA;
unicode = 5546;
},
{
glyphname = "thaThCree-canadian";
kernRight = yaright;
lastChange = "2023-01-13 15:55:21 +0000";
layers = (
{
anchors = (
{
name = top_left_can;
pos = (137,690);
},
{
name = top_right_can;
pos = (417,690);
}
);
layerId = "7D3FB2DB-72C7-4646-AA25-FB3BBECA0225";
shapes = (
{
closed = 1;
nodes = (
(461,417,l),
(461,447,l),
(182,447,l),
(182,531,l),
(367,531,l),
(367,585,l),
(182,585,l),
(182,690,l),
(92,690,l),
(92,585,l),
(30,585,l),
(30,531,l),
(92,531,l),
(92,367,l),
(363,367,l),
(345,395,l),
(73,39,l),
(139,-12,l)
);
}
);
width = 497;
}
);
metricLeft = "=|theThCree-canadian";
metricRight = "=|ye-canadian";
note = uni15AC;
unicode = 5548;
},
{
glyphname = "thThCree-canadian";
kernLeft = mwestleft;
kernRight = mwestright;
lastChange = "2023-01-13 15:55:21 +0000";
layers = (
{
layerId = "7D3FB2DB-72C7-4646-AA25-FB3BBECA0225";
shapes = (
{
closed = 1;
nodes = (
(265,549,l),
(265,568,l),
(130,568,l),
(130,613,l),
(216,613,l),
(216,644,l),
(130,644,l),
(130,690,l),
(69,690,l),
(69,644,l),
(37,644,l),
(37,613,l),
(69,613,l),
(69,515,l),
(213,515,l),
(199,553,l),
(64,368,l),
(110,337,l)
);
}
);
width = 291;
}
);
metricRight = "y-canadian";
note = uni15AE;
unicode = 5550;
},
{
glyphname = "bAivilik-canadian";
lastChange = "2023-01-13 15:55:21 +0000";
layers = (
{
layerId = "7D3FB2DB-72C7-4646-AA25-FB3BBECA0225";
shapes = (
{
closed = 1;
nodes = (
(367,-13,o),
(436,81,o),
(436,242,cs),
(436,397,o),
(368,492,o),
(263,492,cs),
(198,492,o),
(153,451,o),
(142,397,c),
(150,372,l),
(150,690,l),
(60,690,l),
(60,0,l),
(142,0,l),
(142,100,l),
(138,85,l),
(153,28,o),
(195,-13,o),
(265,-13,cs)
);
},
{
closed = 1;
nodes = (
(185,65,o),
(149,120,o),
(149,239,cs),
(149,358,o),
(185,413,o),
(248,413,cs),
(311,413,o),
(347,358,o),
(347,239,cs),
(347,120,o),
(312,65,o),
(248,65,cs)
);
}
);
width = 485;
}
);
metricLeft = "nunavuth-canadian";
metricRight = "=|ke-canadian";
note = uni15AF;
unicode = 5551;
},
{
glyphname = "eBlackfoot-canadian";
lastChange = "2023-01-13 15:55:21 +0000";
layers = (
{
layerId = "7D3FB2DB-72C7-4646-AA25-FB3BBECA0225";
shapes = (
{
closed = 1;
nodes = (
(150,0,l),
(150,406,l),
(175,370,o),
(213,350,o),
(259,350,cs),
(348,350,o),
(406,425,o),
(406,526,cs),
(406,628,o),
(348,702,o),
(259,702,cs),
(210,702,o),
(169,679,o),
(146,639,c),
(146,690,l),
(60,690,l),
(60,0,l)
);
}
);
width = 442;
}
);
metricLeft = "nunavuth-canadian";
note = uni15B0;
unicode = 5552;
},
{
glyphname = "iBlackfoot-canadian";
lastChange = "2023-01-13 15:55:24 +0000";
layers = (
{
layerId = "7D3FB2DB-72C7-4646-AA25-FB3BBECA0225";
shapes = (
{
closed = 1;
nodes = (
(231,-13,o),
(271,11,o),
(296,50,c),
(296,0,l),
(382,0,l),
(382,690,l),
(291,690,l),
(291,284,l),
(266,320,o),
(227,340,o),
(182,340,cs),
(93,340,o),
(36,265,o),
(36,163,cs),
(36,62,o),
(93,-13,o),
(182,-13,cs)
);
}
);
width = 442;
}
);
metricLeft = "=|eBlackfoot-canadian";
metricRight = "nunavuth-canadian";
note = uni15B1;
unicode = 5553;
},
{
glyphname = "oBlackfoot-canadian";
lastChange = "2023-01-13 15:55:21 +0000";
layers = (
{
layerId = "7D3FB2DB-72C7-4646-AA25-FB3BBECA0225";
shapes = (
{
closed = 1;
nodes = (
(348,-13,o),
(406,62,o),
(406,163,cs),
(406,265,o),
(348,340,o),
(259,340,cs),
(213,340,o),
(175,320,o),
(150,284,c),
(150,690,l),
(60,690,l),
(60,0,l),
(146,0,l),
(146,50,l),
(169,11,o),
(210,-13,o),
(259,-13,cs)
);
}
);
width = 442;
}
);
metricLeft = "nunavuth-canadian";
metricRight = "eBlackfoot-canadian";
note = uni15B2;
unicode = 5554;
},
{
glyphname = "aBlackfoot-canadian";
lastChange = "2023-01-13 15:55:24 +0000";
layers = (
{
layerId = "7D3FB2DB-72C7-4646-AA25-FB3BBECA0225";
shapes = (
{
closed = 1;
nodes = (
(382,0,l),
(382,690,l),
(296,690,l),
(296,639,l),
(271,679,o),
(231,702,o),
(182,702,cs),
(93,702,o),
(36,628,o),
(36,526,cs),
(36,425,o),
(93,350,o),
(182,350,cs),
(227,350,o),
(266,370,o),
(291,406,c),
(291,0,l)
);
}
);
width = 442;
}
);
metricLeft = "=|eBlackfoot-canadian";
metricRight = "nunavuth-canadian";
note = uni15B3;
unicode = 5555;
},
{
glyphname = "weBlackfoot-canadian";
lastChange = "2023-01-13 15:55:21 +0000";
layers = (
{
layerId = "7D3FB2DB-72C7-4646-AA25-FB3BBECA0225";
shapes = (
{
closed = 1;
nodes = (
(150,305,l),
(422,305,l),
(422,384,l),
(150,384,l),
(150,611,l),
(422,611,l),
(422,690,l),
(60,690,l),
(60,0,l),
(150,0,l)
);
}
);
width = 468;
}
);
metricLeft = "nunavuth-canadian";
note = uni15B4;
unicode = 5556;
},
{
glyphname = "wiBlackfoot-canadian";
lastChange = "2023-01-13 15:55:24 +0000";
layers = (
{
layerId = "7D3FB2DB-72C7-4646-AA25-FB3BBECA0225";
shapes = (
{
closed = 1;
nodes = (
(409,0,l),
(409,690,l),
(319,690,l),
(319,384,l),
(46,384,l),
(46,306,l),
(319,306,l),
(319,78,l),
(46,78,l),
(46,0,l)
);
}
);
width = 469;
}
);
metricLeft = "=|weBlackfoot-canadian";
metricRight = "nunavuth-canadian";
note = uni15B5;
unicode = 5557;
},
{
glyphname = "woBlackfoot-canadian";
lastChange = "2023-01-13 15:55:21 +0000";
layers = (
{
layerId = "7D3FB2DB-72C7-4646-AA25-FB3BBECA0225";
shapes = (
{
closed = 1;
nodes = (
(422,0,l),
(422,78,l),
(150,78,l),
(150,306,l),
(422,306,l),
(422,384,l),
(150,384,l),
(150,690,l),
(60,690,l),
(60,0,l)
);
}
);
width = 468;
}
);
metricLeft = "nunavuth-canadian";
metricRight = "weBlackfoot-canadian";
note = uni15B6;
unicode = 5558;
},
{
glyphname = "waBlackfoot-canadian";
lastChange = "2023-01-13 15:55:24 +0000";
layers = (
{
layerId = "7D3FB2DB-72C7-4646-AA25-FB3BBECA0225";
shapes = (
{
closed = 1;
nodes = (
(409,0,l),
(409,690,l),
(46,690,l),
(46,611,l),
(319,611,l),
(319,384,l),
(46,384,l),
(46,305,l),
(319,305,l),
(319,0,l)
);
}
);
width = 469;
}
);
metricLeft = "=|weBlackfoot-canadian";
metricRight = "nunavuth-canadian";
note = uni15B7;
unicode = 5559;
},
{
glyphname = "neBlackfoot-canadian";
lastChange = "2023-01-13 15:55:21 +0000";
layers = (
{
layerId = "7D3FB2DB-72C7-4646-AA25-FB3BBECA0225";
shapes = (
{
closed = 1;
nodes = (
(150,0,l),
(150,622,l),
(194,622,l),
(166,671,l),
(166,645,ls),
(166,488,o),
(230,400,o),
(351,400,cs),
(469,400,o),
(541,490,o),
(541,643,cs),
(541,690,l),
(452,690,l),
(452,634,ls),
(452,533,o),
(418,479,o),
(353,479,cs),
(288,479,o),
(254,532,o),
(254,633,cs),
(254,690,l),
(60,690,l),
(60,0,l)
);
}
);
width = 573;
}
);
metricLeft = "nunavuth-canadian";
note = uni15B8;
unicode = 5560;
},
{
glyphname = "niBlackfoot-canadian";
lastChange = "2023-01-13 15:55:21 +0000";
layers = (
{
layerId = "7D3FB2DB-72C7-4646-AA25-FB3BBECA0225";
shapes = (
{
closed = 1;
nodes = (
(121,0,l),
(121,56,ls),
(121,156,o),
(155,211,o),
(220,211,cs),
(285,211,o),
(319,157,o),
(319,57,cs),
(319,0,l),
(513,0,l),
(513,690,l),
(423,690,l),
(423,68,l),
(379,68,l),
(407,18,l),
(407,44,ls),
(407,202,o),
(343,290,o),
(222,290,cs),
(103,290,o),
(32,200,o),
(32,46,cs),
(32,0,l)
);
}
);
width = 573;
}
);
metricLeft = "=|neBlackfoot-canadian";
metricRight = "nunavuth-canadian";
note = uni15B9;
unicode = 5561;
},
{
glyphname = "noBlackfoot-canadian";
lastChange = "2023-01-13 15:55:21 +0000";
layers = (
{
layerId = "7D3FB2DB-72C7-4646-AA25-FB3BBECA0225";
shapes = (
{
closed = 1;
nodes = (
(254,0,l),
(254,57,ls),
(254,157,o),
(288,211,o),
(353,211,cs),
(418,211,o),
(452,156,o),
(452,56,cs),
(452,0,l),
(541,0,l),
(541,46,ls),
(541,200,o),
(469,290,o),
(351,290,cs),
(230,290,o),
(166,202,o),
(166,44,cs),
(166,18,l),
(194,68,l),
(150,68,l),
(150,690,l),
(60,690,l),
(60,0,l)
);
}
);
width = 573;
}
);
metricLeft = "nunavuth-canadian";
metricRight = "neBlackfoot-canadian";
note = uni15BA;
unicode = 5562;
},
{
glyphname = "naBlackfoot-canadian";
lastChange = "2023-01-13 15:55:21 +0000";
layers = (
{
layerId = "7D3FB2DB-72C7-4646-AA25-FB3BBECA0225";
shapes = (
{
closed = 1;
nodes = (
(513,0,l),
(513,690,l),
(319,690,l),
(319,633,ls),
(319,532,o),
(285,479,o),
(220,479,cs),
(155,479,o),
(121,533,o),
(121,634,cs),
(121,690,l),
(32,690,l),
(32,643,ls),
(32,490,o),
(103,400,o),
(222,400,cs),
(343,400,o),
(407,488,o),
(407,645,cs),
(407,671,l),
(379,622,l),
(423,622,l),
(423,0,l)
);
}
);
width = 573;
}
);
metricLeft = "=|neBlackfoot-canadian";
metricRight = "nunavuth-canadian";
note = uni15BB;
unicode = 5563;
},
{
glyphname = "keBlackfoot-canadian";
lastChange = "2023-01-13 15:55:21 +0000";
layers = (
{
layerId = "7D3FB2DB-72C7-4646-AA25-FB3BBECA0225";
shapes = (
{
closed = 1;
nodes = (
(150,0,l),
(150,585,l),
(118,585,l),
(259,256,l),
(300,256,l),
(488,690,l),
(398,690,l),
(255,355,l),
(287,355,l),
(144,690,l),
(60,690,l),
(60,0,l)
);
}
);
width = 508;
}
);
metricLeft = "nunavuth-canadian";
note = uni15BC;
unicode = 5564;
},
{
glyphname = "kiBlackfoot-canadian";
lastChange = "2023-01-13 15:55:21 +0000";
layers = (
{
layerId = "7D3FB2DB-72C7-4646-AA25-FB3BBECA0225";
shapes = (
{
closed = 1;
nodes = (
(110,0,l),
(254,335,l),
(221,335,l),
(364,0,l),
(449,0,l),
(449,690,l),
(358,690,l),
(358,104,l),
(390,104,l),
(249,434,l),
(209,434,l),
(20,0,l)
);
}
);
width = 509;
}
);
metricLeft = "=|keBlackfoot-canadian";
metricRight = "nunavuth-canadian";
note = uni15BD;
unicode = 5565;
},
{
glyphname = "koBlackfoot-canadian";
lastChange = "2023-01-13 15:55:21 +0000";
layers = (
{
layerId = "7D3FB2DB-72C7-4646-AA25-FB3BBECA0225";
shapes = (
{
closed = 1;
nodes = (
(144,0,l),
(287,335,l),
(255,335,l),
(398,0,l),
(488,0,l),
(300,434,l),
(259,434,l),
(118,104,l),
(150,104,l),
(150,690,l),
(60,690,l),
(60,0,l)
);
}
);
width = 508;
}
);
metricLeft = "nunavuth-canadian";
metricRight = "keBlackfoot-canadian";
note = uni15BE;
unicode = 5566;
},
{
glyphname = "kaBlackfoot-canadian";
lastChange = "2023-01-13 15:55:21 +0000";
layers = (
{
layerId = "7D3FB2DB-72C7-4646-AA25-FB3BBECA0225";
shapes = (
{
closed = 1;
nodes = (
(449,0,l),
(449,690,l),
(364,690,l),
(221,355,l),
(254,355,l),
(110,690,l),
(20,690,l),
(209,256,l),
(249,256,l),
(390,585,l),
(358,585,l),
(358,0,l)
);
}
);
width = 509;
}
);
metricLeft = "=|keBlackfoot-canadian";
metricRight = "nunavuth-canadian";
note = uni15BF;
unicode = 5567;
},
{
color = 9;
glyphname = "heSayisi-canadian";
lastChange = "2023-01-13 15:55:21 +0000";
layers = (
{
anchors = (
{
name = top_right_can;
pos = (440,690);
}
);
layerId = "7D3FB2DB-72C7-4646-AA25-FB3BBECA0225";
shapes = (
{
closed = 1;
nodes = (
(485,0,l),
(485,690,l),
(396,690,l),
(396,302,l),
(411,302,l),
(407,554,o),
(331,702,o),
(209,702,cs),
(103,702,o),
(43,618,o),
(43,451,cs),
(43,416,o),
(45,373,o),
(53,336,c),
(138,336,l),
(132,369,o),
(129,413,o),
(129,440,cs),
(129,572,o),
(167,623,o),
(229,623,cs),
(330,623,o),
(393,453,o),
(395,0,c)
);
}
);
width = 545;
}
);
metricRight = "nunavuth-canadian";
note = uni15C0;
unicode = 5568;
},
{
color = 9;
glyphname = "hiSayisi-canadian";
lastChange = "2023-01-13 15:55:21 +0000";
layers = (
{
layerId = "7D3FB2DB-72C7-4646-AA25-FB3BBECA0225";
shapes = (
{
closed = 1;
nodes = (
(150,0,l),
(152,453,o),
(214,623,o),
(316,623,cs),
(378,623,o),
(415,572,o),
(415,440,cs),
(415,413,o),
(412,369,o),
(407,336,c),
(492,336,l),
(499,373,o),
(502,416,o),
(502,451,cs),
(502,618,o),
(441,702,o),
(336,702,cs),
(213,702,o),
(139,554,o),
(134,302,c),
(149,302,l),
(149,690,l),
(60,690,l),
(60,0,l)
);
}
);
width = 545;
}
);
metricLeft = "nunavuth-canadian";
metricRight = "=|heSayisi-canadian";
note = uni15C1;
unicode = 5569;
},
{
color = 9;
glyphname = "hoSayisi-canadian";
lastChange = "2023-01-13 15:55:21 +0000";
layers = (
{
anchors = (
{
name = top_center_can;
pos = (268,690);
},
{
name = top_left_can;
pos = (95,690);
},
{
name = top_right_can;
pos = (441,690);
}
);
layerId = "7D3FB2DB-72C7-4646-AA25-FB3BBECA0225";
shapes = (
{
closed = 1;
nodes = (
(331,-13,o),
(407,136,o),
(411,387,c),
(396,387,l),
(396,0,l),
(485,0,l),
(485,690,l),
(395,690,l),
(393,237,o),
(330,67,o),
(229,67,cs),
(167,67,o),
(129,118,o),
(129,250,cs),
(129,276,o),
(132,321,o),
(138,354,c),
(53,354,l),
(45,317,o),
(43,273,o),
(43,239,cs),
(43,71,o),
(103,-13,o),
(209,-13,cs)
);
}
);
width = 545;
}
);
metricLeft = "heSayisi-canadian";
metricRight = "nunavuth-canadian";
note = uni15C2;
unicode = 5570;
},
{
color = 9;
glyphname = "haSayisi-canadian";
lastChange = "2023-01-13 15:55:21 +0000";
layers = (
{
layerId = "7D3FB2DB-72C7-4646-AA25-FB3BBECA0225";
shapes = (
{
closed = 1;
nodes = (
(441,-13,o),
(502,71,o),
(502,239,cs),
(502,273,o),
(499,317,o),
(492,354,c),
(407,354,l),
(412,321,o),
(415,276,o),
(415,250,cs),
(415,118,o),
(378,67,o),
(316,67,cs),
(214,67,o),
(152,237,o),
(150,690,c),
(60,690,l),
(60,0,l),
(149,0,l),
(149,387,l),
(134,387,l),
(139,136,o),
(213,-13,o),
(336,-13,cs)
);
}
);
width = 545;
}
);
metricLeft = "nunavuth-canadian";
metricRight = "=|heSayisi-canadian";
note = uni15C3;
unicode = 5571;
},
{
color = 9;
glyphname = "ghuCarrier-canadian";
lastChange = "2023-01-13 15:55:21 +0000";
layers = (
{
layerId = "7D3FB2DB-72C7-4646-AA25-FB3BBECA0225";
shapes = (
{
closed = 1;
nodes = (
(303,0,l),
(552,665,l),
(552,690,l),
(478,690,l),
(397,466,l),
(443,481,l),
(134,481,l),
(182,464,l),
(99,690,l),
(25,690,l),
(25,665,l),
(273,0,l)
);
},
{
closed = 1;
nodes = (
(422,413,l),
(386,425,l),
(274,113,l),
(303,113,l),
(191,427,l),
(156,413,l)
);
}
);
width = 577;
}
);
metricLeft = "e-canadian";
metricRight = "e-canadian";
note = uni15C4;
unicode = 5572;
},
{
color = 9;
glyphname = "ghoCarrier-canadian";
lastChange = "2023-01-13 15:55:21 +0000";
layers = (
{
layerId = "7D3FB2DB-72C7-4646-AA25-FB3BBECA0225";
shapes = (
{
closed = 1;
nodes = (
(99,0,l),
(182,226,l),
(134,209,l),
(443,209,l),
(397,224,l),
(478,0,l),
(552,0,l),
(552,25,l),
(303,690,l),
(273,690,l),
(25,25,l),
(25,0,l)
);
},
{
closed = 1;
nodes = (
(303,577,l),
(274,577,l),
(386,265,l),
(422,276,l),
(156,276,l),
(191,263,l)
);
}
);
width = 577;
}
);
metricLeft = "e-canadian";
metricRight = "e-canadian";
note = uni15C5;
unicode = 5573;
},
{
color = 9;
glyphname = "gheCarrier-canadian";
lastChange = "2023-01-13 15:55:21 +0000";
layers = (
{
anchors = (
{
name = middle_center_can;
pos = (61,345);
}
);
layerId = "7D3FB2DB-72C7-4646-AA25-FB3BBECA0225";
shapes = (
{
closed = 1;
nodes = (
(64,0,l),
(497,328,l),
(497,361,l),
(64,690,l),
(41,690,l),
(41,616,l),
(168,519,l),
(160,562,l),
(160,125,l),
(168,170,l),
(41,72,l),
(41,0,l)
);
},
{
closed = 1;
nodes = (
(224,526,l),
(208,498,l),
(438,322,l),
(438,368,l),
(208,193,l),
(224,164,l)
);
}
);
width = 526;
}
);
metricLeft = "po-canadian";
metricRight = "o-canadian";
note = uni15C6;
unicode = 5574;
},
{
color = 9;
glyphname = "ghaCarrier-canadian";
lastChange = "2023-01-13 15:55:24 +0000";
layers = (
{
layerId = "7D3FB2DB-72C7-4646-AA25-FB3BBECA0225";
shapes = (
{
closed = 1;
nodes = (
(486,0,l),
(486,72,l),
(359,170,l),
(367,132,l),
(367,557,l),
(359,519,l),
(486,616,l),
(486,690,l),
(463,690,l),
(29,361,l),
(29,328,l),
(463,0,l)
);
},
{
closed = 1;
nodes = (
(319,191,l),
(89,368,l),
(89,321,l),
(319,497,l),
(303,511,l),
(303,184,l)
);
}
);
width = 527;
}
);
metricLeft = "=|o-canadian";
metricRight = "=|po-canadian";
note = uni15C9;
unicode = 5577;
},
{
color = 9;
glyphname = "ruCarrier-canadian";
lastChange = "2023-01-13 15:55:21 +0000";
layers = (
{
layerId = "7D3FB2DB-72C7-4646-AA25-FB3BBECA0225";
shapes = (
{
closed = 1;
nodes = (
(303,0,l),
(552,665,l),
(552,690,l),
(479,690,l),
(445,598,l),
(469,612,l),
(108,612,l),
(134,598,l),
(100,690,l),
(25,690,l),
(25,665,l),
(273,0,l)
);
},
{
closed = 1;
nodes = (
(449,545,l),
(437,562,l),
(276,114,l),
(305,114,l),
(145,562,l),
(128,545,l)
);
}
);
width = 577;
}
);
metricLeft = "e-canadian";
metricRight = "e-canadian";
note = uni15CA;
unicode = 5578;
},
{
color = 9;
glyphname = "roCarrier-canadian";
lastChange = "2023-01-13 15:55:21 +0000";
layers = (
{
layerId = "7D3FB2DB-72C7-4646-AA25-FB3BBECA0225";
shapes = (
{
closed = 1;
nodes = (
(100,0,l),
(133,92,l),
(109,77,l),
(469,77,l),
(444,92,l),
(478,0,l),
(552,0,l),
(552,25,l),
(303,690,l),
(273,690,l),
(25,25,l),
(25,0,l)
);
},
{
closed = 1;
nodes = (
(303,577,l),
(273,577,l),
(435,128,l),
(451,145,l),
(129,145,l),
(143,128,l)
);
}
);
width = 577;
}
);
metricLeft = "e-canadian";
metricRight = "e-canadian";
note = uni15CB;
unicode = 5579;
},
{
color = 9;
glyphname = "reCarrier-canadian";
lastChange = "2023-01-13 15:55:21 +0000";
layers = (
{
layerId = "7D3FB2DB-72C7-4646-AA25-FB3BBECA0225";
shapes = (
{
closed = 1;
nodes = (
(64,0,l),
(497,328,l),
(497,361,l),
(64,690,l),
(41,690,l),
(41,614,l),
(104,565,l),
(94,591,l),
(94,98,l),
(104,125,l),
(41,74,l),
(41,0,l)
);
},
{
closed = 1;
nodes = (
(158,570,l),
(147,540,l),
(432,321,l),
(432,368,l),
(147,150,l),
(158,118,l)
);
}
);
width = 526;
}
);
metricLeft = "po-canadian";
metricRight = "o-canadian";
note = uni15CC;
unicode = 5580;
},
{
color = 9;
glyphname = "reeCarrier-canadian";
lastChange = "2023-01-13 15:55:21 +0000";
layers = (
{
layerId = "7D3FB2DB-72C7-4646-AA25-FB3BBECA0225";
shapes = (
{
closed = 1;
nodes = (
(64,0,l),
(497,328,l),
(497,361,l),
(64,690,l),
(41,690,l),
(41,625,l),
(104,575,l),
(94,592,l),
(94,97,l),
(104,114,l),
(41,65,l),
(41,0,l)
);
},
{
closed = 1;
nodes = (
(151,570,l),
(141,554,l),
(446,321,l),
(446,368,l),
(140,133,l),
(151,120,l)
);
},
{
closed = 1;
nodes = (
(233,263,l),
(233,428,l),
(199,428,l),
(199,263,l)
);
}
);
width = 526;
}
);
metricLeft = "po-canadian";
metricRight = "o-canadian";
note = uni15CD;
unicode = 5581;
},
{
color = 9;
glyphname = "riCarrier-canadian";
lastChange = "2023-01-13 15:55:21 +0000";
layers = (
{
layerId = "7D3FB2DB-72C7-4646-AA25-FB3BBECA0225";
shapes = (
{
closed = 1;
nodes = (
(64,0,l),
(497,328,l),
(497,361,l),
(64,690,l),
(41,690,l),
(41,625,l),
(104,575,l),
(94,592,l),
(94,97,l),
(104,114,l),
(41,65,l),
(41,0,l)
);
},
{
closed = 1;
nodes = (
(251,307,o),
(269,324,o),
(269,345,cs),
(269,366,o),
(251,383,o),
(230,383,cs),
(211,383,o),
(193,366,o),
(193,345,cs),
(193,324,o),
(211,307,o),
(230,307,cs)
);
},
{
closed = 1;
nodes = (
(151,570,l),
(141,554,l),
(446,321,l),
(446,368,l),
(140,133,l),
(151,120,l)
);
}
);
width = 526;
}
);
metricLeft = "po-canadian";
metricRight = "o-canadian";
note = uni15CE;
unicode = 5582;
},
{
color = 9;
glyphname = "raCarrier-canadian";
lastChange = "2023-01-13 15:55:24 +0000";
layers = (
{
layerId = "7D3FB2DB-72C7-4646-AA25-FB3BBECA0225";
shapes = (
{
closed = 1;
nodes = (
(486,0,l),
(486,75,l),
(422,125,l),
(433,78,l),
(433,612,l),
(422,565,l),
(486,615,l),
(486,690,l),
(463,690,l),
(29,361,l),
(29,328,l),
(463,0,l)
);
},
{
closed = 1;
nodes = (
(380,541,l),
(368,572,l),
(368,119,l),
(380,150,l),
(95,369,l),
(95,322,l)
);
}
);
width = 527;
}
);
metricLeft = "=|o-canadian";
metricRight = "=|po-canadian";
note = uni15CF;
unicode = 5583;
},
{
color = 9;
glyphname = "wuCarrier-canadian";
lastChange = "2023-01-13 15:55:21 +0000";
layers = (
{
layerId = "7D3FB2DB-72C7-4646-AA25-FB3BBECA0225";
shapes = (
{
closed = 1;
nodes = (
(307,0,l),
(560,665,l),
(560,690,l),
(492,690,l),
(310,172,l),
(329,172,l),
(329,690,l),
(262,690,l),
(262,172,l),
(281,172,l),
(98,690,l),
(25,690,l),
(25,665,l),
(277,0,l)
);
}
);
width = 585;
}
);
metricLeft = "e-canadian";
metricRight = "e-canadian";
note = uni15D0;
unicode = 5584;
},
{
color = 9;
glyphname = "woCarrier-canadian";
lastChange = "2023-01-13 15:55:21 +0000";
layers = (
{
layerId = "7D3FB2DB-72C7-4646-AA25-FB3BBECA0225";
shapes = (
{
closed = 1;
nodes = (
(97,0,l),
(279,518,l),
(259,518,l),
(259,0,l),
(327,0,l),
(327,518,l),
(307,518,l),
(491,0,l),
(560,0,l),
(560,25,l),
(307,690,l),
(277,690,l),
(25,25,l),
(25,0,l)
);
}
);
width = 585;
}
);
metricLeft = "e-canadian";
metricRight = "e-canadian";
note = uni15D1;
unicode = 5585;
},
{
color = 9;
glyphname = "weCarrier-canadian";
lastChange = "2023-01-13 15:55:21 +0000";
layers = (
{
layerId = "7D3FB2DB-72C7-4646-AA25-FB3BBECA0225";
shapes = (
{
closed = 1;
nodes = (
(81,0,l),
(515,328,l),
(515,361,l),
(81,690,l),
(58,690,l),
(58,616,l),
(390,364,l),
(390,380,l),
(63,380,l),
(63,310,l),
(391,310,l),
(391,325,l),
(58,72,l),
(58,0,l)
);
}
);
width = 544;
}
);
metricRight = "o-canadian";
note = uni15D2;
unicode = 5586;
},
{
color = 9;
glyphname = "weeCarrier-canadian";
lastChange = "2023-01-13 15:55:21 +0000";
layers = (
{
layerId = "7D3FB2DB-72C7-4646-AA25-FB3BBECA0225";
shapes = (
{
closed = 1;
nodes = (
(81,0,l),
(515,328,l),
(515,361,l),
(81,690,l),
(58,690,l),
(58,621,l),
(419,351,l),
(426,374,l),
(176,374,l),
(176,444,l),
(127,444,l),
(127,374,l),
(58,374,l),
(58,317,l),
(127,317,l),
(127,246,l),
(176,246,l),
(176,317,l),
(427,317,l),
(420,339,l),
(58,68,l),
(58,0,l)
);
}
);
width = 544;
}
);
metricLeft = "weCarrier-canadian";
metricRight = "o-canadian";
note = uni15D3;
unicode = 5587;
},
{
color = 9;
glyphname = "wiCarrier-canadian";
lastChange = "2023-01-13 15:55:21 +0000";
layers = (
{
layerId = "7D3FB2DB-72C7-4646-AA25-FB3BBECA0225";
shapes = (
{
closed = 1;
nodes = (
(81,0,l),
(515,328,l),
(515,361,l),
(81,690,l),
(58,690,l),
(58,621,l),
(419,351,l),
(426,374,l),
(229,374,l),
(219,395,o),
(198,410,o),
(173,410,cs),
(148,410,o),
(126,395,o),
(116,374,c),
(58,374,l),
(58,317,l),
(116,317,l),
(126,296,o),
(148,280,o),
(173,280,cs),
(197,280,o),
(219,296,o),
(229,317,c),
(427,317,l),
(420,339,l),
(58,68,l),
(58,0,l)
);
}
);
width = 544;
}
);
metricLeft = "weCarrier-canadian";
metricRight = "o-canadian";
note = uni15D4;
unicode = 5588;
},
{
color = 9;
glyphname = "waCarrier-canadian";
lastChange = "2023-01-13 15:55:21 +0000";
layers = (
{
layerId = "7D3FB2DB-72C7-4646-AA25-FB3BBECA0225";
shapes = (
{
closed = 1;
nodes = (
(486,0,l),
(486,73,l),
(154,325,l),
(154,310,l),
(482,310,l),
(482,380,l),
(154,380,l),
(154,364,l),
(486,616,l),
(486,690,l),
(464,690,l),
(29,361,l),
(29,328,l),
(463,0,l)
);
}
);
width = 544;
}
);
metricLeft = "=|o-canadian";
metricRight = "=|weCarrier-canadian";
note = uni15D5;
unicode = 5589;
},
{
color = 9;
glyphname = "hwuCarrier-canadian";
lastChange = "2023-01-13 15:55:21 +0000";
layers = (
{
layerId = "7D3FB2DB-72C7-4646-AA25-FB3BBECA0225";
shapes = (
{
closed = 1;
nodes = (
(307,0,l),
(560,665,l),
(560,690,l),
(496,690,l),
(420,483,l),
(444,492,l),
(321,492,l),
(321,690,l),
(266,690,l),
(266,492,l),
(138,492,l),
(166,484,l),
(92,690,l),
(25,690,l),
(25,665,l),
(277,0,l)
);
},
{
closed = 1;
nodes = (
(270,441,l),
(270,141,l),
(284,143,l),
(176,449,l),
(145,441,l)
);
},
{
closed = 1;
nodes = (
(317,441,l),
(439,441,l),
(412,449,l),
(303,145,l),
(317,142,l)
);
}
);
width = 585;
}
);
metricLeft = "e-canadian";
metricRight = "e-canadian";
note = uni15D6;
unicode = 5590;
},
{
color = 9;
glyphname = "hwoCarrier-canadian";
lastChange = "2023-01-13 15:55:21 +0000";
layers = (
{
layerId = "7D3FB2DB-72C7-4646-AA25-FB3BBECA0225";
shapes = (
{
closed = 1;
nodes = (
(92,0,l),
(167,207,l),
(144,194,l),
(265,194,l),
(265,0,l),
(320,0,l),
(320,194,l),
(451,194,l),
(420,206,l),
(495,0,l),
(560,0,l),
(560,25,l),
(307,690,l),
(277,690,l),
(25,25,l),
(25,0,l)
);
},
{
closed = 1;
nodes = (
(282,543,l),
(269,546,l),
(269,252,l),
(162,252,l),
(175,241,l)
);
},
{
closed = 1;
nodes = (
(432,252,l),
(316,252,l),
(316,547,l),
(302,545,l),
(411,241,l)
);
}
);
width = 585;
}
);
metricLeft = "e-canadian";
metricRight = "e-canadian";
note = uni15D7;
unicode = 5591;
},
{
color = 9;
glyphname = "hweCarrier-canadian";
lastChange = "2023-01-13 15:55:21 +0000";
layers = (
{
layerId = "7D3FB2DB-72C7-4646-AA25-FB3BBECA0225";
shapes = (
{
closed = 1;
nodes = (
(81,0,l),
(515,328,l),
(515,361,l),
(81,690,l),
(58,690,l),
(58,621,l),
(173,535,l),
(173,375,l),
(58,375,l),
(58,315,l),
(173,315,l),
(173,154,l),
(58,67,l),
(58,0,l)
);
},
{
closed = 1;
nodes = (
(220,321,l),
(406,321,l),
(220,181,l)
);
},
{
closed = 1;
nodes = (
(220,508,l),
(405,370,l),
(220,370,l)
);
}
);
width = 544;
}
);
metricLeft = "weCarrier-canadian";
metricRight = "o-canadian";
note = uni15D8;
unicode = 5592;
},
{
color = 9;
glyphname = "hweeCarrier-canadian";
lastChange = "2023-01-13 15:55:21 +0000";
layers = (
{
layerId = "7D3FB2DB-72C7-4646-AA25-FB3BBECA0225";
shapes = (
{
closed = 1;
nodes = (
(81,0,l),
(515,328,l),
(515,361,l),
(81,690,l),
(58,690,l),
(58,625,l),
(195,524,l),
(195,371,l),
(153,371,l),
(153,443,l),
(111,443,l),
(111,371,l),
(58,371,l),
(58,320,l),
(111,320,l),
(111,247,l),
(153,247,l),
(153,320,l),
(195,320,l),
(195,166,l),
(58,63,l),
(58,0,l)
);
},
{
closed = 1;
nodes = (
(239,324,l),
(409,324,l),
(239,191,l)
);
},
{
closed = 1;
nodes = (
(239,497,l),
(408,367,l),
(239,367,l)
);
}
);
width = 544;
}
);
metricLeft = "weCarrier-canadian";
metricRight = "o-canadian";
note = uni15D9;
unicode = 5593;
},
{
color = 9;
glyphname = "hwiCarrier-canadian";
lastChange = "2023-01-13 15:55:21 +0000";
layers = (
{
layerId = "7D3FB2DB-72C7-4646-AA25-FB3BBECA0225";
shapes = (
{
closed = 1;
nodes = (
(81,0,l),
(515,328,l),
(515,361,l),
(81,690,l),
(58,690,l),
(58,625,l),
(195,524,l),
(195,367,l),
(178,367,l),
(170,386,o),
(153,400,o),
(131,400,cs),
(110,400,o),
(93,386,o),
(85,367,c),
(58,367,l),
(58,324,l),
(84,324,l),
(92,304,o),
(110,291,o),
(131,291,cs),
(152,291,o),
(170,304,o),
(178,324,c),
(195,324,l),
(195,166,l),
(58,63,l),
(58,0,l)
);
},
{
closed = 1;
nodes = (
(239,324,l),
(409,324,l),
(239,191,l)
);
},
{
closed = 1;
nodes = (
(239,497,l),
(408,367,l),
(239,367,l)
);
}
);
width = 544;
}
);
metricLeft = "weCarrier-canadian";
metricRight = "o-canadian";
note = uni15DA;
unicode = 5594;
},
{
color = 9;
glyphname = "hwaCarrier-canadian";
lastChange = "2023-01-13 15:55:21 +0000";
layers = (
{
layerId = "7D3FB2DB-72C7-4646-AA25-FB3BBECA0225";
shapes = (
{
closed = 1;
nodes = (
(486,0,l),
(486,68,l),
(372,154,l),
(372,315,l),
(486,315,l),
(486,375,l),
(372,375,l),
(372,535,l),
(486,622,l),
(486,690,l),
(464,690,l),
(29,361,l),
(29,328,l),
(463,0,l)
);
},
{
closed = 1;
nodes = (
(139,320,l),
(324,320,l),
(324,181,l)
);
},
{
closed = 1;
nodes = (
(324,508,l),
(324,369,l),
(139,369,l)
);
}
);
width = 544;
}
);
metricLeft = "=|o-canadian";
metricRight = "=|weCarrier-canadian";
note = uni15DB;
unicode = 5595;
},
{
color = 9;
glyphname = "thuCarrier-canadian";
lastChange = "2023-01-13 15:55:21 +0000";
layers = (
{
layerId = "7D3FB2DB-72C7-4646-AA25-FB3BBECA0225";
shapes = (
{
closed = 1;
nodes = (
(440,-13,o),
(526,78,o),
(526,253,cs),
(526,690,l),
(56,690,l),
(56,251,ls),
(56,78,o),
(145,-13,o),
(291,-13,cs)
);
},
{
closed = 1;
nodes = (
(146,609,l),
(436,609,l),
(436,253,ls),
(436,127,o),
(384,71,o),
(291,71,cs),
(200,71,o),
(146,129,o),
(146,253,cs)
);
}
);
width = 582;
}
);
metricLeft = "te-canadian";
metricRight = "te-canadian";
note = uni15DC;
unicode = 5596;
},
{
color = 9;
glyphname = "thoCarrier-canadian";
lastChange = "2023-01-13 15:55:21 +0000";
layers = (
{
layerId = "7D3FB2DB-72C7-4646-AA25-FB3BBECA0225";
shapes = (
{
closed = 1;
nodes = (
(526,0,l),
(526,439,ls),
(526,611,o),
(437,702,o),
(291,702,cs),
(142,702,o),
(56,611,o),
(56,437,cs),
(56,0,l)
);
},
{
closed = 1;
nodes = (
(146,437,ls),
(146,562,o),
(198,618,o),
(291,618,cs),
(382,618,o),
(436,560,o),
(436,437,cs),
(436,81,l),
(146,81,l)
);
}
);
width = 582;
}
);
metricLeft = "te-canadian";
metricRight = "te-canadian";
note = uni15DD;
unicode = 5597;
},
{
color = 9;
glyphname = "theCarrier-canadian";
lastChange = "2023-01-13 15:55:21 +0000";
layers = (
{
anchors = (
{
name = middle_center_can;
pos = (284,345);
}
);
layerId = "7D3FB2DB-72C7-4646-AA25-FB3BBECA0225";
shapes = (
{
closed = 1;
nodes = (
(217,0,ls),
(416,0,o),
(519,120,o),
(519,346,cs),
(519,572,o),
(416,690,o),
(214,690,cs),
(60,690,l),
(60,0,l)
);
},
{
closed = 1;
nodes = (
(150,637,l),
(123,610,l),
(214,610,ls),
(363,610,o),
(429,526,o),
(429,346,cs),
(429,167,o),
(363,80,o),
(217,80,cs),
(123,80,l),
(150,53,l)
);
}
);
width = 568;
}
);
metricLeft = "nunavuth-canadian";
metricRight = "to-canadian";
note = uni15DE;
unicode = 5598;
},
{
color = 9;
glyphname = "thaCarrier-canadian";
lastChange = "2023-01-13 15:55:21 +0000";
layers = (
{
layerId = "7D3FB2DB-72C7-4646-AA25-FB3BBECA0225";
shapes = (
{
closed = 1;
nodes = (
(508,0,l),
(508,690,l),
(351,690,ls),
(152,690,o),
(49,570,o),
(49,344,cs),
(49,118,o),
(152,0,o),
(354,0,cs)
);
},
{
closed = 1;
nodes = (
(139,523,o),
(204,610,o),
(350,610,cs),
(445,610,l),
(418,637,l),
(418,53,l),
(445,80,l),
(353,80,ls),
(204,80,o),
(139,164,o),
(139,344,cs)
);
}
);
width = 568;
}
);
metricLeft = "=|theCarrier-canadian";
metricRight = "nunavuth-canadian";
note = uni15E1;
unicode = 5601;
},
{
color = 9;
glyphname = "ttuCarrier-canadian";
lastChange = "2023-01-13 15:55:21 +0000";
layers = (
{
layerId = "7D3FB2DB-72C7-4646-AA25-FB3BBECA0225";
shapes = (
{
closed = 1;
nodes = (
(440,-13,o),
(526,78,o),
(526,253,cs),
(526,690,l),
(496,690,l),
(279,506,l),
(303,506,l),
(87,690,l),
(56,690,l),
(56,251,ls),
(56,78,o),
(145,-13,o),
(291,-13,cs)
);
},
{
closed = 1;
nodes = (
(200,71,o),
(146,129,o),
(146,253,cs),
(146,619,l),
(67,615,l),
(282,433,l),
(300,433,l),
(516,615,l),
(436,619,l),
(436,253,ls),
(436,127,o),
(384,71,o),
(291,71,cs)
);
}
);
width = 582;
}
);
metricLeft = "te-canadian";
metricRight = "te-canadian";
note = uni15E2;
unicode = 5602;
},
{
color = 9;
glyphname = "ttoCarrier-canadian";
lastChange = "2023-01-13 15:55:21 +0000";
layers = (
{
layerId = "7D3FB2DB-72C7-4646-AA25-FB3BBECA0225";
shapes = (
{
closed = 1;
nodes = (
(86,0,l),
(302,184,l),
(278,184,l),
(495,0,l),
(526,0,l),
(526,439,ls),
(526,611,o),
(437,702,o),
(291,702,cs),
(142,702,o),
(56,611,o),
(56,437,cs),
(56,0,l)
);
},
{
closed = 1;
nodes = (
(382,618,o),
(436,560,o),
(436,437,cs),
(436,71,l),
(515,74,l),
(299,257,l),
(281,257,l),
(66,74,l),
(146,71,l),
(146,437,ls),
(146,563,o),
(198,618,o),
(291,618,cs)
);
}
);
width = 582;
}
);
metricLeft = "te-canadian";
metricRight = "te-canadian";
note = uni15E3;
unicode = 5603;
},
{
color = 9;
glyphname = "tteCarrier-canadian";
lastChange = "2023-01-13 15:55:24 +0000";
layers = (
{
anchors = (
{
name = middle_center_can;
pos = (327,345);
}
);
layerId = "7D3FB2DB-72C7-4646-AA25-FB3BBECA0225";
shapes = (
{
closed = 1;
nodes = (
(227,0,ls),
(426,0,o),
(528,120,o),
(528,346,cs),
(528,572,o),
(426,690,o),
(224,690,cs),
(55,690,l),
(55,665,l),
(155,331,l),
(155,358,l),
(55,25,l),
(55,0,l)
);
},
{
closed = 1;
nodes = (
(237,335,l),
(237,352,l),
(137,682,l),
(137,610,l),
(225,610,ls),
(374,610,o),
(439,526,o),
(439,346,cs),
(439,167,o),
(374,80,o),
(228,80,cs),
(137,80,l),
(137,5,l)
);
}
);
width = 577;
}
);
metricRight = "theCarrier-canadian";
note = uni15E4;
unicode = 5604;
},
{
color = 9;
glyphname = "ttaCarrier-canadian";
lastChange = "2023-01-13 15:55:21 +0000";
layers = (
{
layerId = "7D3FB2DB-72C7-4646-AA25-FB3BBECA0225";
shapes = (
{
closed = 1;
nodes = (
(523,0,l),
(523,25,l),
(423,358,l),
(423,331,l),
(523,665,l),
(523,690,l),
(351,690,ls),
(152,690,o),
(49,570,o),
(49,344,cs),
(49,118,o),
(152,0,o),
(354,0,cs)
);
},
{
closed = 1;
nodes = (
(440,80,l),
(353,80,ls),
(204,80,o),
(139,164,o),
(139,344,cs),
(139,523,o),
(204,610,o),
(350,610,cs),
(440,610,l),
(440,685,l),
(341,355,l),
(341,338,l),
(440,8,l)
);
}
);
width = 578;
}
);
metricLeft = "=|theCarrier-canadian";
metricRight = "=|tteCarrier-canadian";
note = uni15E7;
unicode = 5607;
},
{
color = 9;
glyphname = "puCarrier-canadian";
lastChange = "2023-01-13 15:55:21 +0000";
layers = (
{
layerId = "7D3FB2DB-72C7-4646-AA25-FB3BBECA0225";
shapes = (
{
closed = 1;
nodes = (
(440,-13,o),
(526,78,o),
(526,253,cs),
(526,690,l),
(435,690,l),
(435,527,l),
(147,527,l),
(147,690,l),
(56,690,l),
(56,251,ls),
(56,78,o),
(145,-13,o),
(291,-13,cs)
);
},
{
closed = 1;
nodes = (
(200,71,o),
(147,129,o),
(147,253,cs),
(147,447,l),
(435,447,l),
(435,253,ls),
(435,127,o),
(384,71,o),
(291,71,cs)
);
}
);
width = 582;
}
);
metricLeft = "te-canadian";
metricRight = "te-canadian";
note = uni15E8;
unicode = 5608;
},
{
color = 9;
glyphname = "poCarrier-canadian";
lastChange = "2023-01-13 15:55:21 +0000";
layers = (
{
layerId = "7D3FB2DB-72C7-4646-AA25-FB3BBECA0225";
shapes = (
{
closed = 1;
nodes = (
(147,0,l),
(147,162,l),
(435,162,l),
(435,0,l),
(526,0,l),
(526,439,ls),
(526,611,o),
(438,702,o),
(291,702,cs),
(146,702,o),
(56,611,o),
(56,437,cs),
(56,0,l)
);
},
{
closed = 1;
nodes = (
(147,437,ls),
(147,562,o),
(198,618,o),
(291,618,cs),
(382,618,o),
(435,560,o),
(435,437,cs),
(435,242,l),
(147,242,l)
);
}
);
width = 582;
}
);
metricLeft = "te-canadian";
metricRight = "te-canadian";
note = uni15E9;
unicode = 5609;
},
{
color = 9;
glyphname = "peCarrier-canadian";
lastChange = "2023-01-13 15:55:24 +0000";
layers = (
{
anchors = (
{
name = middle_center_can;
pos = (316,345);
}
);
layerId = "7D3FB2DB-72C7-4646-AA25-FB3BBECA0225";
shapes = (
{
closed = 1;
nodes = (
(225,0,ls),
(424,0,o),
(526,120,o),
(526,346,cs),
(526,572,o),
(424,690,o),
(221,690,cs),
(53,690,l),
(53,610,l),
(122,610,l),
(122,80,l),
(53,80,l),
(53,0,l)
);
},
{
closed = 1;
nodes = (
(211,637,l),
(172,610,l),
(222,610,ls),
(371,610,o),
(436,526,o),
(436,346,cs),
(436,167,o),
(371,80,o),
(225,80,cs),
(172,80,l),
(211,53,l)
);
}
);
width = 575;
}
);
metricRight = "theCarrier-canadian";
note = uni15EA;
unicode = 5610;
},
{
color = 9;
glyphname = "paCarrier-canadian";
lastChange = "2023-01-13 15:55:21 +0000";
layers = (
{
layerId = "7D3FB2DB-72C7-4646-AA25-FB3BBECA0225";
shapes = (
{
closed = 1;
nodes = (
(523,0,l),
(523,80,l),
(454,80,l),
(454,610,l),
(523,610,l),
(523,690,l),
(354,690,ls),
(152,690,o),
(49,572,o),
(49,346,cs),
(49,120,o),
(152,0,o),
(351,0,cs)
);
},
{
closed = 1;
nodes = (
(403,80,l),
(350,80,ls),
(204,80,o),
(139,167,o),
(139,346,cs),
(139,526,o),
(204,610,o),
(353,610,cs),
(403,610,l),
(364,637,l),
(364,53,l)
);
}
);
width = 576;
}
);
metricLeft = "=|theCarrier-canadian";
metricRight = "=|peCarrier-canadian";
note = uni15ED;
unicode = 5613;
},
{
color = 6;
glyphname = "pCarrier-canadian";
lastChange = "2023-01-13 15:55:21 +0000";
layers = (
{
layerId = "7D3FB2DB-72C7-4646-AA25-FB3BBECA0225";
shapes = (
{
closed = 1;
nodes = (
(309,183,l),
(309,242,l),
(210,242,l),
(210,527,l),
(149,527,l),
(149,242,l),
(49,242,l),
(49,183,l)
);
}
);
width = 358;
}
);
metricLeft = "shorthorizontalstrokeFinal-canadian";
metricRight = "shorthorizontalstrokeFinal-canadian";
note = uni15EE;
unicode = 5614;
},
{
color = 9;
glyphname = "guCarrier-canadian";
lastChange = "2023-01-13 15:55:21 +0000";
layers = (
{
anchors = (
{
name = top_center_can;
pos = (343,690);
}
);
layerId = "7D3FB2DB-72C7-4646-AA25-FB3BBECA0225";
shapes = (
{
closed = 1;
nodes = (
(290,-13,o),
(341,30,o),
(362,116,c),
(324,116,l),
(349,29,o),
(399,-13,o),
(470,-13,cs),
(568,-13,o),
(631,55,o),
(631,181,cs),
(631,690,l),
(544,690,l),
(544,185,ls),
(544,106,o),
(516,70,o),
(466,70,cs),
(415,70,o),
(385,107,o),
(385,185,cs),
(385,690,l),
(301,690,l),
(301,185,ls),
(301,106,o),
(271,70,o),
(221,70,cs),
(169,70,o),
(141,106,o),
(141,185,cs),
(141,690,l),
(55,690,l),
(55,183,ls),
(55,55,o),
(119,-13,o),
(215,-13,cs)
);
}
);
width = 686;
}
);
metricRight = "=|";
note = uni15EF;
unicode = 5615;
},
{
color = 9;
glyphname = "goCarrier-canadian";
lastChange = "2023-01-13 15:55:21 +0000";
layers = (
{
layerId = "7D3FB2DB-72C7-4646-AA25-FB3BBECA0225";
shapes = (
{
closed = 1;
nodes = (
(141,0,l),
(141,504,ls),
(141,583,o),
(169,620,o),
(220,620,cs),
(270,620,o),
(300,582,o),
(300,504,cs),
(300,0,l),
(384,0,l),
(384,504,ls),
(384,583,o),
(413,620,o),
(464,620,cs),
(516,620,o),
(544,583,o),
(544,504,cs),
(544,0,l),
(631,0,l),
(631,507,ls),
(631,635,o),
(566,702,o),
(469,702,cs),
(396,702,o),
(345,660,o),
(323,574,c),
(362,574,l),
(337,661,o),
(286,702,o),
(214,702,cs),
(118,702,o),
(55,635,o),
(55,508,cs),
(55,0,l)
);
}
);
width = 686;
}
);
metricLeft = "guCarrier-canadian";
metricRight = "guCarrier-canadian";
note = uni15F0;
unicode = 5616;
},
{
color = 9;
glyphname = "geCarrier-canadian";
lastChange = "2023-01-13 15:55:21 +0000";
layers = (
{
anchors = (
{
name = top_center_can;
pos = (290,690);
}
);
layerId = "7D3FB2DB-72C7-4646-AA25-FB3BBECA0225";
shapes = (
{
closed = 1;
nodes = (
(322,0,ls),
(445,0,o),
(519,66,o),
(519,185,cs),
(519,268,o),
(473,333,o),
(403,359,c),
(403,331,l),
(475,354,o),
(519,416,o),
(519,502,cs),
(519,623,o),
(444,690,o),
(322,690,cs),
(60,690,l),
(60,614,l),
(305,614,ls),
(383,614,o),
(429,579,o),
(429,499,cs),
(429,421,o),
(383,383,o),
(306,383,cs),
(60,383,l),
(60,308,l),
(307,308,ls),
(382,308,o),
(429,269,o),
(429,189,cs),
(429,111,o),
(383,75,o),
(305,75,cs),
(60,75,l),
(60,0,l)
);
}
);
width = 576;
}
);
metricLeft = "nunavuth-canadian";
note = uni15F1;
unicode = 5617;
},
{
color = 9;
glyphname = "geeCarrier-canadian";
lastChange = "2023-01-13 15:55:21 +0000";
layers = (
{
layerId = "7D3FB2DB-72C7-4646-AA25-FB3BBECA0225";
shapes = (
{
closed = 1;
nodes = (
(322,0,ls),
(445,0,o),
(519,66,o),
(519,185,cs),
(519,268,o),
(473,333,o),
(403,359,c),
(403,331,l),
(475,354,o),
(519,416,o),
(519,502,cs),
(519,623,o),
(444,690,o),
(322,690,cs),
(60,690,l),
(60,614,l),
(305,614,ls),
(383,614,o),
(429,579,o),
(429,499,cs),
(429,421,o),
(383,382,o),
(306,382,cs),
(276,382,l),
(276,463,l),
(226,463,l),
(226,382,l),
(60,382,l),
(60,309,l),
(226,309,l),
(226,229,l),
(276,229,l),
(276,309,l),
(307,309,ls),
(382,309,o),
(429,269,o),
(429,189,cs),
(429,111,o),
(383,75,o),
(305,75,cs),
(60,75,l),
(60,0,l)
);
}
);
width = 576;
}
);
metricLeft = "geCarrier-canadian";
metricRight = "geCarrier-canadian";
note = uni15F2;
unicode = 5618;
},
{
color = 9;
glyphname = "giCarrier-canadian";
lastChange = "2023-01-13 15:55:21 +0000";
layers = (
{
layerId = "7D3FB2DB-72C7-4646-AA25-FB3BBECA0225";
shapes = (
{
closed = 1;
nodes = (
(322,0,ls),
(445,0,o),
(519,66,o),
(519,185,cs),
(519,268,o),
(473,333,o),
(403,358,c),
(403,331,l),
(475,355,o),
(519,416,o),
(519,502,cs),
(519,623,o),
(444,690,o),
(322,690,cs),
(60,690,l),
(60,614,l),
(305,614,ls),
(383,614,o),
(429,579,o),
(429,499,cs),
(429,421,o),
(383,382,o),
(314,382,cs),
(291,382,l),
(322,370,l),
(312,398,o),
(287,417,o),
(256,417,cs),
(230,417,o),
(208,403,o),
(196,382,c),
(60,382,l),
(60,309,l),
(196,309,l),
(207,287,o),
(230,272,o),
(256,272,cs),
(287,272,o),
(312,293,o),
(322,321,c),
(291,309,l),
(315,309,ls),
(382,309,o),
(429,269,o),
(429,189,cs),
(429,111,o),
(383,75,o),
(305,75,cs),
(60,75,l),
(60,0,l)
);
}
);
width = 576;
}
);
metricLeft = "geCarrier-canadian";
metricRight = "geCarrier-canadian";
note = uni15F3;
unicode = 5619;
},
{
color = 9;
glyphname = "gaCarrier-canadian";
lastChange = "2023-01-13 15:55:21 +0000";
layers = (
{
anchors = (
{
name = top_center_can;
pos = (301,690);
}
);
layerId = "7D3FB2DB-72C7-4646-AA25-FB3BBECA0225";
shapes = (
{
closed = 1;
nodes = (
(517,0,l),
(517,75,l),
(270,75,ls),
(194,75,o),
(147,111,o),
(147,189,cs),
(147,269,o),
(195,308,o),
(270,308,cs),
(517,308,l),
(517,383,l),
(270,383,ls),
(193,383,o),
(147,421,o),
(147,499,cs),
(147,579,o),
(193,614,o),
(270,614,cs),
(517,614,l),
(517,690,l),
(254,690,ls),
(132,690,o),
(57,623,o),
(57,502,cs),
(57,416,o),
(100,355,o),
(174,331,c),
(174,359,l),
(102,333,o),
(57,268,o),
(57,185,cs),
(57,66,o),
(130,0,o),
(254,0,cs)
);
}
);
width = 577;
}
);
metricLeft = "=|geCarrier-canadian";
metricRight = "=|geCarrier-canadian";
note = uni15F4;
unicode = 5620;
},
{
color = 9;
glyphname = "khuCarrier-canadian";
lastChange = "2023-01-13 15:55:21 +0000";
layers = (
{
layerId = "7D3FB2DB-72C7-4646-AA25-FB3BBECA0225";
shapes = (
{
closed = 1;
nodes = (
(291,-13,o),
(341,30,o),
(363,116,c),
(324,116,l),
(350,29,o),
(400,-13,o),
(471,-13,cs),
(568,-13,o),
(631,55,o),
(631,181,cs),
(631,690,l),
(55,690,l),
(55,183,ls),
(55,55,o),
(119,-13,o),
(215,-13,cs)
);
},
{
closed = 1;
nodes = (
(170,70,o),
(142,106,o),
(142,185,cs),
(142,611,l),
(302,611,l),
(302,185,ls),
(302,106,o),
(273,70,o),
(222,70,cs)
);
},
{
closed = 1;
nodes = (
(415,70,o),
(385,107,o),
(385,185,cs),
(385,611,l),
(544,611,l),
(544,185,ls),
(544,106,o),
(516,70,o),
(466,70,cs)
);
}
);
width = 686;
}
);
metricLeft = "guCarrier-canadian";
metricRight = "guCarrier-canadian";
note = uni15F5;
unicode = 5621;
},
{
color = 9;
glyphname = "khoCarrier-canadian";
lastChange = "2023-01-13 15:55:21 +0000";
layers = (
{
layerId = "7D3FB2DB-72C7-4646-AA25-FB3BBECA0225";
shapes = (
{
closed = 1;
nodes = (
(631,0,l),
(631,507,ls),
(631,635,o),
(566,702,o),
(469,702,cs),
(395,702,o),
(344,660,o),
(323,574,c),
(361,574,l),
(336,661,o),
(286,702,o),
(214,702,cs),
(117,702,o),
(55,635,o),
(55,508,cs),
(55,0,l)
);
},
{
closed = 1;
nodes = (
(141,504,ls),
(141,583,o),
(170,620,o),
(220,620,cs),
(270,620,o),
(300,582,o),
(300,504,cs),
(300,79,l),
(141,79,l)
);
},
{
closed = 1;
nodes = (
(383,504,ls),
(383,583,o),
(412,620,o),
(464,620,cs),
(515,620,o),
(544,583,o),
(544,504,cs),
(544,79,l),
(383,79,l)
);
}
);
width = 686;
}
);
metricLeft = "guCarrier-canadian";
metricRight = "guCarrier-canadian";
note = uni15F6;
unicode = 5622;
},
{
color = 9;
glyphname = "kheCarrier-canadian";
lastChange = "2023-01-13 15:55:21 +0000";
layers = (
{
layerId = "7D3FB2DB-72C7-4646-AA25-FB3BBECA0225";
shapes = (
{
closed = 1;
nodes = (
(326,0,ls),
(449,0,o),
(523,66,o),
(523,185,cs),
(523,268,o),
(477,333,o),
(406,359,c),
(406,331,l),
(479,354,o),
(523,416,o),
(523,502,cs),
(523,623,o),
(447,690,o),
(326,690,cs),
(60,690,l),
(60,0,l)
);
},
{
closed = 1;
nodes = (
(149,308,l),
(310,308,ls),
(384,308,o),
(432,269,o),
(432,189,cs),
(432,111,o),
(385,74,o),
(309,74,cs),
(149,74,l)
);
},
{
closed = 1;
nodes = (
(149,615,l),
(309,615,ls),
(386,615,o),
(432,579,o),
(432,499,cs),
(432,421,o),
(385,382,o),
(310,382,cs),
(149,382,l)
);
}
);
width = 580;
}
);
metricLeft = "nunavuth-canadian";
metricRight = "geCarrier-canadian";
note = uni15F7;
unicode = 5623;
},
{
color = 9;
glyphname = "kheeCarrier-canadian";
lastChange = "2023-01-13 15:55:21 +0000";
layers = (
{
layerId = "7D3FB2DB-72C7-4646-AA25-FB3BBECA0225";
shapes = (
{
closed = 1;
nodes = (
(326,0,ls),
(449,0,o),
(523,66,o),
(523,185,cs),
(523,269,o),
(477,332,o),
(404,355,c),
(404,333,l),
(478,353,o),
(523,415,o),
(523,502,cs),
(523,623,o),
(447,690,o),
(326,690,cs),
(60,690,l),
(60,0,l)
);
},
{
closed = 1;
nodes = (
(149,309,l),
(253,309,l),
(253,224,l),
(303,224,l),
(303,330,l),
(272,309,l),
(318,309,ls),
(388,309,o),
(432,269,o),
(432,189,cs),
(432,111,o),
(385,74,o),
(309,74,cs),
(149,74,l)
);
},
{
closed = 1;
nodes = (
(303,468,l),
(253,468,l),
(253,382,l),
(149,382,l),
(149,615,l),
(309,615,ls),
(386,615,o),
(432,579,o),
(432,499,cs),
(432,421,o),
(389,382,o),
(318,382,cs),
(272,382,l),
(303,360,l)
);
}
);
width = 580;
}
);
metricLeft = "nunavuth-canadian";
metricRight = "geCarrier-canadian";
note = uni15F8;
unicode = 5624;
},
{
color = 9;
glyphname = "khiCarrier-canadian";
lastChange = "2023-01-13 15:55:21 +0000";
layers = (
{
layerId = "7D3FB2DB-72C7-4646-AA25-FB3BBECA0225";
shapes = (
{
closed = 1;
nodes = (
(326,0,ls),
(449,0,o),
(523,66,o),
(523,185,cs),
(523,268,o),
(478,331,o),
(408,357,c),
(408,331,l),
(479,355,o),
(523,416,o),
(523,502,cs),
(523,623,o),
(447,690,o),
(326,690,cs),
(60,690,l),
(60,0,l)
);
},
{
closed = 1;
nodes = (
(149,313,l),
(214,313,l),
(225,289,o),
(249,272,o),
(276,272,cs),
(313,272,o),
(341,302,o),
(345,339,c),
(297,313,l),
(322,313,ls),
(388,313,o),
(432,271,o),
(432,191,cs),
(432,110,o),
(385,74,o),
(309,74,cs),
(149,74,l)
);
},
{
closed = 1;
nodes = (
(309,615,ls),
(386,615,o),
(432,580,o),
(432,497,cs),
(432,418,o),
(389,378,o),
(322,378,cs),
(297,378,l),
(345,351,l),
(341,388,o),
(313,417,o),
(276,417,cs),
(240,417,o),
(211,388,o),
(207,352,c),
(231,378,l),
(149,378,l),
(149,615,l)
);
}
);
width = 580;
}
);
metricLeft = "nunavuth-canadian";
metricRight = "geCarrier-canadian";
note = uni15F9;
unicode = 5625;
},
{
color = 9;
glyphname = "khaCarrier-canadian";
lastChange = "2023-01-13 15:55:21 +0000";
layers = (
{
layerId = "7D3FB2DB-72C7-4646-AA25-FB3BBECA0225";
shapes = (
{
closed = 1;
nodes = (
(520,0,l),
(520,690,l),
(254,690,ls),
(132,690,o),
(57,623,o),
(57,502,cs),
(57,416,o),
(99,355,o),
(172,331,c),
(171,357,l),
(101,331,o),
(57,268,o),
(57,185,cs),
(57,66,o),
(130,0,o),
(254,0,cs)
);
},
{
closed = 1;
nodes = (
(194,74,o),
(147,111,o),
(147,189,cs),
(147,269,o),
(195,308,o),
(270,308,cs),
(430,308,l),
(430,74,l),
(270,74,ls)
);
},
{
closed = 1;
nodes = (
(193,382,o),
(147,421,o),
(147,499,cs),
(147,579,o),
(193,615,o),
(270,615,cs),
(430,615,l),
(430,382,l),
(270,382,ls)
);
}
);
width = 580;
}
);
metricLeft = "=|geCarrier-canadian";
metricRight = "nunavuth-canadian";
note = uni15FA;
unicode = 5626;
},
{
color = 9;
glyphname = "kkuCarrier-canadian";
lastChange = "2023-01-13 15:55:21 +0000";
layers = (
{
layerId = "7D3FB2DB-72C7-4646-AA25-FB3BBECA0225";
shapes = (
{
closed = 1;
nodes = (
(290,-13,o),
(341,30,o),
(363,117,c),
(324,117,l),
(349,29,o),
(399,-13,o),
(470,-13,cs),
(568,-13,o),
(631,55,o),
(631,181,cs),
(631,690,l),
(601,690,l),
(369,529,l),
(369,445,l),
(565,583,l),
(544,595,l),
(544,185,ls),
(544,106,o),
(516,70,o),
(465,70,cs),
(415,70,o),
(384,107,o),
(384,185,cs),
(384,690,l),
(302,690,l),
(302,185,ls),
(302,106,o),
(272,70,o),
(222,70,cs),
(170,70,o),
(141,106,o),
(141,185,cs),
(141,595,l),
(121,582,l),
(314,446,l),
(314,532,l),
(86,690,l),
(55,690,l),
(55,183,ls),
(55,55,o),
(119,-13,o),
(215,-13,cs)
);
}
);
width = 686;
}
);
metricLeft = "guCarrier-canadian";
metricRight = "guCarrier-canadian";
note = uni15FB;
unicode = 5627;
},
{
color = 9;
glyphname = "kkoCarrier-canadian";
lastChange = "2023-01-13 15:55:21 +0000";
layers = (
{
layerId = "7D3FB2DB-72C7-4646-AA25-FB3BBECA0225";
shapes = (
{
closed = 1;
nodes = (
(85,0,l),
(316,160,l),
(316,244,l),
(120,106,l),
(141,95,l),
(141,504,ls),
(141,583,o),
(170,620,o),
(220,620,cs),
(270,620,o),
(300,582,o),
(300,504,cs),
(300,0,l),
(384,0,l),
(384,504,ls),
(384,583,o),
(413,620,o),
(464,620,cs),
(516,620,o),
(544,583,o),
(544,504,cs),
(544,95,l),
(564,107,l),
(372,243,l),
(372,157,l),
(600,0,l),
(631,0,l),
(631,507,ls),
(631,635,o),
(566,702,o),
(469,702,cs),
(395,702,o),
(344,660,o),
(323,573,c),
(362,573,l),
(337,661,o),
(286,702,o),
(214,702,cs),
(118,702,o),
(55,635,o),
(55,509,cs),
(55,0,l)
);
}
);
width = 686;
}
);
metricLeft = "guCarrier-canadian";
metricRight = "guCarrier-canadian";
note = uni15FC;
unicode = 5628;
},
{
color = 9;
glyphname = "kkeCarrier-canadian";
lastChange = "2023-01-13 15:55:21 +0000";
layers = (
{
layerId = "7D3FB2DB-72C7-4646-AA25-FB3BBECA0225";
shapes = (
{
closed = 1;
nodes = (
(339,0,ls),
(463,0,o),
(535,66,o),
(535,185,cs),
(535,268,o),
(491,331,o),
(421,357,c),
(420,331,l),
(493,355,o),
(535,416,o),
(535,502,cs),
(535,623,o),
(461,690,o),
(339,690,cs),
(58,690,l),
(58,665,l),
(142,383,l),
(64,383,l),
(64,308,l),
(143,308,l),
(58,25,l),
(58,0,l)
);
},
{
closed = 1;
nodes = (
(233,308,l),
(324,308,ls),
(398,308,o),
(445,269,o),
(445,189,cs),
(445,111,o),
(399,75,o),
(322,75,cs),
(123,75,l),
(151,37,l)
);
},
{
closed = 1;
nodes = (
(150,653,l),
(122,614,l),
(322,614,ls),
(399,614,o),
(445,579,o),
(445,499,cs),
(445,421,o),
(399,383,o),
(324,383,cs),
(231,383,l)
);
}
);
width = 592;
}
);
metricRight = "geCarrier-canadian";
note = uni15FD;
unicode = 5629;
},
{
color = 9;
glyphname = "kkeeCarrier-canadian";
lastChange = "2023-01-13 15:55:21 +0000";
layers = (
{
layerId = "7D3FB2DB-72C7-4646-AA25-FB3BBECA0225";
shapes = (
{
closed = 1;
nodes = (
(339,0,ls),
(463,0,o),
(535,66,o),
(535,185,cs),
(535,268,o),
(491,331,o),
(421,357,c),
(420,331,l),
(493,355,o),
(535,416,o),
(535,502,cs),
(535,623,o),
(461,690,o),
(339,690,cs),
(58,690,l),
(58,665,l),
(142,383,l),
(64,383,l),
(64,308,l),
(143,308,l),
(58,25,l),
(58,0,l)
);
},
{
closed = 1;
nodes = (
(231,311,l),
(285,311,l),
(285,229,l),
(335,229,l),
(335,329,l),
(301,311,l),
(331,311,ls),
(402,311,o),
(445,270,o),
(445,191,cs),
(445,112,o),
(399,75,o),
(322,75,cs),
(121,75,l),
(150,37,l)
);
},
{
closed = 1;
nodes = (
(335,463,l),
(285,463,l),
(285,380,l),
(229,380,l),
(148,653,l),
(120,614,l),
(322,614,ls),
(399,614,o),
(445,578,o),
(445,498,cs),
(445,419,o),
(403,380,o),
(331,380,cs),
(301,380,l),
(335,365,l)
);
}
);
width = 592;
}
);
metricLeft = "kkeCarrier-canadian";
metricRight = "geCarrier-canadian";
note = uni15FE;
unicode = 5630;
},
{
color = 9;
glyphname = "kkiCarrier-canadian";
lastChange = "2023-01-13 15:55:21 +0000";
layers = (
{
layerId = "7D3FB2DB-72C7-4646-AA25-FB3BBECA0225";
shapes = (
{
closed = 1;
nodes = (
(339,0,ls),
(463,0,o),
(535,66,o),
(535,185,cs),
(535,268,o),
(491,331,o),
(421,357,c),
(420,331,l),
(493,355,o),
(535,416,o),
(535,502,cs),
(535,623,o),
(461,690,o),
(339,690,cs),
(58,690,l),
(58,665,l),
(142,383,l),
(64,383,l),
(64,308,l),
(143,308,l),
(58,25,l),
(58,0,l)
);
},
{
closed = 1;
nodes = (
(232,315,l),
(242,315,l),
(251,290,o),
(274,272,o),
(303,272,cs),
(341,272,o),
(366,304,o),
(368,334,c),
(313,315,l),
(331,315,ls),
(402,315,o),
(445,270,o),
(445,188,cs),
(445,112,o),
(399,75,o),
(322,75,cs),
(121,75,l),
(150,37,l)
);
},
{
closed = 1;
nodes = (
(366,386,o),
(342,417,o),
(303,417,cs),
(274,417,o),
(252,401,o),
(242,376,c),
(230,376,l),
(148,653,l),
(120,614,l),
(322,614,ls),
(399,614,o),
(445,578,o),
(445,496,cs),
(445,419,o),
(403,376,o),
(331,376,cs),
(314,376,l),
(369,355,l)
);
}
);
width = 592;
}
);
metricLeft = "kkeCarrier-canadian";
metricRight = "geCarrier-canadian";
note = uni15FF;
unicode = 5631;
},
{
color = 9;
glyphname = "kkaCarrier-canadian";
lastChange = "2023-01-13 15:55:21 +0000";
layers = (
{
layerId = "7D3FB2DB-72C7-4646-AA25-FB3BBECA0225";
shapes = (
{
closed = 1;
nodes = (
(534,0,l),
(534,25,l),
(450,308,l),
(528,308,l),
(528,383,l),
(450,383,l),
(534,665,l),
(534,690,l),
(254,690,ls),
(132,690,o),
(57,623,o),
(57,502,cs),
(57,416,o),
(99,355,o),
(172,331,c),
(171,357,l),
(101,331,o),
(57,268,o),
(57,185,cs),
(57,66,o),
(130,0,o),
(254,0,cs)
);
},
{
closed = 1;
nodes = (
(469,75,l),
(270,75,ls),
(194,75,o),
(147,111,o),
(147,189,cs),
(147,269,o),
(195,308,o),
(270,308,cs),
(360,308,l),
(441,37,l)
);
},
{
closed = 1;
nodes = (
(193,383,o),
(147,421,o),
(147,499,cs),
(147,579,o),
(193,614,o),
(270,614,cs),
(470,614,l),
(442,653,l),
(361,383,l),
(270,383,ls)
);
}
);
width = 592;
}
);
metricLeft = "=|geCarrier-canadian";
metricRight = "=|kkeCarrier-canadian";
note = uni1600;
unicode = 5632;
},
{
color = 6;
glyphname = "kkCarrier-canadian";
lastChange = "2023-01-13 15:55:21 +0000";
layers = (
{
layerId = "7D3FB2DB-72C7-4646-AA25-FB3BBECA0225";
shapes = (
{
closed = 1;
nodes = (
(170,183,l),
(295,514,l),
(295,527,l),
(235,527,l),
(141,253,l),
(185,253,l),
(90,527,l),
(30,527,l),
(30,514,l),
(155,183,l)
);
}
);
width = 325;
}
);
note = uni1601;
unicode = 5633;
},
{
color = 9;
glyphname = "nuCarrier-canadian";
lastChange = "2023-01-13 15:55:21 +0000";
layers = (
{
layerId = "7D3FB2DB-72C7-4646-AA25-FB3BBECA0225";
shapes = (
{
closed = 1;
nodes = (
(440,-13,o),
(525,77,o),
(525,250,cs),
(525,301,l),
(436,301,l),
(436,243,ls),
(436,126,o),
(384,71,o),
(291,71,cs),
(200,71,o),
(147,128,o),
(147,246,cs),
(147,690,l),
(56,690,l),
(56,250,ls),
(56,78,o),
(145,-13,o),
(292,-13,cs)
);
}
);
width = 575;
}
);
metricLeft = "te-canadian";
note = uni1602;
unicode = 5634;
},
{
color = 9;
glyphname = "noCarrier-canadian";
lastChange = "2023-01-13 15:55:21 +0000";
layers = (
{
layerId = "7D3FB2DB-72C7-4646-AA25-FB3BBECA0225";
shapes = (
{
closed = 1;
nodes = (
(519,0,l),
(519,440,ls),
(519,611,o),
(430,702,o),
(284,702,cs),
(135,702,o),
(50,612,o),
(50,440,cs),
(50,388,l),
(140,388,l),
(140,446,ls),
(140,564,o),
(191,619,o),
(284,619,cs),
(376,619,o),
(428,561,o),
(428,443,cs),
(428,0,l)
);
}
);
width = 575;
}
);
metricLeft = "=|nuCarrier-canadian";
metricRight = "te-canadian";
note = uni1603;
unicode = 5635;
},
{
color = 9;
glyphname = "neCarrier-canadian";
lastChange = "2023-01-13 15:55:21 +0000";
layers = (
{
anchors = (
{
name = middle_center_can;
pos = (244,345);
}
);
layerId = "7D3FB2DB-72C7-4646-AA25-FB3BBECA0225";
shapes = (
{
closed = 1;
nodes = (
(225,0,ls),
(415,0,o),
(520,120,o),
(520,346,cs),
(520,572,o),
(417,690,o),
(214,690,cs),
(40,690,l),
(40,607,l),
(215,607,ls),
(360,607,o),
(429,523,o),
(429,346,cs),
(429,169,o),
(358,83,o),
(225,83,cs),
(217,83,l),
(217,0,l)
);
}
);
width = 569;
}
);
metricRight = "theCarrier-canadian";
note = uni1604;
unicode = 5636;
},
{
color = 9;
glyphname = "naCarrier-canadian";
lastChange = "2023-01-13 15:55:21 +0000";
layers = (
{
layerId = "7D3FB2DB-72C7-4646-AA25-FB3BBECA0225";
shapes = (
{
closed = 1;
nodes = (
(529,0,l),
(529,83,l),
(353,83,ls),
(208,83,o),
(139,167,o),
(139,344,cs),
(139,521,o),
(211,607,o),
(344,607,cs),
(351,607,l),
(351,690,l),
(344,690,ls),
(154,690,o),
(49,570,o),
(49,344,cs),
(49,118,o),
(152,0,o),
(354,0,cs)
);
}
);
width = 569;
}
);
metricLeft = "=|theCarrier-canadian";
metricRight = "=|neCarrier-canadian";
note = uni1607;
unicode = 5639;
},
{
color = 9;
glyphname = "muCarrier-canadian";
lastChange = "2023-01-13 15:55:21 +0000";
layers = (
{
layerId = "7D3FB2DB-72C7-4646-AA25-FB3BBECA0225";
shapes = (
{
closed = 1;
nodes = (
(290,-13,o),
(341,30,o),
(362,116,c),
(324,116,l),
(349,29,o),
(399,-13,o),
(470,-13,cs),
(568,-13,o),
(631,55,o),
(631,181,cs),
(631,390,l),
(544,390,l),
(544,185,ls),
(544,106,o),
(516,70,o),
(466,70,cs),
(415,70,o),
(385,107,o),
(385,185,cs),
(385,390,l),
(301,390,l),
(301,185,ls),
(301,106,o),
(271,70,o),
(221,70,cs),
(169,70,o),
(141,106,o),
(141,185,cs),
(141,690,l),
(55,690,l),
(55,183,ls),
(55,55,o),
(119,-13,o),
(215,-13,cs)
);
}
);
width = 686;
}
);
metricLeft = "guCarrier-canadian";
metricRight = "=|";
note = uni1608;
unicode = 5640;
},
{
color = 9;
glyphname = "moCarrier-canadian";
lastChange = "2023-01-13 15:55:21 +0000";
layers = (
{
layerId = "7D3FB2DB-72C7-4646-AA25-FB3BBECA0225";
shapes = (
{
closed = 1;
nodes = (
(631,0,l),
(631,507,ls),
(631,635,o),
(566,702,o),
(469,702,cs),
(396,702,o),
(345,660,o),
(323,574,c),
(362,574,l),
(337,661,o),
(286,702,o),
(214,702,cs),
(118,702,o),
(55,635,o),
(55,509,cs),
(55,299,l),
(141,299,l),
(141,504,ls),
(141,583,o),
(169,620,o),
(220,620,cs),
(270,620,o),
(300,582,o),
(300,504,cs),
(300,299,l),
(384,299,l),
(384,504,ls),
(384,583,o),
(413,620,o),
(464,620,cs),
(516,620,o),
(544,583,o),
(544,504,cs),
(544,0,l)
);
}
);
width = 686;
}
);
metricLeft = "=|muCarrier-canadian";
metricRight = "guCarrier-canadian";
note = uni1609;
unicode = 5641;
},
{
color = 9;
glyphname = "meCarrier-canadian";
lastChange = "2023-01-13 15:55:21 +0000";
layers = (
{
layerId = "7D3FB2DB-72C7-4646-AA25-FB3BBECA0225";
shapes = (
{
closed = 1;
nodes = (
(323,0,ls),
(446,0,o),
(520,66,o),
(520,185,cs),
(520,268,o),
(474,333,o),
(403,359,c),
(403,331,l),
(476,354,o),
(520,416,o),
(520,502,cs),
(520,623,o),
(444,690,o),
(323,690,cs),
(40,690,l),
(40,614,l),
(306,614,ls),
(384,614,o),
(429,579,o),
(429,499,cs),
(429,421,o),
(383,383,o),
(307,383,cs),
(229,383,l),
(229,308,l),
(307,308,ls),
(382,308,o),
(429,269,o),
(429,189,cs),
(429,111,o),
(383,75,o),
(306,75,cs),
(229,75,l),
(229,0,l)
);
}
);
width = 577;
}
);
metricLeft = "neCarrier-canadian";
metricRight = "geCarrier-canadian";
note = uni160A;
unicode = 5642;
},
{
color = 9;
glyphname = "meeCarrier-canadian";
lastChange = "2023-01-13 15:55:21 +0000";
layers = (
{
layerId = "7D3FB2DB-72C7-4646-AA25-FB3BBECA0225";
shapes = (
{
closed = 1;
nodes = (
(323,0,ls),
(446,0,o),
(520,66,o),
(520,185,cs),
(520,268,o),
(475,331,o),
(405,357,c),
(405,331,l),
(476,355,o),
(520,416,o),
(520,502,cs),
(520,623,o),
(444,690,o),
(323,690,cs),
(40,690,l),
(40,614,l),
(306,614,ls),
(384,614,o),
(429,578,o),
(429,498,cs),
(429,420,o),
(385,381,o),
(314,381,cs),
(284,381,l),
(284,464,l),
(229,464,l),
(229,228,l),
(284,228,l),
(284,310,l),
(313,310,ls),
(385,310,o),
(429,270,o),
(429,190,cs),
(429,112,o),
(383,75,o),
(306,75,cs),
(229,75,l),
(229,0,l)
);
}
);
width = 577;
}
);
metricLeft = "neCarrier-canadian";
metricRight = "geCarrier-canadian";
note = uni160B;
unicode = 5643;
},
{
color = 9;
glyphname = "miCarrier-canadian";
lastChange = "2023-01-13 15:55:21 +0000";
layers = (
{
layerId = "7D3FB2DB-72C7-4646-AA25-FB3BBECA0225";
shapes = (
{
closed = 1;
nodes = (
(323,0,ls),
(446,0,o),
(520,66,o),
(520,185,cs),
(520,268,o),
(475,331,o),
(405,357,c),
(405,331,l),
(476,355,o),
(520,416,o),
(520,502,cs),
(520,623,o),
(444,690,o),
(323,690,cs),
(40,690,l),
(40,614,l),
(306,614,ls),
(384,614,o),
(429,578,o),
(429,498,cs),
(429,420,o),
(385,381,o),
(318,381,cs),
(282,381,l),
(331,355,l),
(327,390,o),
(298,417,o),
(262,417,cs),
(221,417,o),
(190,384,o),
(190,346,cs),
(190,305,o),
(221,272,o),
(262,272,cs),
(298,272,o),
(327,300,o),
(330,334,c),
(282,310,l),
(317,310,ls),
(385,310,o),
(429,270,o),
(429,190,cs),
(429,112,o),
(383,75,o),
(306,75,cs),
(229,75,l),
(229,0,l)
);
}
);
width = 577;
}
);
metricLeft = "neCarrier-canadian";
metricRight = "geCarrier-canadian";
note = uni160C;
unicode = 5644;
},
{
color = 9;
glyphname = "maCarrier-canadian";
lastChange = "2023-01-13 15:55:21 +0000";
layers = (
{
layerId = "7D3FB2DB-72C7-4646-AA25-FB3BBECA0225";
shapes = (
{
closed = 1;
nodes = (
(537,0,l),
(537,75,l),
(270,75,ls),
(193,75,o),
(147,111,o),
(147,189,cs),
(147,268,o),
(194,307,o),
(269,307,cs),
(347,307,l),
(347,382,l),
(270,382,ls),
(194,382,o),
(147,421,o),
(147,499,cs),
(147,578,o),
(194,614,o),
(270,614,cs),
(347,614,l),
(347,690,l),
(254,690,ls),
(130,690,o),
(57,624,o),
(57,503,cs),
(57,420,o),
(102,356,o),
(174,331,c),
(174,359,l),
(100,335,o),
(57,271,o),
(57,185,cs),
(57,67,o),
(132,0,o),
(254,0,cs)
);
}
);
width = 577;
}
);
metricLeft = "=|geCarrier-canadian";
metricRight = "=|neCarrier-canadian";
note = uni160D;
unicode = 5645;
},
{
color = 9;
glyphname = "yuCarrier-canadian";
lastChange = "2023-01-13 15:55:21 +0000";
layers = (
{
layerId = "7D3FB2DB-72C7-4646-AA25-FB3BBECA0225";
shapes = (
{
closed = 1;
nodes = (
(472,-13,o),
(564,116,o),
(564,386,cs),
(564,607,o),
(502,702,o),
(399,702,cs),
(308,702,o),
(255,627,o),
(255,501,cs),
(255,379,o),
(309,307,o),
(393,307,cs),
(407,307,o),
(420,309,o),
(431,314,c),
(431,384,l),
(424,383,o),
(416,380,o),
(403,380,cs),
(355,380,o),
(330,419,o),
(330,505,cs),
(330,589,o),
(355,630,o),
(397,630,cs),
(450,630,o),
(479,570,o),
(479,389,cs),
(479,153,o),
(416,71,o),
(300,71,cs),
(204,71,o),
(147,129,o),
(147,252,cs),
(147,690,l),
(56,690,l),
(56,255,ls),
(56,78,o),
(151,-13,o),
(298,-13,cs)
);
}
);
width = 620;
}
);
metricLeft = "te-canadian";
metricRight = "te-canadian";
note = uni160E;
unicode = 5646;
},
{
color = 9;
glyphname = "yoCarrier-canadian";
lastChange = "2023-01-13 15:55:21 +0000";
layers = (
{
layerId = "7D3FB2DB-72C7-4646-AA25-FB3BBECA0225";
shapes = (
{
closed = 1;
nodes = (
(312,-13,o),
(366,63,o),
(366,188,cs),
(366,311,o),
(312,383,o),
(228,383,cs),
(214,383,o),
(200,381,o),
(190,376,c),
(190,305,l),
(197,307,o),
(205,310,o),
(218,310,cs),
(266,310,o),
(290,270,o),
(290,185,cs),
(290,100,o),
(267,60,o),
(224,60,cs),
(170,60,o),
(142,120,o),
(142,300,cs),
(142,537,o),
(204,619,o),
(321,619,cs),
(417,619,o),
(474,560,o),
(474,438,cs),
(474,0,l),
(564,0,l),
(564,435,ls),
(564,611,o),
(470,702,o),
(324,702,cs),
(149,702,o),
(56,574,o),
(56,303,cs),
(56,83,o),
(119,-13,o),
(222,-13,cs)
);
}
);
width = 620;
}
);
metricLeft = "te-canadian";
metricRight = "te-canadian";
note = uni160F;
unicode = 5647;
},
{
color = 9;
glyphname = "yeCarrier-canadian";
lastChange = "2023-01-13 15:55:21 +0000";
layers = (
{
layerId = "7D3FB2DB-72C7-4646-AA25-FB3BBECA0225";
shapes = (
{
closed = 1;
nodes = (
(421,-13,o),
(514,124,o),
(514,339,cs),
(514,573,o),
(412,690,o),
(204,690,cs),
(54,690,l),
(54,607,l),
(206,607,ls),
(355,607,o),
(424,524,o),
(424,337,cs),
(424,164,o),
(375,65,o),
(259,65,cs),
(159,65,o),
(120,127,o),
(120,213,cs),
(120,294,o),
(145,334,o),
(187,334,cs),
(231,334,o),
(254,294,o),
(254,218,cs),
(254,190,o),
(252,175,o),
(250,156,c),
(318,156,l),
(322,180,o),
(324,196,o),
(324,225,cs),
(324,333,o),
(276,408,o),
(187,408,cs),
(98,408,o),
(43,332,o),
(43,212,cs),
(43,87,o),
(113,-13,o),
(258,-13,cs)
);
}
);
width = 563;
}
);
metricRight = "theCarrier-canadian";
note = uni1610;
unicode = 5648;
},
{
color = 9;
glyphname = "yeeCarrier-canadian";
lastChange = "2023-01-13 15:55:21 +0000";
layers = (
{
layerId = "7D3FB2DB-72C7-4646-AA25-FB3BBECA0225";
shapes = (
{
closed = 1;
nodes = (
(421,-13,o),
(514,124,o),
(514,339,cs),
(514,573,o),
(412,690,o),
(204,690,cs),
(54,690,l),
(54,607,l),
(206,607,ls),
(355,607,o),
(424,524,o),
(424,337,cs),
(424,164,o),
(376,65,o),
(258,65,cs),
(159,65,o),
(120,127,o),
(120,215,cs),
(120,293,o),
(144,334,o),
(183,334,cs),
(222,334,o),
(246,295,o),
(246,229,cs),
(246,179,l),
(293,179,l),
(293,497,l),
(246,497,l),
(246,300,l),
(258,300,l),
(252,368,o),
(218,408,o),
(164,408,cs),
(95,408,o),
(43,336,o),
(43,214,cs),
(43,87,o),
(113,-13,o),
(257,-13,cs)
);
}
);
width = 563;
}
);
metricRight = "theCarrier-canadian";
metricWidth = "yeCarrier-canadian";
note = uni1611;
unicode = 5649;
},
{
color = 9;
glyphname = "yiCarrier-canadian";
lastChange = "2023-01-13 15:55:21 +0000";
layers = (
{
layerId = "7D3FB2DB-72C7-4646-AA25-FB3BBECA0225";
shapes = (
{
closed = 1;
nodes = (
(421,-13,o),
(514,124,o),
(514,339,cs),
(514,573,o),
(412,690,o),
(204,690,cs),
(54,690,l),
(54,607,l),
(206,607,ls),
(355,607,o),
(424,524,o),
(424,337,cs),
(424,164,o),
(375,65,o),
(262,65,cs),
(161,65,o),
(120,128,o),
(120,205,cs),
(120,278,o),
(147,317,o),
(188,319,c),
(164,333,l),
(169,303,o),
(197,278,o),
(233,278,cs),
(271,278,o),
(301,308,o),
(301,346,cs),
(301,383,o),
(271,412,o),
(233,412,cs),
(206,412,o),
(183,397,o),
(172,377,c),
(95,368,o),
(43,302,o),
(43,197,cs),
(43,87,o),
(113,-13,o),
(258,-13,cs)
);
}
);
width = 563;
}
);
metricRight = "theCarrier-canadian";
metricWidth = "yeCarrier-canadian";
note = uni1612;
unicode = 5650;
},
{
color = 9;
glyphname = "yaCarrier-canadian";
lastChange = "2023-01-13 15:55:24 +0000";
layers = (
{
layerId = "7D3FB2DB-72C7-4646-AA25-FB3BBECA0225";
shapes = (
{
closed = 1;
nodes = (
(508,0,l),
(508,83,l),
(357,83,ls),
(208,83,o),
(139,166,o),
(139,353,cs),
(139,526,o),
(187,625,o),
(309,625,cs),
(404,625,o),
(443,563,o),
(443,477,cs),
(443,396,o),
(417,355,o),
(375,355,cs),
(332,355,o),
(309,396,o),
(309,471,cs),
(309,499,o),
(311,515,o),
(313,533,c),
(245,533,l),
(241,510,o),
(239,494,o),
(239,465,cs),
(239,356,o),
(287,282,o),
(376,282,cs),
(466,282,o),
(521,357,o),
(521,478,cs),
(521,603,o),
(449,702,o),
(310,702,cs),
(141,702,o),
(49,566,o),
(49,351,cs),
(49,117,o),
(152,0,o),
(359,0,cs)
);
}
);
width = 564;
}
);
metricLeft = "=|theCarrier-canadian";
metricRight = "=|yeCarrier-canadian";
note = uni1613;
unicode = 5651;
},
{
color = 9;
glyphname = "juCarrier-canadian";
lastChange = "2023-01-13 15:55:21 +0000";
layers = (
{
layerId = "7D3FB2DB-72C7-4646-AA25-FB3BBECA0225";
shapes = (
{
closed = 1;
nodes = (
(460,-13,o),
(531,86,o),
(531,213,cs),
(531,332,o),
(477,408,o),
(387,408,cs),
(298,408,o),
(250,333,o),
(250,225,cs),
(250,196,o),
(252,179,o),
(257,156,c),
(325,156,l),
(323,173,o),
(320,191,o),
(320,218,cs),
(320,293,o),
(344,334,o),
(386,334,cs),
(429,334,o),
(455,293,o),
(455,213,cs),
(455,126,o),
(413,65,o),
(315,65,cs),
(202,65,o),
(144,147,o),
(144,298,cs),
(144,523,o),
(260,607,o),
(443,607,cs),
(520,607,l),
(520,690,l),
(47,690,l),
(47,610,l),
(296,610,l),
(366,644,l),
(179,644,o),
(54,525,o),
(54,297,cs),
(54,106,o),
(152,-13,o),
(309,-13,cs)
);
}
);
width = 574;
}
);
metricRight = "=|yeCarrier-canadian";
note = uni1614;
unicode = 5652;
},
{
color = 9;
glyphname = "juSayisi-canadian";
lastChange = "2023-01-13 15:55:24 +0000";
layers = (
{
anchors = (
{
name = top_center_can;
pos = (291,690);
}
);
layerId = "7D3FB2DB-72C7-4646-AA25-FB3BBECA0225";
shapes = (
{
closed = 1;
nodes = (
(422,-13,o),
(520,106,o),
(520,297,cs),
(520,525,o),
(395,644,o),
(208,644,c),
(279,610,l),
(526,610,l),
(526,690,l),
(54,690,l),
(54,607,l),
(130,607,ls),
(315,607,o),
(430,523,o),
(430,298,cs),
(430,147,o),
(373,65,o),
(260,65,cs),
(160,65,o),
(120,126,o),
(120,213,cs),
(120,293,o),
(145,334,o),
(187,334,cs),
(230,334,o),
(254,293,o),
(254,218,cs),
(254,191,o),
(252,173,o),
(250,156,c),
(318,156,l),
(322,179,o),
(324,196,o),
(324,225,cs),
(324,333,o),
(276,408,o),
(186,408,cs),
(98,408,o),
(43,332,o),
(43,213,cs),
(43,86,o),
(114,-13,o),
(265,-13,cs)
);
}
);
width = 573;
}
);
metricLeft = "yeCarrier-canadian";
metricRight = "=|juCarrier-canadian";
note = uni1615;
unicode = 5653;
},
{
color = 9;
glyphname = "joCarrier-canadian";
lastChange = "2023-01-13 15:55:24 +0000";
layers = (
{
layerId = "7D3FB2DB-72C7-4646-AA25-FB3BBECA0225";
shapes = (
{
closed = 1;
nodes = (
(526,0,l),
(526,80,l),
(279,80,l),
(208,45,l),
(395,45,o),
(520,165,o),
(520,393,cs),
(520,583,o),
(422,702,o),
(265,702,cs),
(114,702,o),
(43,604,o),
(43,477,cs),
(43,357,o),
(98,282,o),
(186,282,cs),
(276,282,o),
(324,356,o),
(324,465,cs),
(324,494,o),
(322,511,o),
(318,533,c),
(250,533,l),
(252,517,o),
(254,498,o),
(254,471,cs),
(254,397,o),
(230,355,o),
(187,355,cs),
(145,355,o),
(120,397,o),
(120,476,cs),
(120,564,o),
(160,625,o),
(260,625,cs),
(373,625,o),
(430,543,o),
(430,391,cs),
(430,167,o),
(315,83,o),
(130,83,cs),
(54,83,l),
(54,0,l)
);
}
);
width = 573;
}
);
metricLeft = "yeCarrier-canadian";
metricRight = "=|juCarrier-canadian";
note = uni1616;
unicode = 5654;
},
{
color = 9;
glyphname = "jeCarrier-canadian";
lastChange = "2023-01-13 15:55:21 +0000";
layers = (
{
layerId = "7D3FB2DB-72C7-4646-AA25-FB3BBECA0225";
shapes = (
{
closed = 1;
nodes = (
(505,-13,o),
(568,83,o),
(568,303,cs),
(568,566,o),
(473,702,o),
(334,702,cs),
(204,702,o),
(133,595,o),
(128,399,c),
(149,405,l),
(149,690,l),
(60,690,l),
(60,0,l),
(150,0,l),
(150,285,ls),
(150,526,o),
(213,619,o),
(319,619,cs),
(417,619,o),
(482,525,o),
(482,301,cs),
(482,120,o),
(454,60,o),
(401,60,cs),
(358,60,o),
(334,100,o),
(334,185,cs),
(334,270,o),
(358,310,o),
(408,310,cs),
(419,310,o),
(427,307,o),
(434,305,c),
(434,376,l),
(424,381,o),
(410,383,o),
(397,383,cs),
(312,383,o),
(258,311,o),
(258,188,cs),
(258,63,o),
(312,-13,o),
(402,-13,cs)
);
}
);
width = 624;
}
);
metricLeft = "nunavuth-canadian";
metricRight = "te-canadian";
note = uni1617;
unicode = 5655;
},
{
color = 9;
glyphname = "jeeCarrier-canadian";
lastChange = "2023-01-13 15:55:21 +0000";
layers = (
{
layerId = "7D3FB2DB-72C7-4646-AA25-FB3BBECA0225";
shapes = (
{
closed = 1;
nodes = (
(504,-13,o),
(568,84,o),
(568,303,cs),
(568,566,o),
(473,702,o),
(334,702,cs),
(229,702,o),
(163,635,o),
(138,508,c),
(149,498,l),
(149,690,l),
(60,690,l),
(60,0,l),
(150,0,l),
(150,285,ls),
(150,526,o),
(213,619,o),
(319,619,cs),
(417,619,o),
(482,525,o),
(482,301,cs),
(482,126,o),
(450,60,o),
(386,60,cs),
(334,60,o),
(302,107,o),
(302,191,cs),
(302,264,o),
(322,306,o),
(357,320,c),
(357,236,l),
(404,236,l),
(404,448,l),
(357,448,l),
(357,369,l),
(299,353,o),
(258,291,o),
(258,185,cs),
(258,62,o),
(311,-13,o),
(402,-13,cs)
);
}
);
width = 624;
}
);
metricLeft = "nunavuth-canadian";
metricRight = "jeCarrier-canadian";
note = uni1618;
unicode = 5656;
},
{
color = 9;
glyphname = "jiCarrier-canadian";
lastChange = "2023-01-13 15:55:21 +0000";
layers = (
{
layerId = "7D3FB2DB-72C7-4646-AA25-FB3BBECA0225";
shapes = (
{
closed = 1;
nodes = (
(504,-13,o),
(568,84,o),
(568,303,cs),
(568,566,o),
(473,702,o),
(334,702,cs),
(229,702,o),
(163,635,o),
(138,508,c),
(149,498,l),
(149,690,l),
(60,690,l),
(60,0,l),
(150,0,l),
(150,285,ls),
(150,526,o),
(213,619,o),
(319,619,cs),
(417,619,o),
(482,525,o),
(482,301,cs),
(482,126,o),
(450,60,o),
(386,60,cs),
(334,60,o),
(302,107,o),
(302,191,cs),
(302,244,o),
(314,276,o),
(334,294,c),
(342,283,o),
(355,275,o),
(369,275,cs),
(405,275,o),
(432,305,o),
(432,342,cs),
(432,379,o),
(405,408,o),
(369,408,cs),
(325,408,o),
(301,365,o),
(309,330,c),
(277,305,o),
(258,257,o),
(258,185,cs),
(258,62,o),
(311,-13,o),
(402,-13,cs)
);
}
);
width = 624;
}
);
metricLeft = "nunavuth-canadian";
metricRight = "jeCarrier-canadian";
note = uni1619;
unicode = 5657;
},
{
color = 9;
glyphname = "jiSayisi-canadian";
lastChange = "2023-01-13 15:55:21 +0000";
layers = (
{
layerId = "7D3FB2DB-72C7-4646-AA25-FB3BBECA0225";
shapes = (
{
closed = 1;
nodes = (
(473,-13,o),
(568,124,o),
(568,386,cs),
(568,607,o),
(505,702,o),
(402,702,cs),
(312,702,o),
(258,627,o),
(258,501,cs),
(258,379,o),
(312,307,o),
(397,307,cs),
(410,307,o),
(424,309,o),
(434,314,c),
(434,384,l),
(427,383,o),
(419,380,o),
(408,380,cs),
(358,380,o),
(334,419,o),
(334,505,cs),
(334,589,o),
(358,630,o),
(400,630,cs),
(454,630,o),
(482,570,o),
(482,388,cs),
(482,165,o),
(417,71,o),
(319,71,cs),
(213,71,o),
(150,163,o),
(150,405,cs),
(150,690,l),
(60,690,l),
(60,0,l),
(149,0,l),
(149,285,l),
(128,291,l),
(133,95,o),
(204,-13,o),
(334,-13,cs)
);
}
);
width = 624;
}
);
metricLeft = "nunavuth-canadian";
metricRight = "jeCarrier-canadian";
note = uni161A;
unicode = 5658;
},
{
color = 9;
glyphname = "jaCarrier-canadian";
lastChange = "2023-01-13 15:55:21 +0000";
layers = (
{
anchors = (
{
name = top_center_can;
pos = (305,690);
}
);
layerId = "7D3FB2DB-72C7-4646-AA25-FB3BBECA0225";
shapes = (
{
closed = 1;
nodes = (
(420,-13,o),
(491,95,o),
(497,291,c),
(475,285,l),
(475,0,l),
(564,0,l),
(564,690,l),
(474,690,l),
(474,405,ls),
(474,163,o),
(411,71,o),
(305,71,cs),
(207,71,o),
(142,165,o),
(142,388,cs),
(142,570,o),
(170,630,o),
(224,630,cs),
(266,630,o),
(290,589,o),
(290,505,cs),
(290,419,o),
(266,380,o),
(216,380,cs),
(205,380,o),
(197,383,o),
(190,384,c),
(190,314,l),
(200,309,o),
(214,307,o),
(227,307,cs),
(312,307,o),
(366,379,o),
(366,501,cs),
(366,627,o),
(312,702,o),
(222,702,cs),
(119,702,o),
(56,607,o),
(56,386,cs),
(56,124,o),
(151,-13,o),
(290,-13,cs)
);
}
);
width = 624;
}
);
metricLeft = "=|jeCarrier-canadian";
metricRight = "nunavuth-canadian";
note = uni161B;
unicode = 5659;
},
{
color = 9;
glyphname = "jjuCarrier-canadian";
lastChange = "2023-01-13 15:55:24 +0000";
layers = (
{
layerId = "7D3FB2DB-72C7-4646-AA25-FB3BBECA0225";
shapes = (
{
closed = 1;
nodes = (
(455,-13,o),
(526,87,o),
(526,212,cs),
(526,332,o),
(471,408,o),
(382,408,cs),
(293,408,o),
(244,333,o),
(244,225,cs),
(244,197,o),
(246,179,o),
(251,156,c),
(319,156,l),
(317,173,o),
(314,193,o),
(314,218,cs),
(314,293,o),
(338,334,o),
(381,334,cs),
(421,334,o),
(449,291,o),
(449,213,cs),
(449,125,o),
(409,63,o),
(312,63,cs),
(202,63,o),
(145,146,o),
(145,307,cs),
(145,514,o),
(246,607,o),
(416,607,cs),
(514,607,l),
(514,690,l),
(412,690,ls),
(312,690,o),
(232,662,o),
(173,611,c),
(82,702,l),
(22,645,l),
(118,550,l),
(76,490,o),
(55,409,o),
(55,311,cs),
(55,107,o),
(155,-13,o),
(308,-13,cs)
);
}
);
width = 569;
}
);
metricRight = "=|yeCarrier-canadian";
note = uni161C;
unicode = 5660;
},
{
color = 9;
glyphname = "jjoCarrier-canadian";
lastChange = "2023-01-13 15:55:21 +0000";
layers = (
{
layerId = "7D3FB2DB-72C7-4646-AA25-FB3BBECA0225";
shapes = (
{
closed = 1;
nodes = (
(546,44,l),
(451,140,l),
(493,200,o),
(514,281,o),
(514,379,cs),
(514,582,o),
(414,702,o),
(261,702,cs),
(114,702,o),
(43,603,o),
(43,478,cs),
(43,357,o),
(98,282,o),
(187,282,cs),
(276,282,o),
(325,356,o),
(325,465,cs),
(325,493,o),
(323,511,o),
(318,533,c),
(250,533,l),
(252,517,o),
(254,497,o),
(254,471,cs),
(254,397,o),
(231,355,o),
(188,355,cs),
(147,355,o),
(120,399,o),
(120,477,cs),
(120,565,o),
(160,627,o),
(257,627,cs),
(367,627,o),
(424,544,o),
(424,383,cs),
(424,176,o),
(323,83,o),
(153,83,cs),
(54,83,l),
(54,0,l),
(156,0,ls),
(257,0,o),
(337,28,o),
(395,79,c),
(487,-13,l)
);
}
);
width = 568;
}
);
metricLeft = "yeCarrier-canadian";
metricRight = "=|jjuCarrier-canadian";
note = uni161D;
unicode = 5661;
},
{
color = 9;
glyphname = "jjeCarrier-canadian";
lastChange = "2023-01-13 15:55:21 +0000";
layers = (
{
layerId = "7D3FB2DB-72C7-4646-AA25-FB3BBECA0225";
shapes = (
{
closed = 1;
nodes = (
(510,-13,o),
(572,83,o),
(572,303,cs),
(572,574,o),
(484,702,o),
(313,702,cs),
(246,702,o),
(188,678,o),
(146,632,c),
(71,702,l),
(15,641,l),
(99,562,l),
(77,515,o),
(64,455,o),
(64,382,cs),
(64,0,l),
(155,0,l),
(155,385,ls),
(155,541,o),
(212,619,o),
(312,619,cs),
(424,619,o),
(487,537,o),
(487,300,cs),
(487,120,o),
(458,60,o),
(405,60,cs),
(361,60,o),
(338,100,o),
(338,185,cs),
(338,270,o),
(363,310,o),
(411,310,cs),
(424,310,o),
(432,307,o),
(439,305,c),
(439,376,l),
(428,381,o),
(413,383,o),
(400,383,cs),
(317,383,o),
(262,311,o),
(262,188,cs),
(262,63,o),
(316,-13,o),
(407,-13,cs)
);
}
);
width = 628;
}
);
metricRight = "jeCarrier-canadian";
note = uni161E;
unicode = 5662;
},
{
color = 9;
glyphname = "jjeeCarrier-canadian";
lastChange = "2023-01-13 15:55:21 +0000";
layers = (
{
layerId = "7D3FB2DB-72C7-4646-AA25-FB3BBECA0225";
shapes = (
{
closed = 1;
nodes = (
(509,-13,o),
(572,84,o),
(572,303,cs),
(572,574,o),
(484,702,o),
(313,702,cs),
(246,702,o),
(188,678,o),
(146,632,c),
(71,702,l),
(15,641,l),
(99,562,l),
(77,515,o),
(64,455,o),
(64,382,cs),
(64,0,l),
(155,0,l),
(155,385,ls),
(155,541,o),
(212,619,o),
(312,619,cs),
(424,619,o),
(487,537,o),
(487,300,cs),
(487,125,o),
(454,60,o),
(390,60,cs),
(337,60,o),
(307,107,o),
(307,191,cs),
(307,267,o),
(327,306,o),
(361,320,c),
(361,236,l),
(408,236,l),
(408,448,l),
(361,448,l),
(361,369,l),
(304,355,o),
(262,291,o),
(262,185,cs),
(262,62,o),
(316,-13,o),
(407,-13,cs)
);
}
);
width = 628;
}
);
metricLeft = "jjeCarrier-canadian";
metricRight = "jeCarrier-canadian";
note = uni161F;
unicode = 5663;
},
{
color = 9;
glyphname = "jjiCarrier-canadian";
lastChange = "2023-01-13 15:55:21 +0000";
layers = (
{
layerId = "7D3FB2DB-72C7-4646-AA25-FB3BBECA0225";
shapes = (
{
closed = 1;
nodes = (
(509,-13,o),
(572,84,o),
(572,303,cs),
(572,574,o),
(484,702,o),
(313,702,cs),
(246,702,o),
(188,678,o),
(146,632,c),
(71,702,l),
(15,641,l),
(99,562,l),
(77,515,o),
(64,455,o),
(64,382,cs),
(64,0,l),
(155,0,l),
(155,385,ls),
(155,541,o),
(212,619,o),
(312,619,cs),
(424,619,o),
(487,537,o),
(487,300,cs),
(487,125,o),
(454,60,o),
(390,60,cs),
(337,60,o),
(307,107,o),
(307,191,cs),
(307,246,o),
(319,278,o),
(339,294,c),
(346,283,o),
(360,275,o),
(375,275,cs),
(411,275,o),
(438,305,o),
(438,342,cs),
(438,379,o),
(411,408,o),
(375,408,cs),
(332,408,o),
(308,367,o),
(315,332,c),
(283,307,o),
(262,258,o),
(262,185,cs),
(262,62,o),
(316,-13,o),
(407,-13,cs)
);
}
);
width = 628;
}
);
metricLeft = "jjeCarrier-canadian";
metricRight = "jeCarrier-canadian";
note = uni1620;
unicode = 5664;
},
{
color = 9;
glyphname = "jjaCarrier-canadian";
lastChange = "2023-01-13 15:55:24 +0000";
layers = (
{
layerId = "7D3FB2DB-72C7-4646-AA25-FB3BBECA0225";
shapes = (
{
closed = 1;
nodes = (
(383,-13,o),
(440,12,o),
(483,58,c),
(558,-13,l),
(612,48,l),
(528,128,l),
(552,175,o),
(564,235,o),
(564,308,cs),
(564,690,l),
(474,690,l),
(474,304,ls),
(474,149,o),
(417,71,o),
(317,71,cs),
(204,71,o),
(142,153,o),
(142,389,cs),
(142,570,o),
(170,630,o),
(224,630,cs),
(267,630,o),
(290,589,o),
(290,505,cs),
(290,419,o),
(266,380,o),
(218,380,cs),
(205,380,o),
(197,383,o),
(190,384,c),
(190,314,l),
(200,309,o),
(214,307,o),
(228,307,cs),
(312,307,o),
(366,379,o),
(366,501,cs),
(366,627,o),
(312,702,o),
(222,702,cs),
(119,702,o),
(56,607,o),
(56,386,cs),
(56,116,o),
(145,-13,o),
(315,-13,cs)
);
}
);
width = 627;
}
);
metricLeft = "=|jeCarrier-canadian";
metricRight = "=|jjeCarrier-canadian";
note = uni1621;
unicode = 5665;
},
{
color = 9;
glyphname = "luCarrier-canadian";
lastChange = "2023-01-13 15:55:21 +0000";
layers = (
{
layerId = "7D3FB2DB-72C7-4646-AA25-FB3BBECA0225";
shapes = (
{
closed = 1;
nodes = (
(435,-13,o),
(523,71,o),
(523,255,cs),
(523,690,l),
(432,690,l),
(432,256,ls),
(432,122,o),
(377,71,o),
(297,71,cs),
(187,71,o),
(144,161,o),
(144,322,cs),
(144,502,o),
(193,599,o),
(310,617,c),
(310,690,l),
(47,690,l),
(47,614,l),
(212,614,l),
(269,641,l),
(134,625,o),
(54,526,o),
(54,310,cs),
(54,109,o),
(132,-13,o),
(295,-13,cs)
);
}
);
width = 579;
}
);
metricRight = "te-canadian";
note = uni1622;
unicode = 5666;
},
{
color = 9;
glyphname = "loCarrier-canadian";
lastChange = "2023-01-13 15:55:24 +0000";
layers = (
{
layerId = "7D3FB2DB-72C7-4646-AA25-FB3BBECA0225";
shapes = (
{
closed = 1;
nodes = (
(147,0,l),
(147,434,ls),
(147,568,o),
(202,619,o),
(283,619,cs),
(391,619,o),
(435,528,o),
(435,368,cs),
(435,187,o),
(385,91,o),
(269,72,c),
(269,0,l),
(531,0,l),
(531,75,l),
(367,75,l),
(310,48,l),
(444,65,o),
(525,164,o),
(525,380,cs),
(525,581,o),
(446,702,o),
(284,702,cs),
(145,702,o),
(56,618,o),
(56,435,cs),
(56,0,l)
);
}
);
width = 578;
}
);
metricLeft = "te-canadian";
metricRight = "=|luCarrier-canadian";
note = uni1623;
unicode = 5667;
},
{
color = 9;
glyphname = "leCarrier-canadian";
lastChange = "2023-01-13 15:55:21 +0000";
layers = (
{
anchors = (
{
name = middle_center_can;
pos = (278,345);
}
);
layerId = "7D3FB2DB-72C7-4646-AA25-FB3BBECA0225";
shapes = (
{
closed = 1;
nodes = (
(214,0,ls),
(414,0,o),
(517,120,o),
(517,356,cs),
(517,593,o),
(416,702,o),
(302,702,cs),
(200,702,o),
(146,625,o),
(128,523,c),
(138,526,l),
(138,690,l),
(57,690,l),
(57,383,l),
(133,383,l),
(135,528,o),
(189,619,o),
(279,619,cs),
(364,619,o),
(426,542,o),
(426,355,cs),
(426,169,o),
(361,83,o),
(215,83,cs),
(57,83,l),
(57,0,l)
);
}
);
width = 566;
}
);
metricRight = "theCarrier-canadian";
note = uni1624;
unicode = 5668;
},
{
color = 9;
glyphname = "laCarrier-canadian";
lastChange = "2023-01-13 15:55:21 +0000";
layers = (
{
layerId = "7D3FB2DB-72C7-4646-AA25-FB3BBECA0225";
shapes = (
{
closed = 1;
nodes = (
(508,0,l),
(508,83,l),
(350,83,ls),
(204,83,o),
(139,169,o),
(139,355,cs),
(139,542,o),
(201,619,o),
(286,619,cs),
(377,619,o),
(430,528,o),
(432,383,c),
(508,383,l),
(508,690,l),
(428,690,l),
(428,526,l),
(438,523,l),
(420,625,o),
(365,702,o),
(263,702,cs),
(149,702,o),
(49,593,o),
(49,356,cs),
(49,120,o),
(152,0,o),
(351,0,cs)
);
}
);
width = 565;
}
);
metricLeft = "=|theCarrier-canadian";
metricRight = "=|leCarrier-canadian";
note = uni1627;
unicode = 5671;
},
{
color = 1;
glyphname = "dluCarrier-canadian";
lastChange = "2023-01-13 15:55:21 +0000";
layers = (
{
layerId = "7D3FB2DB-72C7-4646-AA25-FB3BBECA0225";
shapes = (
{
closed = 1;
nodes = (
(446,-13,o),
(525,109,o),
(525,310,cs),
(525,501,o),
(463,600,o),
(359,630,c),
(342,620,l),
(518,620,l),
(518,539,l),
(584,539,l),
(584,771,l),
(518,771,l),
(518,690,l),
(269,690,l),
(269,616,l),
(385,599,o),
(435,502,o),
(435,322,cs),
(435,161,o),
(391,71,o),
(284,71,cs),
(202,71,o),
(147,123,o),
(147,256,cs),
(147,690,l),
(56,690,l),
(56,255,ls),
(56,71,o),
(145,-13,o),
(285,-13,cs)
);
}
);
width = 617;
}
);
metricLeft = "te-canadian";
note = uni1628;
unicode = 5672;
},
{
color = 9;
glyphname = "dloCarrier-canadian";
lastChange = "2023-01-13 15:55:21 +0000";
layers = (
{
layerId = "7D3FB2DB-72C7-4646-AA25-FB3BBECA0225";
shapes = (
{
closed = 1;
nodes = (
(584,-81,l),
(584,151,l),
(518,151,l),
(518,70,l),
(342,70,l),
(359,60,l),
(463,90,o),
(525,188,o),
(525,380,cs),
(525,581,o),
(446,702,o),
(285,702,cs),
(144,702,o),
(56,618,o),
(56,435,cs),
(56,0,l),
(147,0,l),
(147,434,ls),
(147,567,o),
(202,619,o),
(284,619,cs),
(391,619,o),
(435,528,o),
(435,368,cs),
(435,187,o),
(385,91,o),
(269,73,c),
(269,0,l),
(518,0,l),
(518,-81,l)
);
}
);
width = 617;
}
);
metricLeft = "te-canadian";
metricRight = "dluCarrier-canadian";
note = uni1629;
unicode = 5673;
},
{
color = 9;
glyphname = "dleCarrier-canadian";
lastChange = "2023-01-13 15:55:24 +0000";
layers = (
{
anchors = (
{
name = middle_center_can;
pos = (292,345);
}
);
layerId = "7D3FB2DB-72C7-4646-AA25-FB3BBECA0225";
shapes = (
{
closed = 1;
nodes = (
(227,0,ls),
(427,0,o),
(529,120,o),
(529,356,cs),
(529,593,o),
(430,702,o),
(315,702,cs),
(218,702,o),
(150,633,o),
(127,507,c),
(136,502,l),
(136,701,l),
(200,701,l),
(200,766,l),
(6,766,l),
(6,701,l),
(70,701,l),
(70,383,l),
(146,383,l),
(148,528,o),
(202,619,o),
(292,619,cs),
(377,619,o),
(439,542,o),
(439,355,cs),
(439,169,o),
(374,83,o),
(228,83,cs),
(70,83,l),
(70,0,l)
);
}
);
width = 578;
}
);
metricRight = "theCarrier-canadian";
note = uni162A;
unicode = 5674;
},
{
color = 9;
glyphname = "dlaCarrier-canadian";
lastChange = "2023-01-13 15:55:21 +0000";
layers = (
{
layerId = "7D3FB2DB-72C7-4646-AA25-FB3BBECA0225";
shapes = (
{
closed = 1;
nodes = (
(508,0,l),
(508,83,l),
(350,83,ls),
(204,83,o),
(139,169,o),
(139,355,cs),
(139,542,o),
(202,619,o),
(286,619,cs),
(377,619,o),
(430,528,o),
(432,383,c),
(508,383,l),
(508,701,l),
(572,701,l),
(572,766,l),
(379,766,l),
(379,701,l),
(441,701,l),
(441,502,l),
(451,507,l),
(428,633,o),
(359,702,o),
(263,702,cs),
(149,702,o),
(49,593,o),
(49,356,cs),
(49,119,o),
(152,0,o),
(351,0,cs)
);
}
);
width = 578;
}
);
metricLeft = "=|theCarrier-canadian";
metricRight = "=|dleCarrier-canadian";
note = uni162D;
unicode = 5677;
},
{
color = 9;
glyphname = "lhuCarrier-canadian";
lastChange = "2023-01-13 15:55:21 +0000";
layers = (
{
layerId = "7D3FB2DB-72C7-4646-AA25-FB3BBECA0225";
shapes = (
{
closed = 1;
nodes = (
(461,-13,o),
(544,106,o),
(544,308,cs),
(544,502,o),
(474,612,o),
(362,644,c),
(398,614,l),
(551,614,l),
(551,690,l),
(345,690,l),
(345,617,l),
(415,577,o),
(454,477,o),
(454,326,cs),
(454,150,o),
(406,71,o),
(298,71,cs),
(193,71,o),
(145,150,o),
(145,326,cs),
(145,477,o),
(183,578,o),
(254,617,c),
(254,690,l),
(47,690,l),
(47,614,l),
(199,614,l),
(236,644,l),
(124,612,o),
(54,503,o),
(54,308,cs),
(54,106,o),
(137,-13,o),
(298,-13,cs)
);
}
);
width = 598;
}
);
metricLeft = "luCarrier-canadian";
metricRight = "=|";
note = uni162E;
unicode = 5678;
},
{
color = 9;
glyphname = "lhoCarrier-canadian";
lastChange = "2023-01-13 15:55:21 +0000";
layers = (
{
layerId = "7D3FB2DB-72C7-4646-AA25-FB3BBECA0225";
shapes = (
{
closed = 1;
nodes = (
(253,0,l),
(253,72,l),
(183,113,o),
(144,213,o),
(144,364,cs),
(144,540,o),
(192,619,o),
(298,619,cs),
(406,619,o),
(453,540,o),
(453,364,cs),
(453,213,o),
(415,112,o),
(344,72,c),
(344,0,l),
(551,0,l),
(551,75,l),
(399,75,l),
(362,45,l),
(474,77,o),
(544,186,o),
(544,382,cs),
(544,583,o),
(461,702,o),
(298,702,cs),
(137,702,o),
(54,583,o),
(54,382,cs),
(54,187,o),
(124,77,o),
(236,45,c),
(200,75,l),
(47,75,l),
(47,0,l)
);
}
);
width = 598;
}
);
metricLeft = "luCarrier-canadian";
metricRight = "=|";
note = uni162F;
unicode = 5679;
},
{
color = 9;
glyphname = "lheCarrier-canadian";
lastChange = "2023-01-13 15:55:21 +0000";
layers = (
{
anchors = (
{
name = middle_center_can;
pos = (292,345);
}
);
layerId = "7D3FB2DB-72C7-4646-AA25-FB3BBECA0225";
shapes = (
{
closed = 1;
nodes = (
(435,-13,o),
(537,97,o),
(537,345,cs),
(537,593,o),
(435,702,o),
(315,702,cs),
(210,702,o),
(152,629,o),
(134,536,c),
(140,536,l),
(140,690,l),
(60,690,l),
(60,416,l),
(136,416,l),
(146,529,o),
(190,619,o),
(293,619,cs),
(381,619,o),
(447,542,o),
(447,345,cs),
(447,148,o),
(382,71,o),
(293,71,cs),
(190,71,o),
(146,160,o),
(136,273,c),
(60,273,l),
(60,0,l),
(140,0,l),
(140,154,l),
(134,154,l),
(152,61,o),
(210,-13,o),
(315,-13,cs)
);
}
);
width = 586;
}
);
metricLeft = "nunavuth-canadian";
metricRight = "theCarrier-canadian";
note = uni1630;
unicode = 5680;
},
{
color = 9;
glyphname = "lhaCarrier-canadian";
lastChange = "2023-01-13 15:55:21 +0000";
layers = (
{
layerId = "7D3FB2DB-72C7-4646-AA25-FB3BBECA0225";
shapes = (
{
closed = 1;
nodes = (
(377,-13,o),
(435,61,o),
(451,154,c),
(445,154,l),
(445,0,l),
(526,0,l),
(526,273,l),
(450,273,l),
(440,160,o),
(396,71,o),
(294,71,cs),
(205,71,o),
(139,148,o),
(139,345,cs),
(139,542,o),
(205,619,o),
(294,619,cs),
(396,619,o),
(440,529,o),
(450,416,c),
(526,416,l),
(526,690,l),
(445,690,l),
(445,536,l),
(451,536,l),
(435,629,o),
(377,702,o),
(270,702,cs),
(152,702,o),
(49,593,o),
(49,345,cs),
(49,97,o),
(152,-13,o),
(270,-13,cs)
);
}
);
width = 586;
}
);
metricLeft = "=|theCarrier-canadian";
metricRight = "nunavuth-canadian";
note = uni1633;
unicode = 5683;
},
{
color = 9;
glyphname = "tlhuCarrier-canadian";
lastChange = "2023-01-13 15:55:21 +0000";
layers = (
{
layerId = "7D3FB2DB-72C7-4646-AA25-FB3BBECA0225";
shapes = (
{
closed = 1;
nodes = (
(461,-13,o),
(544,106,o),
(544,308,cs),
(544,479,o),
(492,586,o),
(403,631,c),
(381,620,l),
(537,620,l),
(537,539,l),
(604,539,l),
(604,771,l),
(537,771,l),
(537,690,l),
(345,690,l),
(345,617,l),
(416,577,o),
(454,477,o),
(454,326,cs),
(454,150,o),
(406,71,o),
(298,71,cs),
(192,71,o),
(144,150,o),
(144,326,cs),
(144,477,o),
(182,578,o),
(254,617,c),
(254,690,l),
(47,690,l),
(47,614,l),
(211,614,l),
(187,627,l),
(103,580,o),
(54,475,o),
(54,308,cs),
(54,106,o),
(137,-13,o),
(298,-13,cs)
);
}
);
width = 633;
}
);
metricLeft = "lhuCarrier-canadian";
note = uni1634;
unicode = 5684;
},
{
color = 9;
glyphname = "tlhoCarrier-canadian";
lastChange = "2023-01-13 15:55:24 +0000";
layers = (
{
layerId = "7D3FB2DB-72C7-4646-AA25-FB3BBECA0225";
shapes = (
{
closed = 1;
nodes = (
(96,-81,l),
(96,0,l),
(288,0,l),
(288,72,l),
(216,113,o),
(179,213,o),
(179,364,cs),
(179,540,o),
(227,619,o),
(334,619,cs),
(440,619,o),
(489,540,o),
(489,364,cs),
(489,213,o),
(451,112,o),
(379,72,c),
(379,0,l),
(585,0,l),
(585,75,l),
(423,75,l),
(445,63,l),
(530,110,o),
(579,214,o),
(579,382,cs),
(579,583,o),
(496,702,o),
(334,702,cs),
(172,702,o),
(90,583,o),
(90,382,cs),
(90,211,o),
(142,103,o),
(230,59,c),
(252,70,l),
(96,70,l),
(96,151,l),
(29,151,l),
(29,-81,l)
);
}
);
width = 632;
}
);
metricLeft = "=|tlhuCarrier-canadian";
metricRight = "lhuCarrier-canadian";
note = uni1635;
unicode = 5685;
},
{
color = 9;
glyphname = "tlheCarrier-canadian";
lastChange = "2023-01-13 15:55:21 +0000";
layers = (
{
anchors = (
{
name = middle_center_can;
pos = (302,345);
}
);
layerId = "7D3FB2DB-72C7-4646-AA25-FB3BBECA0225";
shapes = (
{
closed = 1;
nodes = (
(444,-13,o),
(547,97,o),
(547,345,cs),
(547,593,o),
(444,702,o),
(326,702,cs),
(221,702,o),
(151,636,o),
(127,517,c),
(136,512,l),
(136,701,l),
(200,701,l),
(200,766,l),
(6,766,l),
(6,701,l),
(70,701,l),
(70,416,l),
(146,416,l),
(156,529,o),
(200,619,o),
(302,619,cs),
(391,619,o),
(457,547,o),
(457,345,cs),
(457,148,o),
(391,71,o),
(302,71,cs),
(200,71,o),
(156,160,o),
(146,273,c),
(70,273,l),
(70,0,l),
(151,0,l),
(151,169,l),
(144,156,l),
(160,62,o),
(218,-13,o),
(326,-13,cs)
);
}
);
width = 596;
}
);
metricLeft = "dleCarrier-canadian";
metricRight = "theCarrier-canadian";
note = uni1636;
unicode = 5686;
},
{
color = 9;
glyphname = "tlhaCarrier-canadian";
lastChange = "2023-01-13 15:55:21 +0000";
layers = (
{
layerId = "7D3FB2DB-72C7-4646-AA25-FB3BBECA0225";
shapes = (
{
closed = 1;
nodes = (
(378,-13,o),
(436,62,o),
(452,156,c),
(445,169,l),
(445,0,l),
(526,0,l),
(526,273,l),
(450,273,l),
(440,160,o),
(396,71,o),
(294,71,cs),
(205,71,o),
(139,148,o),
(139,345,cs),
(139,547,o),
(205,619,o),
(294,619,cs),
(396,619,o),
(440,529,o),
(450,416,c),
(526,416,l),
(526,701,l),
(590,701,l),
(590,766,l),
(396,766,l),
(396,701,l),
(460,701,l),
(460,512,l),
(469,517,l),
(445,636,o),
(376,702,o),
(270,702,cs),
(152,702,o),
(49,593,o),
(49,345,cs),
(49,97,o),
(152,-13,o),
(270,-13,cs)
);
}
);
width = 596;
}
);
metricLeft = "=|theCarrier-canadian";
metricRight = "=|dleCarrier-canadian";
note = uni1639;
unicode = 5689;
},
{
color = 9;
glyphname = "tluCarrier-canadian";
lastChange = "2023-01-13 15:55:21 +0000";
layers = (
{
layerId = "7D3FB2DB-72C7-4646-AA25-FB3BBECA0225";
shapes = (
{
closed = 1;
nodes = (
(291,-13,o),
(339,24,o),
(359,107,c),
(334,107,l),
(354,24,o),
(403,-13,o),
(466,-13,cs),
(574,-13,o),
(639,69,o),
(639,275,cs),
(639,489,o),
(587,591,o),
(492,631,c),
(471,620,l),
(633,620,l),
(633,539,l),
(699,539,l),
(699,771,l),
(633,771,l),
(633,690,l),
(393,690,l),
(393,616,l),
(500,612,o),
(549,509,o),
(549,280,cs),
(549,109,o),
(514,70,o),
(463,70,cs),
(418,70,o),
(389,109,o),
(389,196,cs),
(389,302,l),
(304,302,l),
(304,196,ls),
(304,109,o),
(275,70,o),
(231,70,cs),
(180,70,o),
(145,109,o),
(145,280,cs),
(145,509,o),
(193,612,o),
(301,616,c),
(301,690,l),
(48,690,l),
(48,614,l),
(216,614,l),
(194,627,l),
(103,585,o),
(55,484,o),
(55,275,cs),
(55,69,o),
(120,-13,o),
(227,-13,cs)
);
}
);
width = 728;
}
);
metricRight = "tlhuCarrier-canadian";
note = uni163A;
unicode = 5690;
},
{
color = 1;
glyphname = "tloCarrier-canadian";
lastChange = "2023-01-13 15:55:21 +0000";
layers = (
{
layerId = "7D3FB2DB-72C7-4646-AA25-FB3BBECA0225";
shapes = (
{
closed = 1;
nodes = (
(699,-81,l),
(699,151,l),
(633,151,l),
(633,70,l),
(471,70,l),
(492,59,l),
(587,99,o),
(639,201,o),
(639,414,cs),
(639,621,o),
(574,702,o),
(466,702,cs),
(403,702,o),
(354,666,o),
(334,582,c),
(359,582,l),
(339,666,o),
(291,702,o),
(227,702,cs),
(120,702,o),
(55,621,o),
(55,414,cs),
(55,206,o),
(103,104,o),
(194,63,c),
(216,75,l),
(48,75,l),
(48,0,l),
(301,0,l),
(301,73,l),
(193,77,o),
(145,181,o),
(145,410,cs),
(145,581,o),
(180,620,o),
(231,620,cs),
(275,620,o),
(304,581,o),
(304,494,cs),
(304,387,l),
(389,387,l),
(389,494,ls),
(389,581,o),
(418,620,o),
(463,620,cs),
(514,620,o),
(549,581,o),
(549,410,cs),
(549,181,o),
(500,77,o),
(393,73,c),
(393,0,l),
(633,0,l),
(633,-81,l)
);
}
);
width = 728;
}
);
metricLeft = "tluCarrier-canadian";
metricRight = "tlhuCarrier-canadian";
note = uni163B;
unicode = 5691;
},
{
color = 9;
glyphname = "tleCarrier-canadian";
lastChange = "2023-01-13 15:55:21 +0000";
layers = (
{
anchors = (
{
name = middle_center_can;
pos = (242,345);
}
);
layerId = "7D3FB2DB-72C7-4646-AA25-FB3BBECA0225";
shapes = (
{
closed = 1;
nodes = (
(462,-13,o),
(537,61,o),
(537,180,cs),
(537,272,o),
(493,337,o),
(415,353,c),
(415,337,l),
(493,353,o),
(537,417,o),
(537,510,cs),
(537,629,o),
(462,702,o),
(341,702,cs),
(229,702,o),
(148,638,o),
(128,527,c),
(136,519,l),
(136,701,l),
(200,701,l),
(200,766,l),
(6,766,l),
(6,701,l),
(70,701,l),
(70,416,l),
(144,416,l),
(146,538,o),
(195,621,o),
(316,621,cs),
(402,621,o),
(448,578,o),
(448,497,cs),
(448,424,o),
(412,383,o),
(348,383,cs),
(319,383,l),
(319,308,l),
(348,308,ls),
(412,308,o),
(448,267,o),
(448,194,cs),
(448,112,o),
(402,69,o),
(316,69,cs),
(195,69,o),
(146,152,o),
(144,273,c),
(70,273,l),
(70,0,l),
(151,0,l),
(151,153,l),
(137,141,l),
(163,46,o),
(235,-13,o),
(341,-13,cs)
);
}
);
width = 594;
}
);
metricLeft = "dleCarrier-canadian";
metricRight = "geCarrier-canadian";
note = uni163C;
unicode = 5692;
},
{
color = 9;
glyphname = "tlaCarrier-canadian";
lastChange = "2023-01-13 15:55:21 +0000";
layers = (
{
layerId = "7D3FB2DB-72C7-4646-AA25-FB3BBECA0225";
shapes = (
{
closed = 1;
nodes = (
(360,-13,o),
(432,46,o),
(457,141,c),
(444,153,l),
(444,0,l),
(525,0,l),
(525,273,l),
(450,273,l),
(449,152,o),
(400,69,o),
(279,69,cs),
(193,69,o),
(146,112,o),
(146,194,cs),
(146,267,o),
(183,308,o),
(246,308,cs),
(277,308,l),
(277,383,l),
(246,383,ls),
(183,383,o),
(146,424,o),
(146,497,cs),
(146,578,o),
(192,621,o),
(278,621,cs),
(400,621,o),
(449,538,o),
(450,416,c),
(525,416,l),
(525,701,l),
(588,701,l),
(588,766,l),
(395,766,l),
(395,701,l),
(458,701,l),
(458,519,l),
(467,527,l),
(447,638,o),
(366,702,o),
(253,702,cs),
(132,702,o),
(57,629,o),
(57,510,cs),
(57,417,o),
(102,353,o),
(179,337,c),
(179,353,l),
(102,337,o),
(57,272,o),
(57,180,cs),
(57,61,o),
(132,-13,o),
(253,-13,cs)
);
}
);
width = 594;
}
);
metricLeft = "=|geCarrier-canadian";
metricRight = "=|dleCarrier-canadian";
note = uni163F;
unicode = 5695;
},
{
color = 9;
glyphname = "zuCarrier-canadian";
lastChange = "2023-01-13 15:55:21 +0000";
layers = (
{
layerId = "7D3FB2DB-72C7-4646-AA25-FB3BBECA0225";
shapes = (
{
closed = 1;
nodes = (
(449,-13,o),
(543,77,o),
(543,226,cs),
(543,339,o),
(470,482,o),
(470,555,cs),
(470,584,o),
(483,611,o),
(527,611,cs),
(551,611,l),
(551,690,l),
(505,690,ls),
(420,690,o),
(384,641,o),
(384,569,cs),
(384,481,o),
(453,345,o),
(453,240,cs),
(453,133,o),
(397,71,o),
(298,71,cs),
(198,71,o),
(143,132,o),
(143,240,cs),
(143,345,o),
(213,481,o),
(213,569,cs),
(213,641,o),
(176,690,o),
(91,690,cs),
(45,690,l),
(45,611,l),
(69,611,ls),
(112,611,o),
(126,584,o),
(126,555,cs),
(126,482,o),
(53,339,o),
(53,226,cs),
(53,77,o),
(146,-13,o),
(298,-13,cs)
);
}
);
width = 596;
}
);
metricRight = "=|";
note = uni1640;
unicode = 5696;
},
{
color = 9;
glyphname = "zoCarrier-canadian";
lastChange = "2023-01-13 15:55:21 +0000";
layers = (
{
layerId = "7D3FB2DB-72C7-4646-AA25-FB3BBECA0225";
shapes = (
{
closed = 1;
nodes = (
(91,0,ls),
(176,0,o),
(213,48,o),
(213,121,cs),
(213,209,o),
(143,345,o),
(143,450,cs),
(143,556,o),
(199,619,o),
(298,619,cs),
(398,619,o),
(453,557,o),
(453,450,cs),
(453,345,o),
(384,209,o),
(384,121,cs),
(384,48,o),
(421,0,o),
(505,0,cs),
(551,0,l),
(551,78,l),
(527,78,ls),
(484,78,o),
(470,105,o),
(470,134,cs),
(470,208,o),
(544,351,o),
(544,464,cs),
(544,612,o),
(450,702,o),
(298,702,cs),
(147,702,o),
(54,612,o),
(54,464,cs),
(54,351,o),
(126,208,o),
(126,134,cs),
(126,105,o),
(113,78,o),
(69,78,cs),
(45,78,l),
(45,0,l)
);
}
);
width = 596;
}
);
metricLeft = "zuCarrier-canadian";
metricRight = "zuCarrier-canadian";
note = uni1641;
unicode = 5697;
},
